{
.appVersion = "3110";
.formatVersion = 3;
DisplayStrings = (
"ٯ",
"تجربة خط الوان "
);
axes = (
{
name = Weight;
tag = wght;
}
);
classes = (
{
code = "";
name = DevaIMatras;
}
);
customParameters = (
{
name = fsType;
value = (
);
},
{
name = "Use Typo Metrics";
value = 1;
},
{
name = "Write lastChange";
value = 0;
},
{
name = "Use Line Breaks";
value = 1;
}
);
date = "2022-01-12 08:58:25 +0000";
familyName = Lemonada;
featurePrefixes = (
{
automatic = 1;
code = "languagesystem DFLT dflt;
languagesystem arab dflt;
languagesystem latn dflt;
languagesystem latn CAT;
languagesystem latn ROM;
languagesystem latn MOL;
languagesystem latn KAZ;
languagesystem latn TAT;
languagesystem latn TRK;
languagesystem latn CRT;
languagesystem latn AZE;
languagesystem arab URD;
";
name = Languagesystems;
}
);
features = (
{
automatic = 1;
code = "feature ccmp;
feature locl;
feature sups;
feature numr;
feature dnom;
feature frac;
feature ordn;
feature init;
feature medi;
feature fina;
feature rlig;
";
tag = aalt;
},
{
automatic = 1;
code = "lookup ccmp_Other_1 {
	@CombiningTopAccents = [acutecomb brevecomb caroncomb circumflexcomb commaturnedabovecomb dieresiscomb dotaccentcomb gravecomb hookabovecomb hungarumlautcomb macroncomb ringcomb tildecomb];
	@CombiningNonTopAccents = [cedillacomb dotbelowcomb ogonekcomb horncomb slashlongcomb slashshortcomb strokelongcomb strokeshortcomb];
	sub [i j]' @CombiningTopAccents by [idotless jdotless];
	sub [i j]' @CombiningNonTopAccents @CombiningTopAccents by [idotless jdotless];
} ccmp_Other_1;

lookup ccmp_arab_1 {
	script arab;
	sub hamzaabove-ar damma-ar by hamzaaboveDamma-ar;
	sub damma-ar hamzaabove-ar by hamzaaboveDamma-ar;
	sub hamzaabove-ar dammatan-ar by hamzaaboveDammatan-ar;
	sub dammatan-ar hamzaabove-ar by hamzaaboveDammatan-ar;
	sub hamzaabove-ar fatha-ar by hamzaaboveFatha-ar;
	sub fatha-ar hamzaabove-ar by hamzaaboveFatha-ar;
	sub hamzaabove-ar fathatan-ar by hamzaaboveFathatan-ar;

glyphs = (
{
color = 10;
glyphname = A;
kernLeft = A;
kernRight = A;
layers = (
{
anchors = (
{
name = bottom;
pos = (353,0);
},
{
name = ogonek;
pos = (727,16);
},
{
name = top;
pos = (478,710);
}
);
hints = (
{
horizontal = 1;
origin = (1,3);
target = (1,2);
type = Stem;
},
{
horizontal = 1;
origin = (0,8);
target = (0,30);
type = Stem;
},
{
origin = (0,37);
target = (0,5);
type = Stem;
},
{
origin = (0,12);
target = (0,21);
type = Stem;
},
{
horizontal = 1;
origin = (0,40);
target = up;
type = BottomGhost;
}
);
layerId = "E79706D4-AD71-4087-AB75-377D41BAFC4F";
shapes = (
{
closed = 1;
nodes = (
(161,-29,o),
(216,-11,o),
(253,16,c),
(238,44,o),
(232,71,o),
(232,110,cs),
(232,197,o),
(315,382,o),
(447,593,c),
(459,593,l),
(455,516,o),
(453,408,o),
(453,292,cs),
(452,65,o),
(496,-29,o),
(602,-29,cs),
(647,-29,o),
(688,-14,o),
(727,16,c),
(648,125,o),
(664,333,o),
(664,578,cs),
(664,680,o),
(632,725,o),
(559,725,cs),
(533,725,o),
(507,717,o),
(475,700,c),
(459,716,o),
(430,725,o),
(393,725,cs),
(322,725,o),
(266,708,o),
(191,662,c),
(224,577,l),
(68,271,o),
(20,151,o),
(20,69,cs),
(20,5,o),
(52,-29,o),
(113,-29,cs)
);
},
{
closed = 1;
nodes = (
(526,161,l),
(546,280,l),
(200,280,l),
(178,161,l)
);
}
);
width = 767;
},
{
anchors = (
{
name = bottom;
pos = (313,0);
},
{
name = ogonek;
pos = (619,-1);
},
{
name = top;
pos = (438,710);
}
);
hints = (
{
horizontal = 1;
origin = (1,3);
target = (1,2);
type = Stem;
},
{
horizontal = 1;
origin = (0,8);
target = (0,30);
type = Stem;
},
{
origin = (0,37);
target = (0,5);
type = Stem;
},
{
origin = (0,12);
target = (0,21);
type = Stem;
},
{
horizontal = 1;
origin = (0,40);
target = up;
type = BottomGhost;
}
);
layerId = "1D04CB99-59CD-4CDD-8259-0FDF24D9F847";
shapes = (
{
closed = 1;
nodes = (
(127,-23,o),
(146,-17,o),
(166,-1,c),
(157,20,o),
(153,47,o),
(153,83,cs),
(153,181,o),
(234,355,o),
(431,644,c),
(443,644,l),
(443,594,o),
(443,512,o),
(443,378,cs),
(443,62,o),
(465,-23,o),
(554,-23,cs),
(578,-23,o),
(600,-16,o),
(619,-1,c),
(527,88,o),
(546,498,o),
(546,665,cs),
(546,713,o),
(530,734,o),
(498,734,cs),
(481,734,o),
(467,728,o),
(454,715,c),
(449,728,o),
(436,734,o),
(411,734,cs),
(379,734,o),
(355,726,o),
(325,707,c),
(355,676,l),
(158,391,o),
(50,165,o),
(50,57,cs),
(50,5,o),
(67,-23,o),
(98,-23,cs)
);
},
{
closed = 1;
nodes = (
(484,194,l),
(495,253,l),
(149,253,l),
(136,194,l)
);
}
);
width = 674;
},
{
anchors = (
{
name = bottom;
pos = (321,0);
},
{
name = ogonek;
pos = (641,2);
},
{
name = top;
pos = (446,710);
}
);
hints = (
{
horizontal = 1;
origin = (1,3);
target = (1,2);
type = Stem;
},
{
horizontal = 1;
origin = (0,8);
target = (0,30);
type = Stem;
},
{
origin = (0,37);
target = (0,5);
type = Stem;
},
{
origin = (0,12);
target = (0,21);
type = Stem;
},
{
horizontal = 1;
origin = (0,40);
target = up;
type = BottomGhost;
}
);
layerId = "CE369AAB-0FC9-4F25-BC24-38D80C2A37D0";
shapes = (
{
closed = 1;
nodes = (
(134,-24,o),
(160,-16,o),
(183,2,c),
(173,25,o),
(169,52,o),
(169,88,cs),
(169,184,o),
(250,360,o),
(434,634,c),
(446,634,l),
(445,578,o),
(445,491,o),
(445,361,cs),
(445,63,o),
(471,-24,o),
(564,-24,cs),
(592,-24,o),
(618,-16,o),
(641,2,c),
(551,95,o),
(570,465,o),
(570,648,cs),
(570,706,o),
(550,732,o),
(510,732,cs),
(491,732,o),
(475,726,o),
(458,712,c),
(451,726,o),
(435,732,o),
(407,732,cs),
(368,732,o),
(337,722,o),
(298,698,c),
(329,656,l),
(140,367,o),
(44,162,o),
(44,59,cs),
(44,5,o),
(64,-24,o),
(101,-24,cs)
);
},
{
closed = 1;
nodes = (
(492,187,l),
(505,258,l),
(159,258,l),
(144,187,l)
);
}
);
width = 693;
}
);
unicode = 65;
},
{
color = 10;
glyphname = AE;
kernLeft = A;
kernRight = E;
layers = (
{
anchors = (
{
name = bottom;
pos = (468,0);
},
{
name = top;
pos = (581,710);
}
);
hints = (
{
horizontal = 1;
origin = (2,13);
target = (2,9);
type = Stem;
},
{
horizontal = 1;
origin = (1,3);
target = (1,2);
type = Stem;
},
{
horizontal = 1;
origin = (0,13);
target = (0,8);
type = Stem;
},
{
horizontal = 1;
origin = (4,13);
target = (4,6);
type = Stem;
},
{
origin = (0,20);
target = (0,5);
type = Stem;
},
{
origin = (2,9);
target = (3,5);
type = Stem;
}
);
layerId = "E79706D4-AD71-4087-AB75-377D41BAFC4F";
shapes = (
{
closed = 1;
nodes = (
(161,-29,o),
(216,-11,o),
(253,16,c),
(238,44,o),
(232,71,o),
(232,110,cs),
(232,197,o),
(319,382,o),
(457,593,c),
(469,593,l),
(509,680,l),
(489,709,o),
(451,726,o),
(403,726,cs),
(332,726,o),
(276,709,o),
(201,662,c),
(234,577,l),
(70,271,o),
(20,151,o),
(20,69,cs),
(20,5,o),
(52,-29,o),
(113,-29,cs)
);
},
{
closed = 1;
nodes = (
(488,161,l),
(508,280,l),
(182,280,l),
(160,161,l)
);
},
{
closed = 1;
nodes = (
(881,-25,o),
(935,24,o),
(935,111,cs),
(935,137,o),
(932,156,o),
(924,175,c),
(876,156,o),
(825,143,o),
(776,136,c),
(567,136,l),
(567,29,l),
(647,-10,o),
(709,-25,o),
(785,-25,cs)
);
},
{
closed = 1;
nodes = (
(569,-26,o),
(609,-12,o),
(644,19,c),
(622,50,o),
(614,83,o),
(614,144,cs),
(614,221,o),
(691,564,o),
(691,632,cs),
(691,695,o),
(665,726,o),
(614,726,cs),
(553,726,o),
(482,701,o),
(408,653,c),
(469,593,l),
(412,277,o),
(398,174,o),
(398,109,cs),
(398,14,o),
(434,-26,o),
(520,-26,cs)
);
},
{
closed = 1;
nodes = (
(763,249,o),
(804,284,o),
(804,341,cs),
(804,360,o),
(802,377,o),
(799,389,c),
(709,366,l),
(681,366,o),
(657,369,o),
(630,376,c),
(610,262,l),
(650,252,o),
(672,249,o),
(695,249,cs)
);
},
{
closed = 1;
nodes = (
(905,493,o),
(977,555,o),
(977,656,cs),
(977,676,o),
(974,698,o),
(969,721,c),
(845,690,o),
(753,668,o),
(622,668,c),
(610,533,l),
(649,513,o),
(736,493,o),
(786,493,cs)
);
}
);
width = 967;
},
{
anchors = (
{
name = bottom;
pos = (492,0);
},
{
name = top;
pos = (605,710);
}
);
hints = (
{
horizontal = 1;
origin = (2,13);
target = (2,9);
type = Stem;
},
{
horizontal = 1;
origin = (1,3);
target = (1,2);
type = Stem;
},
{
horizontal = 1;
origin = (0,13);
target = (0,8);
type = Stem;
},
{
horizontal = 1;
origin = (4,13);
target = (4,6);
type = Stem;
},
{
origin = (0,20);
target = (0,5);
type = Stem;
},
{
origin = (2,9);
target = (3,5);
type = Stem;
}
);
layerId = "1D04CB99-59CD-4CDD-8259-0FDF24D9F847";
shapes = (
{
closed = 1;
nodes = (
(115,-29,o),
(141,-28,o),
(166,-7,c),
(150,14,o),
(150,40,o),
(150,68,cs),
(150,169,o),
(240,348,o),
(456,644,c),
(468,644,l),
(490,682,l),
(482,712,o),
(468,726,o),
(436,726,cs),
(404,726,o),
(380,720,o),
(350,707,c),
(380,676,l),
(166,384,o),
(50,153,o),
(50,42,cs),
(50,-1,o),
(63,-29,o),
(94,-29,cs)
);
},
{
closed = 1;
nodes = (
(468,194,l),
(479,253,l),
(153,253,l),
(140,194,l)
);
},
{
closed = 1;
nodes = (
(760,-25,o),
(805,-5,o),
(805,44,cs),
(805,55,o),
(803,62,o),
(797,82,c),
(767,71,o),
(738,64,o),
(698,60,c),
(470,60,l),
(429,34,l),
(478,-1,o),
(570,-25,o),
(653,-25,cs)
);
},
{
closed = 1;
nodes = (
(473,-26,o),
(503,-15,o),
(539,10,c),
(504,25,o),
(487,47,o),
(487,74,cs),
(487,169,o),
(574,654,o),
(574,683,cs),
(574,712,o),
(562,726,o),
(538,726,cs),
(511,726,o),
(476,713,o),
(441,692,c),
(468,644,l),
(405,256,o),
(386,123,o),
(386,42,cs),
(386,-6,o),
(404,-26,o),
(444,-26,cs)
);
},
{
closed = 1;
nodes = (
(679,288,o),
(709,313,o),
(709,358,cs),
(709,363,o),
(709,370,o),
(709,377,c),
(640,360,l),
(589,360,o),
(544,362,o),
(501,367,c),
(488,309,l),
(543,294,o),
(582,288,o),
(623,288,cs)
);
},
{
closed = 1;
nodes = (
(801,604,o),
(858,621,o),
(858,683,cs),
(858,693,o),
(858,704,o),
(853,720,c),
(738,698,o),
(670,682,o),
(536,682,c),
(509,640,l),
(593,612,o),
(665,604,o),
(750,604,cs)
);
}
);
width = 834;
},
{
anchors = (
{
name = bottom;
pos = (488,0);
},
{
name = top;
pos = (601,710);
}
);
hints = (
{
horizontal = 1;
origin = (2,13);
target = (2,9);
type = Stem;
},
{
horizontal = 1;
origin = (1,3);
target = (1,2);
type = Stem;
},
{
horizontal = 1;
origin = (0,13);
target = (0,8);
type = Stem;
},
{
horizontal = 1;
origin = (4,13);
target = (4,6);
type = Stem;
},
{
origin = (0,20);
target = (0,5);
type = Stem;
},
{
origin = (2,9);
target = (3,5);
type = Stem;
}
);
layerId = "CE369AAB-0FC9-4F25-BC24-38D80C2A37D0";
shapes = (
{
closed = 1;
nodes = (
(125,-29,o),
(156,-25,o),
(184,-2,c),
(168,20,o),
(167,46,o),
(167,76,cs),
(167,175,o),
(256,355,o),
(457,634,c),
(469,634,l),
(494,682,l),
(484,711,o),
(465,726,o),
(430,726,cs),
(390,726,o),
(360,718,o),
(321,698,c),
(351,656,l),
(147,361,o),
(44,153,o),
(44,47,cs),
(44,0,o),
(61,-29,o),
(98,-29,cs)
);
},
{
closed = 1;
nodes = (
(472,187,l),
(485,258,l),
(159,258,l),
(144,187,l)
);
},
{
closed = 1;
nodes = (
(785,-25,o),
(831,1,o),
(831,57,cs),
(831,71,o),
(829,81,o),
(823,101,c),
(789,88,o),
(756,80,o),
(714,75,c),
(490,75,l),
(457,33,l),
(512,-3,o),
(598,-25,o),
(680,-25,cs)
);
},
{
closed = 1;
nodes = (
(493,-26,o),
(525,-14,o),
(560,12,c),
(528,30,o),
(513,54,o),
(513,88,cs),
(513,179,o),
(598,636,o),
(598,673,cs),
(598,709,o),
(583,726,o),
(554,726,cs),
(520,726,o),
(478,711,o),
(435,684,c),
(469,634,l),
(407,260,o),
(389,133,o),
(389,55,cs),
(389,-2,o),
(410,-26,o),
(460,-26,cs)
);
},
{
closed = 1;
nodes = (
(696,280,o),
(728,307,o),
(728,355,cs),
(728,362,o),
(728,371,o),
(727,379,c),
(654,361,l),
(608,361,o),
(567,363,o),
(527,369,c),
(513,300,l),
(565,286,o),
(600,280,o),
(638,280,cs)
);
},
{
closed = 1;
nodes = (
(822,582,o),
(882,608,o),
(882,678,cs),
(882,690,o),
(882,703,o),
(877,720,c),
(760,696,o),
(687,679,o),
(554,679,c),
(530,619,l),
(605,592,o),
(680,582,o),
(758,582,cs)
);
}
);
width = 861;
}
);
metricLeft = A;
metricRight = E;
unicode = 198;
},
{
color = 10;
glyphname = B;
kernLeft = H;
kernRight = B;
layers = (
{
hints = (
{
horizontal = 1;
origin = (0,27);
target = (1,24);
type = Stem;
},
{
horizontal = 1;
origin = (1,18);
target = (1,14);
type = Stem;
},
{
horizontal = 1;
origin = (0,17);
target = (1,8);
type = Stem;
},
{
origin = (0,24);
target = (1,2);
type = Stem;
},
{
origin = (1,21);
target = (0,2);
type = Stem;
},
{
origin = (1,11);
target = (0,8);
type = Stem;
}
);
layerId = "E79706D4-AD71-4087-AB75-377D41BAFC4F";
shapes = (
{
closed = 1;
nodes = (
(583,-24,o),
(722,59,o),
(722,188,cs),
(722,281,o),
(659,348,o),
(552,368,c),
(661,410,o),
(719,481,o),
(719,574,cs),
(719,668,o),
(654,725,o),
(547,725,cs),
(481,725,o),
(413,705,o),
(345,666,c),
(337,706,o),
(312,726,o),
(271,726,cs),
(210,726,o),
(139,701,o),
(65,653,c),
(118,546,l),
(72,283,o),
(60,197,o),
(60,140,cs),
(60,24,o),
(151,-24,o),
(368,-24,cs)
);
},
{
closed = 1;
nodes = (
(341,89,o),
(299,97,o),
(268,111,c),
(280,242,o),
(308,441,o),
(335,579,c),
(361,589,o),
(387,593,o),
(416,593,cs),
(472,593,o),
(501,568,o),
(501,518,cs),
(501,438,o),
(419,384,o),
(289,378,c),
(276,282,l),
(311,295,o),
(349,302,o),
(382,302,cs),
(460,302,o),
(504,265,o),
(504,201,cs),
(504,133,o),
(454,89,o),
(378,89,cs)
);
}
);
width = 762;
},
{
hints = (
{
horizontal = 1;
origin = (0,27);
target = (1,24);
type = Stem;
},
{
horizontal = 1;
origin = (1,18);
target = (1,14);
type = Stem;
},
{
horizontal = 1;
origin = (0,17);
target = (1,8);
type = Stem;
},
{
origin = (0,24);
target = (1,2);
type = Stem;
},
{
origin = (1,21);
target = (0,2);
type = Stem;
},
{
origin = (1,11);
target = (0,8);
type = Stem;
}
);
layerId = "1D04CB99-59CD-4CDD-8259-0FDF24D9F847";
shapes = (
{
closed = 1;
nodes = (
(558,-26,o),
(680,65,o),
(680,190,cs),
(680,283,o),
(617,348,o),
(510,368,c),
(616,415,o),
(677,490,o),
(677,574,cs),
(677,668,o),
(611,727,o),
(504,727,cs),
(441,727,o),
(376,710,o),
(308,677,c),
(309,709,o),
(296,726,o),
(270,726,cs),
(246,726,o),
(211,713,o),
(173,692,c),
(199,642,l),
(141,315,o),
(120,166,o),
(120,85,cs),
(120,18,o),
(223,-26,o),
(391,-26,cs)
);
},
{
closed = 1;
nodes = (
(326,38,o),
(265,49,o),
(220,66,c),
(232,244,o),
(257,411,o),
(301,617,c),
(357,642,o),
(410,653,o),
(464,653,cs),
(534,653,o),
(569,622,o),
(569,563,cs),
(569,450,o),
(442,372,o),
(238,362,c),
(231,300,l),
(293,315,o),
(351,322,o),
(400,322,cs),
(510,322,o),
(573,271,o),
(573,183,cs),
(573,96,o),
(498,38,o),
(381,38,cs)
);
}
);
width = 751;
},
{
hints = (
{
horizontal = 1;
origin = (0,27);
target = (1,24);
type = Stem;
},
{
horizontal = 1;
origin = (1,18);
target = (1,14);
type = Stem;
},
{
horizontal = 1;
origin = (0,17);
target = (1,8);
type = Stem;
},
{
origin = (0,24);
target = (1,2);
type = Stem;
},
{
origin = (1,21);
target = (0,2);
type = Stem;
},
{
origin = (1,11);
target = (0,8);
type = Stem;
}
);
layerId = "CE369AAB-0FC9-4F25-BC24-38D80C2A37D0";
shapes = (
{
closed = 1;
nodes = (
(563,-26,o),
(688,64,o),
(688,190,cs),
(688,283,o),
(625,348,o),
(518,368,c),
(625,414,o),
(685,488,o),
(685,574,cs),
(685,668,o),
(619,727,o),
(512,727,cs),
(449,727,o),
(383,709,o),
(315,675,c),
(314,708,o),
(299,726,o),
(270,726,cs),
(238,726,o),
(196,711,o),
(151,684,c),
(182,623,l),
(127,309,o),
(108,172,o),
(108,96,cs),
(108,19,o),
(208,-26,o),
(386,-26,cs)
);
},
{
closed = 1;
nodes = (
(329,48,o),
(271,59,o),
(229,75,c),
(241,244,o),
(267,417,o),
(307,609,c),
(357,631,o),
(405,641,o),
(454,641,cs),
(521,641,o),
(555,611,o),
(555,554,cs),
(555,448,o),
(437,374,o),
(248,365,c),
(240,296,l),
(296,311,o),
(350,318,o),
(396,318,cs),
(500,318,o),
(559,270,o),
(559,187,cs),
(559,103,o),
(489,48,o),
(380,48,cs)
);
}
);
width = 753;
}
);
metricLeft = H;
metricRight = "=H+10";
unicode = 66;
},
{
color = 10;
glyphname = C;
kernLeft = O;
kernRight = C;
layers = (
{
anchors = (
{
name = bottom;
pos = (315,0);
},
{
name = top;
pos = (457,696);
}
);
hints = (
{
horizontal = 1;
origin = (0,29);
target = (0,8);
type = Stem;
},
{
origin = (0,26);
target = (0,11);
type = Stem;
},
{
origin = (0,5);
target = (0,2);
type = Stem;
},
{
horizontal = 1;
origin = (0,23);
target = (0,14);
type = Stem;
}
);
layerId = "E79706D4-AD71-4087-AB75-377D41BAFC4F";
shapes = (
{
closed = 1;
nodes = (
(526,-25,o),
(664,62,o),
(664,171,cs),
(664,234,o),
(616,265,o),
(531,265,c),
(526,162,o),
(457,81,o),
(367,81,cs),
(292,81,o),
(248,152,o),
(248,274,cs),
(248,422,o),
(324,555,o),
(425,594,c),
(457,527,o),
(515,491,o),
(579,491,cs),
(647,491,o),
(696,536,o),
(696,599,cs),
(696,677,o),
(615,726,o),
(489,726,cs),
(225,726,o),
(30,538,o),
(30,278,cs),
(30,87,o),
(151,-25,o),
(355,-25,cs)
);
}
);
width = 716;
},
{
anchors = (
{
name = bottom;
pos = (267,0);
},
{
name = top;
pos = (439,696);
}
);
hints = (
{
horizontal = 1;
origin = (0,29);
target = (0,8);
type = Stem;
},
{
origin = (0,26);
target = (0,11);
type = Stem;
},
{
origin = (0,5);
target = (0,2);
type = Stem;
},
{
horizontal = 1;
origin = (0,23);
target = (0,14);
type = Stem;
}
);
layerId = "1D04CB99-59CD-4CDD-8259-0FDF24D9F847";
shapes = (
{
closed = 1;
nodes = (
(457,-25,o),
(571,65,o),
(571,171,cs),
(571,218,o),
(543,234,o),
(501,234,c),
(493,122,o),
(424,36,o),
(315,36,cs),
(222,36,o),
(166,115,o),
(166,247,cs),
(166,440,o),
(266,594,o),
(403,653,c),
(435,590,o),
(485,575,o),
(534,575,cs),
(584,575,o),
(623,607,o),
(623,649,cs),
(623,698,o),
(570,726,o),
(482,726,cs),
(251,726,o),
(60,523,o),
(60,256,cs),
(60,78,o),
(159,-25,o),
(322,-25,cs)
);
}
);
width = 650;
},
{
anchors = (
{
name = bottom;
pos = (276,0);
},
{
name = top;
pos = (442,696);
}
);
hints = (
{
horizontal = 1;
origin = (0,29);
target = (0,8);
type = Stem;
},
{
origin = (0,26);
target = (0,11);
type = Stem;
},
{
origin = (0,5);
target = (0,2);
type = Stem;
},
{
horizontal = 1;
origin = (0,23);
target = (0,14);
type = Stem;
}
);
layerId = "CE369AAB-0FC9-4F25-BC24-38D80C2A37D0";
shapes = (
{
closed = 1;
nodes = (
(470,-25,o),
(589,64,o),
(589,171,cs),
(589,221,o),
(557,240,o),
(507,240,c),
(499,130,o),
(430,45,o),
(325,45,cs),
(236,45,o),
(182,122,o),
(182,252,cs),
(182,436,o),
(277,586,o),
(407,641,c),
(439,577,o),
(491,558,o),
(543,558,cs),
(596,558,o),
(637,593,o),
(637,639,cs),
(637,694,o),
(579,726,o),
(483,726,cs),
(245,726,o),
(54,526,o),
(54,260,cs),
(54,80,o),
(157,-25,o),
(328,-25,cs)
);
}
);
width = 662;
}
);
metricLeft = O;
metricRight = "=O";
unicode = 67;
},
{
color = 10;
glyphname = D;
kernLeft = H;
kernRight = O;
layers = (
{
anchors = (
{
name = bottom;
pos = (356,0);
},
{
name = center;
pos = (226,355);
},
{
name = top;
pos = (481,710);
}
);
hints = (
{
horizontal = 1;
origin = (0,37);
target = (0,18);
type = Stem;
},
{
horizontal = 1;
origin = (0,27);
target = (0,12);
type = Stem;
},
{
origin = (0,34);
target = (0,21);
type = Stem;
},
{
origin = (0,15);
target = (0,2);
type = Stem;
}
);
layerId = "E79706D4-AD71-4087-AB75-377D41BAFC4F";
shapes = (
{
closed = 1;
nodes = (
(601,-25,o),
(796,158,o),
(796,419,cs),
(796,602,o),
(675,726,o),
(494,726,cs),
(392,726,o),
(330,701,o),
(235,620,c),
(265,538,l),
(319,578,o),
(362,596,o),
(403,596,cs),
(513,596,o),
(578,517,o),
(578,384,cs),
(578,211,o),
(481,89,o),
(343,89,cs),
(319,89,o),
(295,94,o),
(276,103,c),
(276,162,o),
(353,558,o),
(353,632,cs),
(353,695,o),
(327,726,o),
(276,726,cs),
(215,726,o),
(144,701,o),
(70,653,c),
(123,546,l),
(74,286,o),
(60,199,o),
(60,143,cs),
(60,38,o),
(158,-25,o),
(323,-25,cs)
);
}
);
width = 856;
},
{
anchors = (
{
name = bottom;
pos = (355,0);
},
{
name = center;
pos = (225,355);
},
{
name = top;
pos = (480,710);
}
);
hints = (
{
horizontal = 1;
origin = (0,37);
target = (0,18);
type = Stem;
},
{
horizontal = 1;
origin = (0,27);
target = (0,12);
type = Stem;
},
{
origin = (0,34);
target = (0,21);
type = Stem;
},
{
origin = (0,15);
target = (0,2);
type = Stem;
}
);
layerId = "1D04CB99-59CD-4CDD-8259-0FDF24D9F847";
shapes = (
{
closed = 1;
nodes = (
(582,-25,o),
(754,149,o),
(754,404,cs),
(754,602,o),
(645,726,o),
(473,726,cs),
(353,726,o),
(302,676,o),
(238,635,c),
(238,592,l),
(310,632,o),
(337,659,o),
(442,659,cs),
(576,659,o),
(647,565,o),
(647,387,cs),
(647,183,o),
(522,38,o),
(345,38,cs),
(297,38,o),
(262,43,o),
(219,55,c),
(219,165,o),
(304,654,o),
(304,683,cs),
(304,712,o),
(291,726,o),
(267,726,cs),
(247,726,o),
(212,713,o),
(172,692,c),
(198,642,l),
(142,313,o),
(120,154,o),
(120,85,cs),
(120,8,o),
(187,-25,o),
(331,-25,cs)
);
}
);
width = 821;
},
{
anchors = (
{
name = bottom;
pos = (356,0);
},
{
name = center;
pos = (226,355);
},
{
name = top;
pos = (481,710);
}
);
hints = (
{
horizontal = 1;
origin = (0,37);
target = (0,18);
type = Stem;
},
{
horizontal = 1;
origin = (0,27);
target = (0,12);
type = Stem;
},
{
origin = (0,34);
target = (0,21);
type = Stem;
},
{
origin = (0,15);
target = (0,2);
type = Stem;
}
);
layerId = "CE369AAB-0FC9-4F25-BC24-38D80C2A37D0";
shapes = (
{
closed = 1;
nodes = (
(586,-25,o),
(763,151,o),
(763,407,cs),
(763,602,o),
(651,726,o),
(478,726,cs),
(361,726,o),
(308,681,o),
(238,632,c),
(244,581,l),
(312,621,o),
(342,646,o),
(435,646,cs),
(564,646,o),
(634,555,o),
(634,386,cs),
(634,189,o),
(514,48,o),
(345,48,cs),
(302,48,o),
(269,53,o),
(231,65,c),
(231,164,o),
(314,635,o),
(314,673,cs),
(314,709,o),
(299,726,o),
(269,726,cs),
(241,726,o),
(199,711,o),
(152,684,c),
(183,623,l),
(129,308,o),
(108,163,o),
(108,97,cs),
(108,14,o),
(182,-25,o),
(330,-25,cs)
);
}
);
width = 828;
}
);
metricLeft = H;
metricRight = "=O+40";
unicode = 68;
},
{
color = 10;
glyphname = E;
kernLeft = H;
kernRight = E;
layers = (
{
anchors = (
{
name = bottom;
pos = (283,0);
},
{
name = ogonek;
pos = (554,10);
},
{
name = top;
pos = (398,710);
},
{
name = topleft;
pos = (20,710);
}
);
hints = (
{
horizontal = 1;
origin = (1,13);
target = (1,9);
type = Stem;
},
{
horizontal = 1;
origin = (2,13);
target = (2,6);
type = Stem;
},
{
origin = (0,18);
target = (0,5);
type = Stem;
},
{
horizontal = 1;
origin = (3,12);
target = (3,8);
type = Stem;
}
);
layerId = "E79706D4-AD71-4087-AB75-377D41BAFC4F";
shapes = (
{
closed = 1;
nodes = (
(231,-26,o),
(271,-12,o),
(306,19,c),
(284,50,o),
(276,83,o),
(276,144,cs),
(276,221,o),
(353,564,o),
(353,632,cs),
(353,695,o),
(327,726,o),
(276,726,cs),
(215,726,o),
(144,701,o),
(70,653,c),
(123,546,l),
(73,261,o),
(60,168,o),
(60,109,cs),
(60,14,o),
(96,-26,o),
(182,-26,cs)
);
},
{
closed = 1;
nodes = (
(543,-25,o),
(597,24,o),
(597,111,cs),
(597,137,o),
(594,156,o),
(586,175,c),
(538,156,o),
(487,143,o),
(438,136,c),
(229,136,l),
(229,29,l),
(309,-10,o),
(371,-25,o),
(447,-25,cs)
);
},
{
closed = 1;
nodes = (
(425,249,o),
(466,284,o),
(466,341,cs),
(466,360,o),
(464,377,o),
(461,389,c),
(371,366,l),
(343,366,o),
(319,369,o),
(292,376,c),
(272,262,l),
(312,252,o),
(334,249,o),
(357,249,cs)
);
},
{
closed = 1;
nodes = (
(567,493,o),
(639,555,o),
(639,656,cs),
(639,676,o),
(636,698,o),
(631,721,c),
(507,690,o),
(415,668,o),
(284,668,c),
(272,533,l),
(311,513,o),
(398,493,o),
(448,493,cs)
);
}
);
width = 629;
},
{
anchors = (
{
name = bottom;
pos = (327,0);
},
{
name = ogonek;
pos = (526,10);
},
{
name = top;
pos = (397,710);
},
{
name = topleft;
pos = (20,710);
}
);
hints = (
{
horizontal = 1;
origin = (1,13);
target = (1,9);
type = Stem;
},
{
horizontal = 1;
origin = (2,13);
target = (2,6);
type = Stem;
},
{
origin = (0,18);
target = (0,5);
type = Stem;
},
{
horizontal = 1;
origin = (3,12);
target = (3,8);
type = Stem;
}
);
layerId = "1D04CB99-59CD-4CDD-8259-0FDF24D9F847";
shapes = (
{
closed = 1;
nodes = (
(207,-26,o),
(237,-15,o),
(273,10,c),
(238,25,o),
(221,47,o),
(221,74,cs),
(221,169,o),
(308,654,o),
(308,683,cs),
(308,712,o),
(296,726,o),
(272,726,cs),
(245,726,o),
(210,713,o),
(175,692,c),
(201,642,l),
(138,255,o),
(120,123,o),
(120,42,cs),
(120,-6,o),
(138,-26,o),
(178,-26,cs)
);
},
{
closed = 1;
nodes = (
(494,-25,o),
(539,-5,o),
(539,44,cs),
(539,55,o),
(537,62,o),
(531,82,c),
(501,71,o),
(472,64,o),
(432,60,c),
(204,60,l),
(163,34,l),
(212,-1,o),
(304,-25,o),
(387,-25,cs)
);
},
{
closed = 1;
nodes = (
(413,288,o),
(443,313,o),
(443,358,cs),
(443,363,o),
(443,370,o),
(443,377,c),
(374,360,l),
(323,360,o),
(278,362,o),
(235,367,c),
(222,309,l),
(277,294,o),
(316,288,o),
(357,288,cs)
);
},
{
closed = 1;
nodes = (
(535,604,o),
(592,621,o),
(592,683,cs),
(592,693,o),
(592,704,o),
(587,720,c),
(472,698,o),
(404,682,o),
(270,682,c),
(243,640,l),
(327,612,o),
(399,604,o),
(484,604,cs)
);
}
);
width = 568;
},
{
anchors = (
{
name = bottom;
pos = (318,0);
},
{
name = ogonek;
pos = (532,10);
},
{
name = top;
pos = (397,710);
},
{
name = topleft;
pos = (20,710);
}
);
hints = (
{
horizontal = 1;
origin = (1,13);
target = (1,9);
type = Stem;
},
{
horizontal = 1;
origin = (2,13);
target = (2,6);
type = Stem;
},
{
origin = (0,18);
target = (0,5);
type = Stem;
},
{
horizontal = 1;
origin = (3,12);
target = (3,8);
type = Stem;
}
);
layerId = "CE369AAB-0FC9-4F25-BC24-38D80C2A37D0";
shapes = (
{
closed = 1;
nodes = (
(212,-26,o),
(244,-14,o),
(280,12,c),
(247,30,o),
(232,54,o),
(232,88,cs),
(232,179,o),
(317,636,o),
(317,673,cs),
(317,709,o),
(302,726,o),
(273,726,cs),
(239,726,o),
(197,711,o),
(154,684,c),
(185,623,l),
(125,256,o),
(108,132,o),
(108,55,cs),
(108,-2,o),
(130,-26,o),
(179,-26,cs)
);
},
{
closed = 1;
nodes = (
(504,-25,o),
(551,1,o),
(551,57,cs),
(551,71,o),
(548,81,o),
(542,101,c),
(508,88,o),
(475,80,o),
(433,75,c),
(209,75,l),
(176,33,l),
(231,-3,o),
(317,-25,o),
(399,-25,cs)
);
},
{
closed = 1;
nodes = (
(415,280,o),
(448,307,o),
(448,355,cs),
(448,362,o),
(447,371,o),
(447,379,c),
(373,361,l),
(327,361,o),
(286,363,o),
(246,369,c),
(232,300,l),
(284,286,o),
(320,280,o),
(357,280,cs)
);
},
{
closed = 1;
nodes = (
(541,582,o),
(601,608,o),
(601,678,cs),
(601,690,o),
(601,703,o),
(596,720,c),
(479,696,o),
(406,679,o),
(273,679,c),
(249,619,l),
(324,592,o),
(399,582,o),
(477,582,cs)
);
}
);
width = 580;
}
);
metricLeft = H;
unicode = 69;
},
{
color = 10;
glyphname = F;
kernLeft = H;
kernRight = F;
layers = (
{
hints = (
{
horizontal = 1;
origin = (1,13);
target = (1,6);
type = Stem;
},
{
origin = (0,18);
target = (0,5);
type = Stem;
},
{
horizontal = 1;
origin = (2,12);
target = (2,8);
type = Stem;
}
);
layerId = "E79706D4-AD71-4087-AB75-377D41BAFC4F";
shapes = (
{
closed = 1;
nodes = (
(231,-26,o),
(271,-12,o),
(306,19,c),
(284,50,o),
(276,83,o),
(276,144,cs),
(276,221,o),
(353,564,o),
(353,632,cs),
(353,695,o),
(327,726,o),
(276,726,cs),
(215,726,o),
(144,701,o),
(70,653,c),
(123,546,l),
(73,261,o),
(60,168,o),
(60,109,cs),
(60,14,o),
(96,-26,o),
(182,-26,cs)
);
},
{
closed = 1;
nodes = (
(425,249,o),
(466,284,o),
(466,341,cs),
(466,360,o),
(464,377,o),
(461,389,c),
(371,366,l),
(343,366,o),
(319,369,o),
(292,376,c),
(272,262,l),
(312,252,o),
(334,249,o),
(357,249,cs)
);
},
{
closed = 1;
nodes = (
(557,493,o),
(629,555,o),
(629,656,cs),
(629,676,o),
(626,698,o),
(621,721,c),
(497,690,o),
(405,668,o),
(274,668,c),
(262,533,l),
(301,513,o),
(388,493,o),
(438,493,cs)
);
}
);
width = 599;
},
{
hints = (
{
horizontal = 1;
origin = (1,13);
target = (1,6);
type = Stem;
},
{
origin = (0,18);
target = (0,5);
type = Stem;
},
{
horizontal = 1;
origin = (2,12);
target = (2,8);
type = Stem;
}
);
layerId = "1D04CB99-59CD-4CDD-8259-0FDF24D9F847";
shapes = (
{
closed = 1;
nodes = (
(197,-26,o),
(217,-20,o),
(243,-5,c),
(229,13,o),
(221,41,o),
(221,74,cs),
(221,169,o),
(308,654,o),
(308,683,cs),
(308,712,o),
(296,726,o),
(272,726,cs),
(245,726,o),
(210,713,o),
(175,692,c),
(201,642,l),
(138,255,o),
(120,123,o),
(120,42,cs),
(120,-6,o),
(138,-26,o),
(178,-26,cs)
);
},
{
closed = 1;
nodes = (
(413,288,o),
(443,313,o),
(443,358,cs),
(443,363,o),
(443,370,o),
(443,377,c),
(374,360,l),
(323,360,o),
(278,362,o),
(235,367,c),
(222,309,l),
(277,294,o),
(316,288,o),
(357,288,cs)
);
},
{
closed = 1;
nodes = (
(525,604,o),
(582,621,o),
(582,683,cs),
(582,693,o),
(582,704,o),
(577,720,c),
(462,698,o),
(394,682,o),
(260,682,c),
(233,640,l),
(317,612,o),
(389,604,o),
(474,604,cs)
);
}
);
width = 508;
},
{
hints = (
{
horizontal = 1;
origin = (1,13);
target = (1,6);
type = Stem;
},
{
origin = (0,18);
target = (0,5);
type = Stem;
},
{
horizontal = 1;
origin = (2,12);
target = (2,8);
type = Stem;
}
);
layerId = "CE369AAB-0FC9-4F25-BC24-38D80C2A37D0";
shapes = (
{
closed = 1;
nodes = (
(204,-26,o),
(228,-18,o),
(256,0,c),
(240,20,o),
(232,49,o),
(232,88,cs),
(232,179,o),
(317,636,o),
(317,673,cs),
(317,709,o),
(302,726,o),
(273,726,cs),
(239,726,o),
(197,711,o),
(154,684,c),
(185,623,l),
(125,256,o),
(108,132,o),
(108,55,cs),
(108,-2,o),
(130,-26,o),
(179,-26,cs)
);
},
{
closed = 1;
nodes = (
(415,280,o),
(448,307,o),
(448,355,cs),
(448,362,o),
(447,371,o),
(447,379,c),
(373,361,l),
(327,361,o),
(286,363,o),
(246,369,c),
(232,300,l),
(284,286,o),
(320,280,o),
(357,280,cs)
);
},
{
closed = 1;
nodes = (
(531,582,o),
(591,608,o),
(591,678,cs),
(591,690,o),
(591,703,o),
(586,720,c),
(469,696,o),
(396,679,o),
(263,679,c),
(239,619,l),
(314,592,o),
(389,582,o),
(467,582,cs)
);
}
);
width = 526;
}
);
metricLeft = H;
unicode = 70;
},
{
color = 10;
glyphname = G;
kernLeft = O;
kernRight = G;
layers = (
{
anchors = (
{
name = bottom;
pos = (260,0);
},
{
name = ogonek;
pos = (669,-141);
},
{
name = top;
pos = (467,696);
}
);
hints = (
{
horizontal = 1;
origin = (0,29);
target = (0,8);
type = Stem;
},
{
origin = (0,26);
target = (0,11);
type = Stem;
},
{
origin = (1,20);
target = (1,5);
type = Stem;
},
{
horizontal = 1;
origin = (0,23);
target = (0,14);
type = Stem;
}
);
layerId = "E79706D4-AD71-4087-AB75-377D41BAFC4F";
shapes = (
{
closed = 1;
nodes = (
(477,-30,o),
(570,59,o),
(570,171,cs),
(570,213,o),
(552,234,o),
(520,234,c),
(515,148,o),
(454,81,o),
(373,81,cs),
(294,81,o),
(248,152,o),
(248,274,cs),
(248,422,o),
(328,555,o),
(435,594,c),
(468,527,o),
(528,491,o),
(594,491,cs),
(663,491,o),
(713,536,o),
(713,599,cs),
(713,677,o),
(631,726,o),
(503,726,cs),
(231,726,o),
(30,538,o),
(30,278,cs),
(30,84,o),
(154,-30,o),
(362,-30,cs)
);
},
{
closed = 1;
nodes = (
(590,-185,o),
(631,-171,o),
(669,-141,c),
(648,-125,o),
(638,-96,o),
(638,-60,cs),
(638,56,o),
(716,265,o),
(716,310,cs),
(716,356,o),
(697,377,o),
(640,377,cs),
(576,377,o),
(502,347,o),
(442,309,c),
(520,234,l),
(559,189,l),
(444,19,l),
(436,-21,o),
(431,-54,o),
(431,-74,cs),
(431,-146,o),
(465,-185,o),
(550,-185,cs)
);
}
);
width = 756;
},
{
anchors = (
{
name = bottom;
pos = (215,0);
},
{
name = ogonek;
pos = (561,-167);
},
{
name = top;
pos = (422,696);
}
);
hints = (
{
horizontal = 1;
origin = (0,29);
target = (0,8);
type = Stem;
},
{
origin = (0,26);
target = (0,11);
type = Stem;
},
{
origin = (1,20);
target = (1,5);
type = Stem;
},
{
horizontal = 1;
origin = (0,23);
target = (0,14);
type = Stem;
}
);
layerId = "1D04CB99-59CD-4CDD-8259-0FDF24D9F847";
shapes = (
{
closed = 1;
nodes = (
(459,-30,o),
(566,76,o),
(566,201,cs),
(566,269,o),
(558,294,o),
(549,294,c),
(541,148,o),
(456,36,o),
(324,36,cs),
(225,36,o),
(166,115,o),
(166,247,cs),
(166,440,o),
(273,594,o),
(417,653,c),
(450,590,o),
(503,575,o),
(552,575,cs),
(605,575,o),
(644,607,o),
(644,649,cs),
(644,698,o),
(591,726,o),
(499,726,cs),
(260,726,o),
(60,523,o),
(60,256,cs),
(60,75,o),
(163,-30,o),
(332,-30,cs)
);
},
{
closed = 1;
nodes = (
(527,-185,o),
(544,-179,o),
(561,-167,c),
(552,-160,o),
(547,-147,o),
(547,-128,cs),
(547,17,o),
(646,313,o),
(646,333,cs),
(646,367,o),
(631,377,o),
(595,377,cs),
(564,377,o),
(517,361,o),
(487,332,c),
(549,294,l),
(556,221,l),
(479,40,l),
(457,-51,o),
(449,-105,o),
(449,-134,cs),
(449,-172,o),
(468,-185,o),
(504,-185,cs)
);
}
);
width = 717;
},
{
anchors = (
{
name = bottom;
pos = (224,0);
},
{
name = ogonek;
pos = (582,-162);
},
{
name = top;
pos = (431,696);
}
);
hints = (
{
horizontal = 1;
origin = (0,29);
target = (0,8);
type = Stem;
},
{
origin = (0,26);
target = (0,11);
type = Stem;
},
{
origin = (1,20);
target = (1,5);
type = Stem;
},
{
horizontal = 1;
origin = (0,23);
target = (0,14);
type = Stem;
}
);
layerId = "CE369AAB-0FC9-4F25-BC24-38D80C2A37D0";
shapes = (
{
closed = 1;
nodes = (
(462,-30,o),
(566,73,o),
(566,195,cs),
(566,258,o),
(556,282,o),
(543,282,c),
(535,148,o),
(455,45,o),
(333,45,cs),
(238,45,o),
(182,122,o),
(182,252,cs),
(182,436,o),
(284,586,o),
(420,641,c),
(453,577,o),
(508,558,o),
(560,558,cs),
(616,558,o),
(657,593,o),
(657,639,cs),
(657,694,o),
(599,726,o),
(499,726,cs),
(254,726,o),
(54,526,o),
(54,260,cs),
(54,77,o),
(161,-30,o),
(338,-30,cs)
);
},
{
closed = 1;
nodes = (
(539,-185,o),
(561,-177,o),
(582,-162,c),
(571,-153,o),
(565,-137,o),
(565,-114,cs),
(565,25,o),
(660,303,o),
(660,328,cs),
(660,365,o),
(644,377,o),
(604,377,cs),
(566,377,o),
(514,358,o),
(478,327,c),
(543,282,l),
(556,215,l),
(472,36,l),
(452,-45,o),
(445,-95,o),
(445,-122,cs),
(445,-167,o),
(467,-185,o),
(513,-185,cs)
);
}
);
width = 725;
}
);
metricLeft = O;
metricRight = "=H+10";
unicode = 71;
},
{
color = 10;
glyphname = H;
kernLeft = H;
kernRight = H;
layers = (
{
anchors = (
{
name = bottom;
pos = (363,0);
},
{
name = center;
pos = (441,495);
},
{
name = top;
pos = (475,710);
},
{
name = topleft;
pos = (20,710);
}
);
hints = (
{
horizontal = 1;
origin = (2,3);
target = (2,2);
type = Stem;
},
{
origin = (1,18);
target = (1,5);
type = Stem;
},
{
origin = (0,18);
target = (0,5);
type = Stem;
}
);
layerId = "E79706D4-AD71-4087-AB75-377D41BAFC4F";
shapes = (
{
closed = 1;
nodes = (
(668,-26,o),
(708,-12,o),
(747,19,c),
(725,50,o),
(717,83,o),
(717,144,cs),
(717,221,o),
(794,564,o),
(794,632,cs),
(794,695,o),
(768,726,o),
(717,726,cs),
(656,726,o),
(585,701,o),
(511,653,c),
(564,546,l),
(513,253,o),
(501,167,o),
(501,109,cs),
(501,14,o),
(537,-26,o),
(623,-26,cs)
);
},
{
closed = 1;
nodes = (
(227,-26,o),
(267,-12,o),
(306,19,c),
(284,50,o),
(276,83,o),
(276,144,cs),
(276,221,o),
(353,564,o),
(353,632,cs),
(353,695,o),
(327,726,o),
(276,726,cs),
(215,726,o),
(144,701,o),
(70,653,c),
(123,546,l),
(72,253,o),
(60,167,o),
(60,109,cs),
(60,14,o),
(96,-26,o),
(182,-26,cs)
);
},
{
closed = 1;
nodes = (
(581,267,l),
(601,386,l),
(255,386,l),
(233,267,l)
);
}
);
width = 824;
},
{
anchors = (
{
name = bottom;
pos = (384,0);
},
{
name = center;
pos = (458,522);
},
{
name = top;
pos = (484,710);
},
{
name = topleft;
pos = (20,710);
}
);
hints = (
{
horizontal = 1;
origin = (2,3);
target = (2,2);
type = Stem;
},
{
origin = (1,18);
target = (1,5);
type = Stem;
},
{
origin = (0,18);
target = (0,5);
type = Stem;
}
);
layerId = "1D04CB99-59CD-4CDD-8259-0FDF24D9F847";
shapes = (
{
closed = 1;
nodes = (
(644,-26,o),
(664,-20,o),
(688,-5,c),
(674,13,o),
(666,41,o),
(666,74,cs),
(666,169,o),
(753,654,o),
(753,683,cs),
(753,712,o),
(741,726,o),
(717,726,cs),
(690,726,o),
(655,713,o),
(620,692,c),
(646,642,l),
(583,259,o),
(565,124,o),
(565,42,cs),
(565,-6,o),
(583,-26,o),
(623,-26,cs)
);
},
{
closed = 1;
nodes = (
(199,-26,o),
(219,-20,o),
(243,-5,c),
(229,13,o),
(221,41,o),
(221,74,cs),
(221,169,o),
(308,654,o),
(308,683,cs),
(308,712,o),
(296,726,o),
(272,726,cs),
(245,726,o),
(210,713,o),
(175,692,c),
(201,642,l),
(138,259,o),
(120,124,o),
(120,42,cs),
(120,-6,o),
(138,-26,o),
(178,-26,cs)
);
},
{
closed = 1;
nodes = (
(629,297,l),
(640,356,l),
(204,356,l),
(191,297,l)
);
}
);
width = 814;
},
{
anchors = (
{
name = bottom;
pos = (380,0);
},
{
name = center;
pos = (455,517);
},
{
name = top;
pos = (482,710);
},
{
name = topleft;
pos = (20,710);
}
);
hints = (
{
horizontal = 1;
origin = (2,3);
target = (2,2);
type = Stem;
},
{
origin = (1,18);
target = (1,5);
type = Stem;
},
{
origin = (0,18);
target = (0,5);
type = Stem;
}
);
layerId = "CE369AAB-0FC9-4F25-BC24-38D80C2A37D0";
shapes = (
{
closed = 1;
nodes = (
(649,-26,o),
(673,-18,o),
(700,0,c),
(684,20,o),
(676,49,o),
(676,88,cs),
(676,179,o),
(761,636,o),
(761,673,cs),
(761,709,o),
(746,726,o),
(717,726,cs),
(683,726,o),
(641,711,o),
(598,684,c),
(630,623,l),
(569,258,o),
(552,133,o),
(552,55,cs),
(552,-2,o),
(574,-26,o),
(623,-26,cs)
);
},
{
closed = 1;
nodes = (
(205,-26,o),
(229,-18,o),
(256,0,c),
(240,20,o),
(232,49,o),
(232,88,cs),
(232,179,o),
(317,636,o),
(317,673,cs),
(317,709,o),
(302,726,o),
(273,726,cs),
(239,726,o),
(197,711,o),
(154,684,c),
(185,623,l),
(125,258,o),
(108,133,o),
(108,55,cs),
(108,-2,o),
(130,-26,o),
(179,-26,cs)
);
},
{
closed = 1;
nodes = (
(619,291,l),
(632,362,l),
(214,362,l),
(199,291,l)
);
}
);
width = 816;
}
);
unicode = 72;
},
{
color = 10;
glyphname = I;
kernLeft = H;
kernRight = H;
layers = (
{
anchors = (
{
name = bottom;
pos = (170,0);
},
{
name = ogonek;
pos = (306,20);
},
{
name = top;
pos = (255,710);
},
{
name = topleft;
pos = (20,710);
}
);
hints = (
{
origin = (0,18);
target = (0,5);
type = Stem;
}
);
layerId = "E79706D4-AD71-4087-AB75-377D41BAFC4F";
shapes = (
{
closed = 1;
nodes = (
(227,-25,o),
(267,-11,o),
(306,20,c),
(284,51,o),
(276,84,o),
(276,145,cs),
(276,222,o),
(353,564,o),
(353,632,cs),
(353,695,o),
(327,726,o),
(276,726,cs),
(215,726,o),
(144,701,o),
(70,653,c),
(123,546,l),
(72,254,o),
(60,168,o),
(60,110,cs),
(60,15,o),
(96,-25,o),
(182,-25,cs)
);
}
);
width = 383;
},
{
anchors = (
{
name = bottom;
pos = (163,0);
},
{
name = ogonek;
pos = (243,-4);
},
{
name = top;
pos = (263,710);
},
{
name = topleft;
pos = (20,710);
}
);
hints = (
{
origin = (0,18);
target = (0,5);
type = Stem;
}
);
layerId = "1D04CB99-59CD-4CDD-8259-0FDF24D9F847";
shapes = (
{
closed = 1;
nodes = (
(199,-25,o),
(219,-19,o),
(243,-4,c),
(229,14,o),
(221,42,o),
(221,75,cs),
(221,170,o),
(308,654,o),
(308,683,cs),
(308,712,o),
(296,726,o),
(272,726,cs),
(245,726,o),
(210,713,o),
(175,692,c),
(201,642,l),
(138,260,o),
(120,125,o),
(120,43,cs),
(120,-5,o),
(138,-25,o),
(178,-25,cs)
);
}
);
width = 369;
},
{
anchors = (
{
name = bottom;
pos = (164,0);
},
{
name = ogonek;
pos = (256,1);
},
{
name = top;
pos = (261,710);
},
{
name = topleft;
pos = (20,710);
}
);
hints = (
{
origin = (0,18);
target = (0,5);
type = Stem;
}
);
layerId = "CE369AAB-0FC9-4F25-BC24-38D80C2A37D0";
shapes = (
{
closed = 1;
nodes = (
(205,-25,o),
(229,-17,o),
(256,1,c),
(240,21,o),
(232,50,o),
(232,89,cs),
(232,180,o),
(317,636,o),
(317,673,cs),
(317,709,o),
(302,726,o),
(273,726,cs),
(239,726,o),
(197,711,o),
(154,684,c),
(185,623,l),
(125,259,o),
(108,134,o),
(108,56,cs),
(108,-1,o),
(130,-25,o),
(179,-25,cs)
);
}
);
width = 372;
}
);
metricLeft = H;
metricRight = H;
unicode = 73;
},
{
color = 10;
glyphname = J;
kernLeft = J;
kernRight = J;
layers = (
{
anchors = (
{
name = bottom;
pos = (243,0);
},
{
name = top;
pos = (368,710);
}
);
hints = (
{
horizontal = 1;
place = (-45, 21);
target = up;
type = BottomGhost;
},
{
horizontal = 1;
place = (724, -20);
target = down;
type = TopGhost;
}
);
layerId = "E79706D4-AD71-4087-AB75-377D41BAFC4F";
shapes = (
{
closed = 1;
nodes = (
(349,-25,o),
(497,24,o),
(533,278,cs),
(582,632,l),
(349,545,l),
(312,278,ls),
(290,120,o),
(272,112,o),
(230,88,c),
(265,37,l),
(248,168,o),
(178,222,o),
(111,222,cs),
(53,222,o),
(0,181,o),
(0,115,cs),
(0,34,o),
(84,-25,o),
(203,-25,cs)
);
},
{
closed = 1;
nodes = (
(512,480,o),
(605,534,o),
(605,626,cs),
(605,689,o),
(568,726,o),
(496,726,cs),
(444,726,o),
(399,698,o),
(369,641,c),
(308,645,o),
(181,688,o),
(99,732,c),
(89,697,o),
(84,663,o),
(84,635,cs),
(84,523,o),
(159,480,o),
(356,480,cs)
);
}
);
width = 610;
},
{
anchors = (
{
name = bottom;
pos = (200,0);
},
{
name = top;
pos = (325,710);
}
);
hints = (
{
horizontal = 1;
place = (-67.5, 21);
target = up;
type = BottomGhost;
},
{
horizontal = 1;
place = (1086, -20);
target = down;
type = TopGhost;
}
);
layerId = "1D04CB99-59CD-4CDD-8259-0FDF24D9F847";
shapes = (
{
closed = 1;
nodes = (
(325,-25,o),
(395,72,o),
(424,269,cs),
(483,683,l),
(381,643,l),
(330,269,ls),
(305,84,o),
(262,31,o),
(157,27,c),
(183,16,l),
(167,51,o),
(145,114,o),
(80,114,cs),
(34,114,o),
(15,85,o),
(15,58,cs),
(15,-1,o),
(81,-25,o),
(139,-25,cs)
);
},
{
closed = 1;
nodes = (
(467,585,o),
(514,609,o),
(514,670,cs),
(514,706,o),
(490,726,o),
(456,726,cs),
(417,726,o),
(389,700,o),
(378,656,c),
(295,660,o),
(187,690,o),
(105,732,c),
(97,721,o),
(90,696,o),
(90,673,cs),
(90,610,o),
(162,585,o),
(346,585,cs)
);
}
);
width = 523;
},
{
anchors = (
{
name = bottom;
pos = (209,0);
},
{
name = top;
pos = (334,710);
}
);
hints = (
{
horizontal = 1;
place = (-63, 21);
target = up;
type = BottomGhost;
},
{
horizontal = 1;
place = (1013.6, -20);
target = down;
type = TopGhost;
}
);
layerId = "CE369AAB-0FC9-4F25-BC24-38D80C2A37D0";
shapes = (
{
closed = 1;
nodes = (
(330,-25,o),
(415,62,o),
(446,271,cs),
(503,673,l),
(375,623,l),
(326,271,ls),
(302,91,o),
(264,47,o),
(172,39,c),
(199,20,l),
(183,74,o),
(152,136,o),
(86,136,cs),
(38,136,o),
(12,104,o),
(12,69,cs),
(12,6,o),
(82,-25,o),
(152,-25,cs)
);
},
{
closed = 1;
nodes = (
(476,564,o),
(532,594,o),
(532,661,cs),
(532,703,o),
(506,726,o),
(464,726,cs),
(422,726,o),
(391,700,o),
(376,653,c),
(298,657,o),
(186,690,o),
(104,732,c),
(95,716,o),
(89,689,o),
(89,665,cs),
(89,593,o),
(161,564,o),
(348,564,cs)
);
}
);
width = 540;
}
);
unicode = 74;
},
{
color = 10;
glyphname = K;
kernLeft = H;
kernRight = K;
layers = (
{
anchors = (
{
name = bottom;
pos = (339,0);
},
{
name = top;
pos = (451,710);
}
);
hints = (
{
origin = (1,18);
target = (1,5);
type = Stem;
},
{
origin = (0,12);
target = (0,3);
type = Stem;
}
);
layerId = "E79706D4-AD71-4087-AB75-377D41BAFC4F";
shapes = (
{
closed = 1;
nodes = (
(432,345,ls),
(639,457,o),
(734,548,o),
(734,635,cs),
(734,695,o),
(701,725,o),
(636,725,cs),
(592,725,o),
(545,710,o),
(496,680,c),
(501,665,o),
(504,650,o),
(504,633,cs),
(504,569,o),
(451,494,o),
(358,425,cs),
(182,296,l),
(182,210,l)
);
},
{
closed = 1;
nodes = (
(229,-26,o),
(269,-12,o),
(306,19,c),
(284,50,o),
(276,83,o),
(276,144,cs),
(276,221,o),
(353,564,o),
(353,632,cs),
(353,695,o),
(327,726,o),
(276,726,cs),
(215,726,o),
(144,701,o),
(70,653,c),
(123,546,l),
(74,264,o),
(60,169,o),
(60,109,cs),
(60,14,o),
(96,-26,o),
(182,-26,cs)
);
},
{
closed = 1;
nodes = (
(639,-25,o),
(707,1,o),
(736,30,c),
(666,79,o),
(589,235,o),
(530,446,c),
(347,317,l),
(410,139,ls),
(453,17,o),
(500,-25,o),
(593,-25,cs)
);
}
);
width = 736;
},
{
anchors = (
{
name = bottom;
pos = (321,0);
},
{
name = top;
pos = (421,710);
}
);
hints = (
{
origin = (1,18);
target = (1,5);
type = Stem;
},
{
origin = (0,12);
target = (0,3);
type = Stem;
}
);
layerId = "1D04CB99-59CD-4CDD-8259-0FDF24D9F847";
shapes = (
{
closed = 1;
nodes = (
(412,386,ls),
(592,510,o),
(662,584,o),
(662,662,cs),
(662,698,o),
(635,725,o),
(601,725,cs),
(583,725,o),
(563,719,o),
(550,709,c),
(555,698,o),
(558,688,o),
(558,678,cs),
(558,590,o),
(496,518,o),
(287,362,cs),
(210,304,l),
(212,246,l)
);
},
{
closed = 1;
nodes = (
(198,-26,o),
(218,-20,o),
(243,-5,c),
(229,13,o),
(221,41,o),
(221,74,cs),
(221,169,o),
(308,654,o),
(308,683,cs),
(308,712,o),
(296,726,o),
(272,726,cs),
(248,726,o),
(213,713,o),
(175,692,c),
(201,642,l),
(139,264,o),
(120,124,o),
(120,42,cs),
(120,-6,o),
(138,-26,o),
(178,-26,cs)
);
},
{
closed = 1;
nodes = (
(601,-25,o),
(636,-13,o),
(649,2,c),
(589,58,o),
(491,237,o),
(420,416,c),
(339,362,l),
(440,148,ls),
(507,1,o),
(527,-25,o),
(579,-25,cs)
);
}
);
width = 676;
},
{
anchors = (
{
name = bottom;
pos = (325,0);
},
{
name = top;
pos = (427,710);
}
);
hints = (
{
origin = (1,18);
target = (1,5);
type = Stem;
},
{
origin = (0,12);
target = (0,3);
type = Stem;
}
);
layerId = "CE369AAB-0FC9-4F25-BC24-38D80C2A37D0";
shapes = (
{
closed = 1;
nodes = (
(416,378,ls),
(601,499,o),
(676,577,o),
(676,657,cs),
(676,697,o),
(648,725,o),
(608,725,cs),
(585,725,o),
(559,717,o),
(539,703,c),
(544,691,o),
(547,680,o),
(547,669,cs),
(547,586,o),
(487,513,o),
(301,375,cs),
(204,302,l),
(206,239,l)
);
},
{
closed = 1;
nodes = (
(204,-26,o),
(228,-18,o),
(256,0,c),
(240,20,o),
(232,49,o),
(232,88,cs),
(232,179,o),
(317,636,o),
(317,673,cs),
(317,709,o),
(302,726,o),
(273,726,cs),
(241,726,o),
(199,711,o),
(154,684,c),
(185,623,l),
(126,264,o),
(108,133,o),
(108,55,cs),
(108,-2,o),
(130,-26,o),
(179,-26,cs)
);
},
{
closed = 1;
nodes = (
(609,-25,o),
(650,-10,o),
(666,8,c),
(604,62,o),
(511,237,o),
(442,422,c),
(341,353,l),
(434,146,ls),
(496,4,o),
(522,-25,o),
(582,-25,cs)
);
}
);
width = 688;
}
);
metricLeft = H;
unicode = 75;
},
{
color = 10;
glyphname = L;
kernLeft = H;
kernRight = L;
layers = (
{
anchors = (
{
name = bottom;
pos = (277,0);
},
{
name = center;
pos = (477,385);
},
{
name = top;
pos = (247,710);
},
{
name = topright;
pos = (383,610);
}
);
hints = (
{
horizontal = 1;
origin = (1,13);
target = (1,9);
type = Stem;
},
{
origin = (0,18);
target = (0,5);
type = Stem;
}
);
layerId = "E79706D4-AD71-4087-AB75-377D41BAFC4F";
shapes = (
{
closed = 1;
nodes = (
(229,-26,o),
(269,-12,o),
(306,19,c),
(284,50,o),
(276,83,o),
(276,144,cs),
(276,221,o),
(353,564,o),
(353,632,cs),
(353,695,o),
(327,726,o),
(276,726,cs),
(215,726,o),
(144,701,o),
(70,653,c),
(123,546,l),
(74,264,o),
(60,169,o),
(60,109,cs),
(60,14,o),
(96,-26,o),
(182,-26,cs)
);
},
{
closed = 1;
nodes = (
(489,-25,o),
(543,24,o),
(543,111,cs),
(543,138,o),
(539,157,o),
(532,175,c),
(484,156,o),
(433,143,o),
(384,136,c),
(260,136,l),
(211,14,l),
(288,-18,o),
(339,-25,o),
(393,-25,cs)
);
}
);
width = 553;
},
{
anchors = (
{
name = bottom;
pos = (270,0);
},
{
name = center;
pos = (410,385);
},
{
name = top;
pos = (240,710);
},
{
name = topright;
pos = (370,610);
}
);
hints = (
{
horizontal = 1;
origin = (1,13);
target = (1,9);
type = Stem;
},
{
origin = (0,18);
target = (0,5);
type = Stem;
}
);
layerId = "1D04CB99-59CD-4CDD-8259-0FDF24D9F847";
shapes = (
{
closed = 1;
nodes = (
(208,-26,o),
(238,-15,o),
(273,10,c),
(238,25,o),
(221,47,o),
(221,74,cs),
(221,169,o),
(308,654,o),
(308,683,cs),
(308,712,o),
(296,726,o),
(272,726,cs),
(245,726,o),
(210,713,o),
(175,692,c),
(201,642,l),
(137,254,o),
(120,123,o),
(120,42,cs),
(120,-6,o),
(138,-26,o),
(178,-26,cs)
);
},
{
closed = 1;
nodes = (
(459,-25,o),
(500,-5,o),
(500,44,cs),
(500,54,o),
(499,61,o),
(492,82,c),
(462,71,o),
(433,64,o),
(393,60,c),
(188,60,l),
(157,26,l),
(198,-3,o),
(282,-25,o),
(363,-25,cs)
);
}
);
width = 540;
},
{
anchors = (
{
name = bottom;
pos = (271,0);
},
{
name = center;
pos = (423,385);
},
{
name = top;
pos = (241,710);
},
{
name = topright;
pos = (373,610);
}
);
hints = (
{
horizontal = 1;
origin = (1,13);
target = (1,9);
type = Stem;
},
{
origin = (0,18);
target = (0,5);
type = Stem;
}
);
layerId = "CE369AAB-0FC9-4F25-BC24-38D80C2A37D0";
shapes = (
{
closed = 1;
nodes = (
(212,-26,o),
(244,-14,o),
(280,12,c),
(247,30,o),
(232,54,o),
(232,88,cs),
(232,179,o),
(317,636,o),
(317,673,cs),
(317,709,o),
(302,726,o),
(273,726,cs),
(239,726,o),
(197,711,o),
(154,684,c),
(185,623,l),
(124,256,o),
(108,132,o),
(108,55,cs),
(108,-2,o),
(130,-26,o),
(179,-26,cs)
);
},
{
closed = 1;
nodes = (
(465,-25,o),
(509,1,o),
(509,57,cs),
(509,71,o),
(507,80,o),
(500,101,c),
(466,88,o),
(433,80,o),
(391,75,c),
(202,75,l),
(168,24,l),
(216,-6,o),
(293,-25,o),
(369,-25,cs)
);
}
);
width = 543;
}
);
metricLeft = H;
unicode = 76;
},
{
color = 1;
glyphname = Lslash;
kernLeft = H;
kernRight = L;
layers = (
{
layerId = "E79706D4-AD71-4087-AB75-377D41BAFC4F";
shapes = (
{
closed = 1;
nodes = (
(16,169,o),
(36,164,o),
(58,173,cs),
(208,236,o),
(411,351,o),
(495,395,c),
(489,422,o),
(474,455,o),
(465,462,cs),
(446,478,o),
(428,483,o),
(406,473,cs),
(256,406,o),
(57,301,o),
(-33,252,c),
(-27,227,o),
(-21,201,o),
(-3,185,cs)
);
},
{
ref = L;
}
);
width = 553;
},
{
layerId = "1D04CB99-59CD-4CDD-8259-0FDF24D9F847";
shapes = (
{
closed = 1;
nodes = (
(56,219,o),
(75,215,o),
(98,223,cs),
(239,273,o),
(335,329,o),
(415,355,c),
(411,366,o),
(404,375,o),
(395,382,cs),
(376,398,o),
(358,402,o),
(336,393,cs),
(196,340,o),
(103,292,o),
(17,262,c),
(21,252,o),
(28,243,o),
(37,235,cs)
);
},
{
ref = L;
}
);
width = 540;
},
{
layerId = "CE369AAB-0FC9-4F25-BC24-38D80C2A37D0";
shapes = (
{
closed = 1;
nodes = (
(56,204,o),
(77,197,o),
(98,208,cs),
(240,278,o),
(335,339,o),
(415,380,c),
(411,399,o),
(406,418,o),
(395,427,cs),
(376,443,o),
(357,449,o),
(336,438,cs),
(195,365,o),
(103,312,o),
(17,267,c),
(21,249,o),
(26,230,o),
(37,220,cs)
);
},
{
ref = L;
}
);
width = 543;
}
);
unicode = 321;
},
{
color = 10;
glyphname = M;
kernLeft = M;
kernRight = M;
layers = (
{
hints = (
{
horizontal = 1;
place = (726, -20);
target = down;
type = TopGhost;
},
{
horizontal = 1;
place = (726, -216);
place = (726, -216);
type = Stem;
},
{
horizontal = 1;
place = (720, -20);
target = down;
type = TopGhost;
},
{
place = (60, 216);
place = (60, 216);
type = Stem;
},
{
place = (710, 216);
place = (710, 216);
type = Stem;
},
{
horizontal = 1;
place = (-26, 21);
target = up;
type = BottomGhost;
}
);
layerId = "E79706D4-AD71-4087-AB75-377D41BAFC4F";
shapes = (
{
closed = 1;
nodes = (
(225,-26,o),
(265,-12,o),
(306,19,c),
(286,51,o),
(276,96,o),
(276,164,cs),
(276,216,o),
(304,376,o),
(335,510,c),
(345,510,l),
(366,125,o),
(405,41,o),
(478,41,cs),
(516,41,o),
(558,56,o),
(591,87,c),
(603,203,o),
(662,387,o),
(759,510,c),
(769,510,l),
(731,315,o),
(710,195,o),
(710,129,cs),
(710,25,o),
(742,-26,o),
(832,-26,cs),
(875,-26,o),
(915,-12,o),
(956,19,c),
(936,51,o),
(926,96,o),
(926,164,cs),
(926,235,o),
(1003,550,o),
(1003,612,cs),
(1003,670,o),
(982,720,o),
(893,720,cs),
(686,720,o),
(566,456,o),
(516,293,c),
(504,293,l),
(472,665,o),
(405,726,o),
(276,726,cs),
(205,726,o),
(132,693,o),
(70,653,c),
(123,546,l),
(83,325,o),
(60,196,o),
(60,129,cs),
(60,25,o),
(92,-26,o),
(182,-26,cs)
);
}
);
width = 1033;
},
{
associatedMasterId = "E79706D4-AD71-4087-AB75-377D41BAFC4F";
hints = (
{
horizontal = 1;
place = (726, -20);
target = down;
type = TopGhost;
},
{
horizontal = 1;
place = (726, -216);
place = (726, -216);
type = Stem;
},
{
horizontal = 1;
place = (720, -20);
target = down;
type = TopGhost;
},
{
place = (60, 216);
place = (60, 216);
type = Stem;
},
{
place = (710, 216);
place = (710, 216);
type = Stem;
},
{
horizontal = 1;
place = (-26, 21);
target = up;
type = BottomGhost;
}
);
layerId = "D67B66B7-4B97-49EC-B6F1-997388DBB96E";
name = "Jun 15 17, 02:08";
shapes = (
{
closed = 1;
nodes = (
(225,-27,o),
(265,-13,o),
(306,18,c),
(286,50,o),
(276,95,o),
(276,163,c),
(276,221,o),
(311,417,o),
(347,558,c),
(269,509,l),
(411,509,l),
(340,613,l),
(360,139,o),
(399,40,o),
(478,40,c),
(516,40,o),
(558,55,o),
(591,86,c),
(604,213,o),
(674,422,o),
(788,542,c),
(693,509,l),
(835,509,l),
(783,578,l),
(736,342,o),
(710,201,o),
(710,128,c),
(710,24,o),
(742,-27,o),
(832,-27,c),
(875,-27,o),
(915,-13,o),
(956,18,c),
(936,50,o),
(926,95,o),
(926,163,c),
(926,234,o),
(1003,549,o),
(1003,611,c),
(1003,669,o),
(982,719,o),
(893,719,c),
(671,719,o),
(549,416,o),
(506,258,c),
(582,292,l),
(438,292,l),
(511,196,l),
(482,654,o),
(415,725,o),
(276,725,c),
(205,725,o),
(132,692,o),
(70,652,c),
(152,486,l),
(136,617,l),
(88,351,o),
(60,202,o),
(60,128,c),
(60,24,o),
(92,-27,o),
(182,-27,c)
);
}
);
width = 1033;
},
{
associatedMasterId = "1D04CB99-59CD-4CDD-8259-0FDF24D9F847";
hints = (
{
horizontal = 1;
place = (726, -20);
target = down;
type = TopGhost;
},
{
horizontal = 1;
place = (726, -132);
place = (726, -132);
type = Stem;
},
{
horizontal = 1;
place = (728, -20);
target = down;
type = TopGhost;
},
{
place = (123, 99);
place = (123, 99);
type = Stem;
},
{
place = (782, 99);
place = (782, 99);
type = Stem;
},
{
horizontal = 1;
place = (-26, 21);
target = up;
type = BottomGhost;
}
);
layerId = "F3A3EC43-F3D3-4801-B38E-A9C4B38D32DE";
name = "Jun 15 17, 02:08";
shapes = (
{
closed = 1;
nodes = (
(860,-28,o),
(881,-21,o),
(904,-7,c),
(888,11,o),
(881,33,o),
(881,62,cs),
(881,160,o),
(966,660,o),
(966,692,cs),
(966,723,o),
(951,728,o),
(944,728,cs),
(786,728,o),
(570,421,o),
(504,110,c),
(536,131,l),
(471,131,l),
(507,90,l),
(385,639,o),
(389,726,o),
(270,726,cs),
(249,726,o),
(215,717,o),
(175,692,c),
(213,618,l),
(207,679,l),
(137,230,o),
(123,111,o),
(123,32,cs),
(123,-11,o),
(143,-26,o),
(181,-26,cs),
(201,-26,o),
(222,-20,o),
(245,-5,c),
(229,12,o),
(222,35,o),
(222,64,cs),
(222,139,o),
(270,429,o),
(294,612,c),
(265,594,l),
(324,594,l),
(286,640,l),
(417,78,o),
(414,41,o),
(505,41,cs),
(530,41,o),
(558,52,o),
(581,72,c),
(601,187,o),
(700,488,o),
(862,605,c),
(821,594,l),
(880,594,l),
(859,629,l),
(795,229,o),
(782,110,o),
(782,30,cs),
(782,-13,o),
(802,-28,o),
(838,-28,cs)
);
}
);
width = 1031;
},
{
associatedMasterId = "1D04CB99-59CD-4CDD-8259-0FDF24D9F847";
hints = (
{
horizontal = 1;
place = (726, -20);
target = down;
type = TopGhost;
},
{
horizontal = 1;
place = (726, -216);
place = (726, -216);
type = Stem;
},
{
horizontal = 1;
place = (720, -20);
target = down;
type = TopGhost;
},
{
place = (60, 216);
place = (60, 216);
type = Stem;
},
{
place = (710, 216);
place = (710, 216);
type = Stem;
},
{
horizontal = 1;
place = (-26, 21);
target = up;
type = BottomGhost;
}
);
layerId = "A4E88B8E-933B-4045-9FF1-D28B6D311CA5";
name = "Jun 15 17, 02:08";
shapes = (
{
closed = 1;
nodes = (
(225,-27,o),
(265,-13,o),
(306,18,c),
(286,50,o),
(276,95,o),
(276,163,c),
(276,221,o),
(311,417,o),
(347,558,c),
(269,509,l),
(411,509,l),
(340,613,l),
(360,139,o),
(399,40,o),
(478,40,c),
(516,40,o),
(558,55,o),
(591,86,c),
(604,213,o),
(674,422,o),
(788,542,c),
(693,509,l),
(835,509,l),
(783,578,l),
(736,342,o),
(710,201,o),
(710,128,c),
(710,24,o),
(742,-27,o),
(832,-27,c),
(875,-27,o),
(915,-13,o),
(956,18,c),
(936,50,o),
(926,95,o),
(926,163,c),
(926,234,o),
(1003,549,o),
(1003,611,c),
(1003,669,o),
(982,719,o),
(893,719,c),
(671,719,o),
(549,416,o),
(506,258,c),
(582,292,l),
(438,292,l),
(511,196,l),
(482,654,o),
(415,725,o),
(276,725,c),
(205,725,o),
(132,692,o),
(70,652,c),
(152,486,l),
(136,617,l),
(88,351,o),
(60,202,o),
(60,128,c),
(60,24,o),
(92,-27,o),
(182,-27,c)
);
}
);
width = 1033;
},
{
hints = (
{
horizontal = 1;
place = (726, -20);
target = down;
type = TopGhost;
},
{
horizontal = 1;
place = (726, -132);
place = (726, -132);
type = Stem;
},
{
horizontal = 1;
place = (728, -20);
target = down;
type = TopGhost;
},
{
place = (123, 99);
place = (123, 99);
type = Stem;
},
{
place = (782, 99);
place = (782, 99);
type = Stem;
},
{
horizontal = 1;
place = (-26, 21);
target = up;
type = BottomGhost;
}
);
layerId = "1D04CB99-59CD-4CDD-8259-0FDF24D9F847";
shapes = (
{
closed = 1;
nodes = (
(198,-26,o),
(219,-20,o),
(242,-5,c),
(226,12,o),
(219,35,o),
(219,64,cs),
(219,137,o),
(264,411,o),
(289,594,c),
(294,594,l),
(414,76,o),
(414,41,o),
(502,41,cs),
(527,41,o),
(555,52,o),
(578,72,c),
(597,184,o),
(691,471,o),
(845,594,c),
(850,594,l),
(791,222,o),
(779,108,o),
(779,30,cs),
(779,-13,o),
(799,-28,o),
(835,-28,cs),
(857,-28,o),
(878,-21,o),
(901,-7,c),
(885,11,o),
(878,33,o),
(878,62,cs),
(878,160,o),
(963,660,o),
(963,692,cs),
(963,723,o),
(948,728,o),
(941,728,cs),
(787,728,o),
(577,435,o),
(506,131,c),
(495,131,l),
(382,643,o),
(383,726,o),
(267,726,cs),
(246,726,o),
(212,717,o),
(172,692,c),
(198,642,l),
(133,223,o),
(120,109,o),
(120,32,cs),
(120,-11,o),
(140,-26,o),
(178,-26,cs)
);
}
);
width = 1024;
},
{
associatedMasterId = "1D04CB99-59CD-4CDD-8259-0FDF24D9F847";
hints = (
{
horizontal = 1;
place = (726, -20);
target = down;
type = TopGhost;
},
{
horizontal = 1;
place = (726, -132);
place = (726, -132);
type = Stem;
},
{
horizontal = 1;
place = (728, -20);
target = down;
type = TopGhost;
},
{
place = (123, 99);
place = (123, 99);
type = Stem;
},
{
place = (782, 99);
place = (782, 99);
type = Stem;
},
{
horizontal = 1;
place = (-26, 21);
target = up;
type = BottomGhost;
}
);
layerId = "8F2642E3-B77E-4A92-AED8-28FABE9B0BA9";
name = "Jun 15 17, 02:08";
shapes = (
{
closed = 1;
nodes = (
(860,-28,o),
(881,-21,o),
(904,-7,c),
(888,11,o),
(881,33,o),
(881,62,cs),
(881,160,o),
(966,660,o),
(966,692,cs),
(966,723,o),
(951,728,o),
(944,728,cs),
(786,728,o),
(570,421,o),
(504,110,c),
(536,131,l),
(471,131,l),
(507,90,l),
(385,639,o),
(389,726,o),
(270,726,cs),
(249,726,o),
(215,717,o),
(175,692,c),
(213,618,l),
(207,679,l),
(137,230,o),
(123,111,o),
(123,32,cs),
(123,-11,o),
(143,-26,o),
(181,-26,cs),
(201,-26,o),
(222,-20,o),
(245,-5,c),
(229,12,o),
(222,35,o),
(222,64,cs),
(222,139,o),
(270,429,o),
(294,612,c),
(265,594,l),
(324,594,l),
(286,640,l),
(417,78,o),
(414,41,o),
(505,41,cs),
(530,41,o),
(558,52,o),
(581,72,c),
(601,187,o),
(700,488,o),
(862,605,c),
(821,594,l),
(880,594,l),
(859,629,l),
(795,229,o),
(782,110,o),
(782,30,cs),
(782,-13,o),
(802,-28,o),
(838,-28,cs)
);
}
);
width = 1031;
},
{
hints = (
{
horizontal = 1;
place = (727.6, -20);
target = down;
type = TopGhost;
},
{
horizontal = 1;
place = (770.8, 36);
place = (770.8, 36);
type = Stem;
},
{
horizontal = 1;
place = (724.8, -20);
target = down;
type = TopGhost;
},
{
place = (110.4, 122.4);
place = (110.4, 122.4);
type = Stem;
},
{
place = (722.8, -62.4);
place = (722.8, -62.4);
type = Stem;
},
{
horizontal = 1;
place = (-26, 21);
target = up;
type = BottomGhost;
}
);
layerId = "CE369AAB-0FC9-4F25-BC24-38D80C2A37D0";
shapes = (
{
closed = 1;
nodes = (
(204,-26,o),
(229,-18,o),
(255,0,c),
(238,20,o),
(231,47,o),
(231,84,cs),
(231,153,o),
(272,404,o),
(299,577,c),
(305,577,l),
(405,86,o),
(413,41,o),
(498,41,cs),
(525,41,o),
(556,53,o),
(581,75,c),
(599,188,o),
(686,454,o),
(828,577,c),
(834,577,l),
(779,241,o),
(766,125,o),
(766,50,cs),
(766,-5,o),
(788,-28,o),
(835,-28,cs),
(861,-28,o),
(886,-19,o),
(912,-2,c),
(896,19,o),
(888,46,o),
(888,82,cs),
(888,175,o),
(971,638,o),
(971,676,cs),
(971,712,o),
(955,726,o),
(932,726,cs),
(767,726,o),
(575,439,o),
(508,163,c),
(497,163,l),
(400,647,o),
(388,726,o),
(269,726,cs),
(238,726,o),
(196,712,o),
(152,684,c),
(183,623,l),
(123,243,o),
(108,126,o),
(108,51,cs),
(108,-4,o),
(131,-26,o),
(179,-26,cs)
);
}
);
width = 1026;
}
);
metricLeft = H;
metricRight = H;
unicode = 77;
},
{
color = 10;
glyphname = N;
kernLeft = H;
kernRight = H;
layers = (
{
anchors = (
{
name = bottom;
pos = (370,0);
},
{
name = top;
pos = (495,710);
}
);
hints = (
{
origin = (1,18);
target = (1,5);
type = Stem;
},
{
origin = (2,18);
target = (2,5);
type = Stem;
}
);
layerId = "E79706D4-AD71-4087-AB75-377D41BAFC4F";
shapes = (
{
closed = 1;
nodes = (
(654,243,l),
(544,243,l),
(477,653,o),
(436,726,o),
(276,726,c),
(289,546,l),
(353,546,l),
(430,77,o),
(486,-26,o),
(663,-25,c)
);
},
{
closed = 1;
nodes = (
(227,-26,o),
(267,-12,o),
(306,19,c),
(284,50,o),
(276,83,o),
(276,144,cs),
(276,221,o),
(353,564,o),
(353,632,cs),
(353,695,o),
(327,726,o),
(276,726,cs),
(215,726,o),
(144,701,o),
(70,653,c),
(123,546,l),
(72,253,o),
(60,167,o),
(60,109,cs),
(60,14,o),
(96,-26,o),
(182,-26,cs)
);
},
{
closed = 1;
nodes = (
(708,-25,o),
(748,-11,o),
(787,20,c),
(765,51,o),
(757,84,o),
(757,145,cs),
(757,222,o),
(834,565,o),
(834,633,cs),
(834,696,o),
(808,727,o),
(757,727,cs),
(699,727,o),
(631,702,o),
(561,654,c),
(604,547,l),
(553,254,o),
(541,168,o),
(541,110,cs),
(541,15,o),
(577,-25,o),
(663,-25,cs)
);
}
);
width = 864;
},
{
anchors = (
{
name = bottom;
pos = (373,0);
},
{
name = top;
pos = (498,710);
}
);
hints = (
{
origin = (1,18);
target = (1,5);
type = Stem;
},
{
origin = (2,18);
target = (2,5);
type = Stem;
}
);
layerId = "1D04CB99-59CD-4CDD-8259-0FDF24D9F847";
shapes = (
{
closed = 1;
nodes = (
(652,83,l),
(584,84,l),
(399,656,o),
(365,726,o),
(271,726,c),
(263,624,l),
(305,624,l),
(497,29,o),
(526,-26,o),
(648,-27,c)
);
},
{
closed = 1;
nodes = (
(199,-26,o),
(219,-20,o),
(243,-5,c),
(229,13,o),
(221,41,o),
(221,74,cs),
(221,169,o),
(308,654,o),
(308,683,cs),
(308,712,o),
(296,726,o),
(272,726,cs),
(245,726,o),
(210,713,o),
(175,692,c),
(201,642,l),
(138,259,o),
(120,124,o),
(120,42,cs),
(120,-6,o),
(138,-26,o),
(178,-26,cs)
);
},
{
closed = 1;
nodes = (
(669,-27,o),
(689,-20,o),
(713,-6,c),
(699,12,o),
(691,41,o),
(691,73,cs),
(691,168,o),
(778,654,o),
(778,683,cs),
(778,711,o),
(766,726,o),
(742,726,cs),
(714,726,o),
(677,713,o),
(640,692,c),
(671,642,l),
(608,259,o),
(590,123,o),
(590,41,cs),
(590,-6,o),
(608,-27,o),
(648,-27,cs)
);
}
);
width = 839;
},
{
anchors = (
{
name = bottom;
pos = (372,0);
},
{
name = top;
pos = (497,710);
}
);
hints = (
{
origin = (1,18);
target = (1,5);
type = Stem;
},
{
origin = (2,18);
target = (2,5);
type = Stem;
}
);
layerId = "CE369AAB-0FC9-4F25-BC24-38D80C2A37D0";
shapes = (
{
closed = 1;
nodes = (
(652,115,l),
(576,116,l),
(415,655,o),
(379,726,o),
(272,726,c),
(268,608,l),
(315,608,l),
(484,39,o),
(518,-26,o),
(651,-27,c)
);
},
{
closed = 1;
nodes = (
(205,-26,o),
(229,-18,o),
(256,0,c),
(240,20,o),
(232,49,o),
(232,88,cs),
(232,179,o),
(317,636,o),
(317,673,cs),
(317,709,o),
(302,726,o),
(273,726,cs),
(239,726,o),
(197,711,o),
(154,684,c),
(185,623,l),
(125,258,o),
(108,133,o),
(108,55,cs),
(108,-2,o),
(130,-26,o),
(179,-26,cs)
);
},
{
closed = 1;
nodes = (
(677,-27,o),
(701,-18,o),
(728,-1,c),
(712,20,o),
(704,50,o),
(704,87,cs),
(704,179,o),
(789,636,o),
(789,673,cs),
(789,708,o),
(774,726,o),
(745,726,cs),
(711,726,o),
(668,711,o),
(624,684,c),
(658,623,l),
(597,258,o),
(580,132,o),
(580,55,cs),
(580,-2,o),
(602,-27,o),
(651,-27,cs)
);
}
);
width = 844;
}
);
metricLeft = H;
metricRight = H;
unicode = 78;
},
{
color = 10;
glyphname = Eng;
kernLeft = Eng;
kernRight = Eng;
layers = (
{
hints = (
{
horizontal = 1;
origin = (1,15);
target = (2,4);
type = Stem;
},
{
origin = (1,18);
target = (1,5);
type = Stem;
},
{
origin = (2,1);
target = (0,3);
type = Stem;
}
);
layerId = "E79706D4-AD71-4087-AB75-377D41BAFC4F";
shapes = (
{
closed = 1;
nodes = (
(591,-240,o),
(705,-109,o),
(772,268,cs),
(796,402,o),
(834,585,o),
(834,633,cs),
(834,696,o),
(808,727,o),
(757,727,cs),
(699,727,o),
(631,702,o),
(561,654,c),
(604,547,l),
(537,150,ls),
(510,-16,o),
(434,-114,o),
(221,-114,c),
(221,-207,o),
(313,-240,o),
(375,-240,cs)
);
},
{
closed = 1;
nodes = (
(227,-26,o),
(267,-12,o),
(306,19,c),
(284,50,o),
(276,83,o),
(276,144,cs),
(276,221,o),
(353,564,o),
(353,632,cs),
(353,695,o),
(327,726,o),
(276,726,cs),
(215,726,o),
(144,701,o),
(70,653,c),
(123,546,l),
(72,253,o),
(60,167,o),
(60,109,cs),
(60,14,o),
(96,-26,o),
(182,-26,cs)
);
},
{
closed = 1;
nodes = (
(654,243,l),
(544,243,l),
(477,653,o),
(436,726,o),
(276,726,c),
(289,546,l),
(353,546,l),
(430,77,o),
(486,-26,o),
(663,-25,c)
);
}
);
width = 894;
},
{
hints = (
{
horizontal = 1;
origin = (1,15);
target = (2,4);
type = Stem;
},
{
origin = (1,18);
target = (1,5);
type = Stem;
},
{
origin = (2,1);
target = (0,3);
type = Stem;
}
);
layerId = "1D04CB99-59CD-4CDD-8259-0FDF24D9F847";
shapes = (
{
closed = 1;
nodes = (
(578,-240,o),
(665,-79,o),
(708,222,cs),
(735,402,o),
(779,662,o),
(779,683,cs),
(779,711,o),
(766,726,o),
(742,726,cs),
(714,726,o),
(678,713,o),
(641,692,c),
(672,642,l),
(623,281,ls),
(569,-82,o),
(503,-174,o),
(296,-174,c),
(296,-207,o),
(336,-240,o),
(390,-240,cs)
);
},
{
closed = 1;
nodes = (
(199,-26,o),
(219,-20,o),
(243,-5,c),
(229,13,o),
(221,41,o),
(221,74,cs),
(221,169,o),
(308,654,o),
(308,683,cs),
(308,712,o),
(296,726,o),
(272,726,cs),
(245,726,o),
(210,713,o),
(175,692,c),
(201,642,l),
(138,259,o),
(120,124,o),
(120,42,cs),
(120,-6,o),
(138,-26,o),
(178,-26,cs)
);
},
{
closed = 1;
nodes = (
(645,83,l),
(577,84,l),
(394,656,o),
(362,726,o),
(271,726,c),
(263,624,l),
(305,624,l),
(494,29,o),
(522,-26,o),
(640,-27,c)
);
}
);
width = 870;
},
{
hints = (
{
horizontal = 1;
origin = (1,15);
target = (2,4);
type = Stem;
},
{
origin = (1,18);
target = (1,5);
type = Stem;
},
{
origin = (2,1);
target = (0,3);
type = Stem;
}
);
layerId = "CE369AAB-0FC9-4F25-BC24-38D80C2A37D0";
shapes = (
{
closed = 1;
nodes = (
(581,-240,o),
(673,-85,o),
(721,231,cs),
(747,402,o),
(790,647,o),
(790,673,cs),
(790,708,o),
(774,726,o),
(745,726,cs),
(711,726,o),
(669,711,o),
(625,684,c),
(658,623,l),
(606,255,ls),
(557,-69,o),
(489,-162,o),
(281,-162,c),
(281,-207,o),
(331,-240,o),
(387,-240,cs)
);
},
{
closed = 1;
nodes = (
(205,-26,o),
(229,-18,o),
(256,0,c),
(240,20,o),
(232,49,o),
(232,88,cs),
(232,179,o),
(317,636,o),
(317,673,cs),
(317,709,o),
(302,726,o),
(273,726,cs),
(239,726,o),
(197,711,o),
(154,684,c),
(185,623,l),
(125,258,o),
(108,133,o),
(108,55,cs),
(108,-2,o),
(130,-26,o),
(179,-26,cs)
);
},
{
closed = 1;
nodes = (
(647,115,l),
(570,116,l),
(411,655,o),
(377,726,o),
(272,726,c),
(268,608,l),
(315,608,l),
(481,39,o),
(515,-26,o),
(645,-27,c)
);
}
);
width = 875;
}
);
metricLeft = N;
metricRight = "=N+30";
unicode = 330;
},
{
color = 10;
glyphname = O;
kernLeft = O;
kernRight = O;
layers = (
{
anchors = (
{
name = bottom;
pos = (349,0);
},
{
name = center;
pos = (437,355);
},
{
name = ogonek;
pos = (526,10);
},
{
name = top;
pos = (461,710);
},
{
name = topleft;
pos = (25,710);
},
{
name = topright;
pos = (611,622);
}
);
hints = (
{
horizontal = 1;
origin = (0,35);
target = (0,14);
type = Stem;
},
{
horizontal = 1;
origin = (0,20);
target = (0,29);
type = Stem;
},
{
origin = (0,32);
target = (0,17);
type = Stem;
},
{
origin = (0,11);
target = (0,2);
type = Stem;
}
);
layerId = "E79706D4-AD71-4087-AB75-377D41BAFC4F";
shapes = (
{
closed = 1;
nodes = (
(579,-25,o),
(753,167,o),
(753,424,cs),
(753,547,o),
(701,622,o),
(611,622,cs),
(537,622,o),
(482,563,o),
(482,487,c),
(482,412,o),
(515,341,o),
(612,296,c),
(591,169,o),
(493,81,o),
(394,81,cs),
(306,81,o),
(248,149,o),
(248,283,cs),
(248,441,o),
(334,575,o),
(469,575,cs),
(486,575,o),
(513,571,o),
(527,567,c),
(538,591,o),
(541,605,o),
(541,629,cs),
(541,695,o),
(506,725,o),
(416,725,cs),
(213,725,o),
(30,550,o),
(30,283,cs),
(30,101,o),
(154,-25,o),
(346,-25,cs)
);
}
);
width = 773;
},
{
anchors = (
{
name = bottom;
pos = (357,0);
},
{
name = center;
pos = (407,355);
},
{
name = ogonek;
pos = (498,10);
},
{
name = top;
pos = (485,710);
},
{
name = topleft;
pos = (24,710);
},
{
name = topright;
pos = (610,610);
}
);
hints = (
{
horizontal = 1;
origin = (0,35);
target = (0,14);
type = Stem;
},
{
horizontal = 1;
origin = (0,20);
target = (0,29);
type = Stem;
},
{
origin = (0,32);
target = (0,17);
type = Stem;
},
{
origin = (0,11);
target = (0,2);
type = Stem;
}
);
layerId = "1D04CB99-59CD-4CDD-8259-0FDF24D9F847";
shapes = (
{
closed = 1;
nodes = (
(551,-25,o),
(710,182,o),
(710,445,cs),
(710,547,o),
(673,610,o),
(610,610,cs),
(558,610,o),
(520,563,o),
(520,501,cs),
(520,441,o),
(542,382,o),
(626,346,c),
(603,157,o),
(466,36,o),
(355,36,cs),
(242,36,o),
(167,118,o),
(167,286,cs),
(167,510,o),
(301,650,o),
(465,650,cs),
(482,650,o),
(509,646,o),
(524,642,c),
(529,654,o),
(531,662,o),
(531,674,cs),
(531,709,o),
(500,725,o),
(440,725,cs),
(236,725,o),
(60,556,o),
(60,280,cs),
(60,94,o),
(168,-25,o),
(334,-25,cs)
);
}
);
width = 737;
},
{
anchors = (
{
name = bottom;
pos = (355,0);
},
{
name = center;
pos = (413,355);
},
{
name = ogonek;
pos = (504,10);
},
{
name = top;
pos = (480,710);
},
{
name = topleft;
pos = (24,710);
},
{
name = topright;
pos = (610,612);
}
);
hints = (
{
horizontal = 1;
origin = (0,35);
target = (0,14);
type = Stem;
},
{
horizontal = 1;
origin = (0,20);
target = (0,29);
type = Stem;
},
{
origin = (0,32);
target = (0,17);
type = Stem;
},
{
origin = (0,11);
target = (0,2);
type = Stem;
}
);
layerId = "CE369AAB-0FC9-4F25-BC24-38D80C2A37D0";
shapes = (
{
closed = 1;
nodes = (
(557,-25,o),
(719,179,o),
(719,441,cs),
(719,547,o),
(679,612,o),
(610,612,cs),
(554,612,o),
(512,563,o),
(512,498,c),
(512,435,o),
(537,374,o),
(623,336,c),
(601,159,o),
(471,45,o),
(363,45,cs),
(255,45,o),
(183,124,o),
(183,285,cs),
(183,496,o),
(308,635,o),
(466,635,cs),
(483,635,o),
(510,631,o),
(525,627,c),
(531,641,o),
(533,651,o),
(533,665,cs),
(533,706,o),
(501,725,o),
(435,725,cs),
(231,725,o),
(54,555,o),
(54,281,cs),
(54,95,o),
(165,-25,o),
(336,-25,cs)
);
}
);
width = 744;
}
);
unicode = 79;
},
{
color = 10;
glyphname = OE;
kernLeft = O;
kernRight = E;
layers = (
{
anchors = (
{
name = bottom;
pos = (523,0);
},
{
name = top;
pos = (636,710);
}
);
hints = (
{
horizontal = 1;
origin = (1,13);
target = (1,9);
type = Stem;
},
{
horizontal = 1;
origin = (2,13);
target = (2,6);
type = Stem;
},
{
horizontal = 1;
origin = (0,15);
target = (0,8);
type = Stem;
}
);
layerId = "E79706D4-AD71-4087-AB75-377D41BAFC4F";
shapes = (
{
closed = 1;
nodes = (
(1054,493,o),
(1126,555,o),
(1126,656,cs),
(1126,676,o),
(1123,698,o),
(1118,721,c),
(1045,696,o),
(958,678,o),
(851,678,cs),
(675,678,o),
(627,726,o),
(432,726,c),
(347,548,l),
(574,710,o),
(694,493,o),
(935,493,cs)
);
},
{
closed = 1;
nodes = (
(1000,-25,o),
(1074,24,o),
(1074,111,cs),
(1074,137,o),
(1071,156,o),
(1063,175,c),
(1015,156,o),
(964,143,o),
(915,136,c),
(578,136,l),
(537,51,l),
(644,-8,o),
(762,-25,o),
(856,-25,cs)
);
},
{
closed = 1;
nodes = (
(912,249,o),
(953,284,o),
(953,341,cs),
(953,360,o),
(951,377,o),
(948,389,c),
(858,366,l),
(816,366,o),
(780,369,o),
(739,376,c),
(719,262,l),
(778,252,o),
(810,249,o),
(844,249,cs)
);
},
{
pos = (-2,0);
ref = O.alt;
}
);
width = 1157;
},
{
anchors = (
{
name = bottom;
pos = (484,0);
},
{
name = top;
pos = (597,710);
}
);
hints = (
{
horizontal = 1;
origin = (1,13);
target = (1,9);
type = Stem;
},
{
horizontal = 1;
origin = (2,13);
target = (2,6);
type = Stem;
},
{
horizontal = 1;
origin = (0,15);
target = (0,8);
type = Stem;
}
);
layerId = "1D04CB99-59CD-4CDD-8259-0FDF24D9F847";
shapes = (
{
closed = 1;
nodes = (
(983,604,o),
(1040,621,o),
(1040,683,cs),
(1040,693,o),
(1040,704,o),
(1035,720,c),
(938,704,o),
(896,692,o),
(798,692,cs),
(681,692,o),
(582,726,o),
(477,726,c),
(330,608,l),
(541,752,o),
(685,604,o),
(932,604,cs)
);
},
{
closed = 1;
nodes = (
(923,-27,o),
(976,-6,o),
(976,44,cs),
(976,55,o),
(975,62,o),
(968,82,c),
(938,71,o),
(910,64,o),
(870,60,c),
(522,60,l),
(472,26,l),
(549,-2,o),
(673,-27,o),
(805,-27,cs)
);
},
{
closed = 1;
nodes = (
(876,288,o),
(906,313,o),
(906,358,cs),
(906,363,o),
(906,370,o),
(906,377,c),
(837,360,l),
(783,360,o),
(733,362,o),
(688,367,c),
(675,309,l),
(733,294,o),
(775,288,o),
(820,288,cs)
);
},
{
pos = (-1,0);
ref = O.alt;
}
);
width = 1085;
},
{
anchors = (
{
name = bottom;
pos = (492,0);
},
{
name = top;
pos = (605,710);
}
);
hints = (
{
horizontal = 1;
origin = (1,13);
target = (1,9);
type = Stem;
},
{
horizontal = 1;
origin = (2,13);
target = (2,6);
type = Stem;
},
{
horizontal = 1;
origin = (0,15);
target = (0,8);
type = Stem;
}
);
layerId = "CE369AAB-0FC9-4F25-BC24-38D80C2A37D0";
shapes = (
{
closed = 1;
nodes = (
(997,582,o),
(1057,608,o),
(1057,678,cs),
(1057,690,o),
(1057,703,o),
(1052,720,c),
(960,702,o),
(909,689,o),
(809,689,cs),
(680,689,o),
(591,726,o),
(468,726,c),
(334,596,l),
(548,744,o),
(687,582,o),
(933,582,cs)
);
},
{
closed = 1;
nodes = (
(939,-27,o),
(996,0,o),
(996,57,cs),
(996,71,o),
(994,81,o),
(987,101,c),
(954,88,o),
(921,80,o),
(879,75,c),
(533,75,l),
(485,31,l),
(568,-3,o),
(691,-27,o),
(815,-27,cs)
);
},
{
closed = 1;
nodes = (
(883,280,o),
(916,307,o),
(916,355,cs),
(916,362,o),
(915,371,o),
(915,379,c),
(841,361,l),
(790,361,o),
(743,363,o),
(698,369,c),
(684,300,l),
(742,286,o),
(782,280,o),
(825,280,cs)
);
},
{
alignment = -1;
pos = (-1,0);
ref = O.alt;
}
);
width = 1099;
}
);
metricLeft = O;
metricRight = e;
unicode = 338;
},
{
color = 10;
glyphname = P;
kernLeft = H;
kernRight = P;
layers = (
{
hints = (
{
horizontal = 1;
origin = (0,25);
target = (0,18);
type = Stem;
},
{
horizontal = 1;
origin = (0,12);
target = (0,5);
type = Stem;
},
{
origin = (0,15);
target = (0,2);
type = Stem;
},
{
origin = (1,18);
target = (1,5);
type = Stem;
},
{
horizontal = 1;
origin = (1,21);
target = up;
type = BottomGhost;
}
);
layerId = "E79706D4-AD71-4087-AB75-377D41BAFC4F";
shapes = (
{
closed = 1;
nodes = (
(612,205,o),
(717,360,o),
(717,500,cs),
(717,617,o),
(638,724,o),
(494,724,cs),
(381,724,o),
(327,687,o),
(265,640,c),
(265,538,l),
(311,575,o),
(352,596,o),
(393,596,cs),
(461,596,o),
(494,543,o),
(494,486,cs),
(494,396,o),
(423,330,o),
(330,330,cs),
(300,330,o),
(267,338,o),
(243,357,c),
(243,238,l),
(288,214,o),
(326,205,o),
(383,205,cs)
);
},
{
closed = 1;
nodes = (
(227,-26,o),
(267,-12,o),
(306,19,c),
(284,50,o),
(276,83,o),
(276,144,cs),
(276,221,o),
(353,564,o),
(353,632,cs),
(353,695,o),
(327,726,o),
(276,726,cs),
(215,726,o),
(144,701,o),
(70,653,c),
(123,546,l),
(72,253,o),
(60,167,o),
(60,109,cs),
(60,14,o),
(96,-26,o),
(182,-26,cs)
);
}
);
width = 717;
},
{
hints = (
{
horizontal = 1;
origin = (0,25);
target = (0,18);
type = Stem;
},
{
horizontal = 1;
origin = (0,12);
target = (0,5);
type = Stem;
},
{
origin = (0,15);
target = (0,2);
type = Stem;
},
{
origin = (1,18);
target = (1,5);
type = Stem;
},
{
horizontal = 1;
origin = (1,21);
target = up;
type = BottomGhost;
}
);
layerId = "1D04CB99-59CD-4CDD-8259-0FDF24D9F847";
shapes = (
{
closed = 1;
nodes = (
(582,205,o),
(672,345,o),
(672,500,cs),
(672,617,o),
(599,724,o),
(464,724,cs),
(351,724,o),
(297,674,o),
(235,610,c),
(235,583,l),
(297,629,o),
(352,656,o),
(408,656,cs),
(531,656,o),
(569,575,o),
(569,486,cs),
(569,362,o),
(487,270,o),
(345,270,cs),
(301,270,o),
(255,281,o),
(220,306,c),
(175,277,l),
(231,231,o),
(299,205,o),
(384,205,cs)
);
},
{
closed = 1;
nodes = (
(199,-26,o),
(219,-20,o),
(243,-5,c),
(229,13,o),
(221,41,o),
(221,74,cs),
(221,169,o),
(308,654,o),
(308,683,cs),
(308,712,o),
(296,726,o),
(272,726,cs),
(245,726,o),
(210,713,o),
(175,692,c),
(201,642,l),
(138,259,o),
(120,124,o),
(120,42,cs),
(120,-6,o),
(138,-26,o),
(178,-26,cs)
);
}
);
width = 687;
},
{
hints = (
{
horizontal = 1;
origin = (0,25);
target = (0,18);
type = Stem;
},
{
horizontal = 1;
origin = (0,12);
target = (0,5);
type = Stem;
},
{
origin = (0,15);
target = (0,2);
type = Stem;
},
{
origin = (1,18);
target = (1,5);
type = Stem;
},
{
horizontal = 1;
origin = (1,21);
target = up;
type = BottomGhost;
}
);
layerId = "CE369AAB-0FC9-4F25-BC24-38D80C2A37D0";
shapes = (
{
closed = 1;
nodes = (
(588,205,o),
(681,348,o),
(681,500,cs),
(681,617,o),
(607,724,o),
(470,724,cs),
(357,724,o),
(303,677,o),
(241,616,c),
(241,574,l),
(300,618,o),
(352,644,o),
(405,644,cs),
(517,644,o),
(554,569,o),
(554,486,cs),
(554,369,o),
(474,282,o),
(342,282,cs),
(301,282,o),
(257,292,o),
(225,316,c),
(189,269,l),
(242,228,o),
(304,205,o),
(384,205,cs)
);
},
{
closed = 1;
nodes = (
(205,-26,o),
(229,-18,o),
(256,0,c),
(240,20,o),
(232,49,o),
(232,88,cs),
(232,179,o),
(317,636,o),
(317,673,cs),
(317,709,o),
(302,726,o),
(273,726,cs),
(239,726,o),
(197,711,o),
(154,684,c),
(185,623,l),
(125,258,o),
(108,133,o),
(108,55,cs),
(108,-2,o),
(130,-26,o),
(179,-26,cs)
);
}
);
width = 693;
}
);
metricLeft = H;
unicode = 80;
},
{
color = 10;
glyphname = Thorn;
kernLeft = H;
kernRight = Thorn;
layers = (
{
hints = (
{
horizontal = 1;
origin = (0,25);
target = (0,18);
type = Stem;
},
{
horizontal = 1;
origin = (0,12);
target = (0,5);
type = Stem;
},
{
origin = (1,18);
target = (1,5);
type = Stem;
},
{
origin = (0,15);
target = (0,2);
type = Stem;
}
);
layerId = "E79706D4-AD71-4087-AB75-377D41BAFC4F";
shapes = (
{
closed = 1;
nodes = (
(612,111,o),
(717,266,o),
(717,406,cs),
(717,523,o),
(638,630,o),
(494,630,cs),
(381,630,o),
(327,593,o),
(265,546,c),
(265,444,l),
(311,481,o),
(352,502,o),
(393,502,cs),
(461,502,o),
(494,449,o),
(494,392,cs),
(494,302,o),
(423,236,o),
(330,236,cs),
(300,236,o),
(267,244,o),
(243,263,c),
(243,144,l),
(288,120,o),
(326,111,o),
(383,111,cs)
);
},
{
closed = 1;
nodes = (
(227,-26,o),
(267,-12,o),
(306,19,c),
(284,50,o),
(276,83,o),
(276,144,cs),
(276,221,o),
(353,564,o),
(353,632,cs),
(353,695,o),
(327,726,o),
(276,726,cs),
(215,726,o),
(144,701,o),
(70,653,c),
(123,546,l),
(72,253,o),
(60,167,o),
(60,109,cs),
(60,14,o),
(96,-26,o),
(182,-26,cs)
);
}
);
width = 717;
},
{
hints = (
{
horizontal = 1;
origin = (0,25);
target = (0,18);
type = Stem;
},
{
horizontal = 1;
origin = (0,12);
target = (0,5);
type = Stem;
},
{
origin = (1,18);
target = (1,5);
type = Stem;
},
{
origin = (0,15);
target = (0,2);
type = Stem;
}
);
layerId = "1D04CB99-59CD-4CDD-8259-0FDF24D9F847";
shapes = (
{
closed = 1;
nodes = (
(582,111,o),
(672,251,o),
(672,406,cs),
(672,523,o),
(599,630,o),
(464,630,cs),
(351,630,o),
(297,580,o),
(235,516,c),
(235,489,l),
(297,535,o),
(352,562,o),
(408,562,cs),
(531,562,o),
(569,481,o),
(569,392,cs),
(569,268,o),
(487,176,o),
(345,176,cs),
(301,176,o),
(255,187,o),
(220,212,c),
(175,183,l),
(231,137,o),
(299,111,o),
(384,111,cs)
);
},
{
closed = 1;
nodes = (
(199,-26,o),
(219,-20,o),
(243,-5,c),
(229,13,o),
(221,41,o),
(221,74,cs),
(221,169,o),
(308,654,o),
(308,683,cs),
(308,712,o),
(296,726,o),
(272,726,cs),
(245,726,o),
(210,713,o),
(175,692,c),
(201,642,l),
(138,259,o),
(120,124,o),
(120,42,cs),
(120,-6,o),
(138,-26,o),
(178,-26,cs)
);
}
);
width = 687;
},
{
hints = (
{
horizontal = 1;
origin = (0,25);
target = (0,18);
type = Stem;
},
{
horizontal = 1;
origin = (0,12);
target = (0,5);
type = Stem;
},
{
origin = (1,18);
target = (1,5);
type = Stem;
},
{
origin = (0,15);
target = (0,2);
type = Stem;
}
);
layerId = "CE369AAB-0FC9-4F25-BC24-38D80C2A37D0";
shapes = (
{
closed = 1;
nodes = (
(588,111,o),
(681,254,o),
(681,406,cs),
(681,523,o),
(607,630,o),
(470,630,cs),
(357,630,o),
(303,583,o),
(241,522,c),
(241,480,l),
(300,524,o),
(352,550,o),
(405,550,cs),
(517,550,o),
(554,475,o),
(554,392,cs),
(554,275,o),
(474,188,o),
(342,188,cs),
(301,188,o),
(257,198,o),
(225,222,c),
(189,175,l),
(242,134,o),
(304,111,o),
(384,111,cs)
);
},
{
closed = 1;
nodes = (
(205,-26,o),
(229,-18,o),
(256,0,c),
(240,20,o),
(232,49,o),
(232,88,cs),
(232,179,o),
(317,636,o),
(317,673,cs),
(317,709,o),
(302,726,o),
(273,726,cs),
(239,726,o),
(197,711,o),
(154,684,c),
(185,623,l),
(125,258,o),
(108,133,o),
(108,55,cs),
(108,-2,o),
(130,-26,o),
(179,-26,cs)
);
}
);
width = 693;
}
);
metricLeft = P;
metricRight = P;
unicode = 222;
},
{
color = 10;
glyphname = Q;
kernLeft = O;
kernRight = O;
layers = (
{
layerId = "E79706D4-AD71-4087-AB75-377D41BAFC4F";
shapes = (
{
closed = 1;
nodes = (
(655,-223,o),
(700,-156,o),
(700,-82,cs),
(700,-60,o),
(697,-38,o),
(689,-16,c),
(627,-39,o),
(568,-46,o),
(510,-46,cs),
(397,-46,o),
(287,0,o),
(183,0,cs),
(107,0,o),
(73,-47,o),
(73,-90,cs),
(73,-127,o),
(98,-166,o),
(148,-166,cs),
(173,-166,o),
(223,-157,o),
(260,-107,c),
(330,-150,o),
(453,-223,o),
(555,-223,cs)
);
},
{
ref = O;
}
);
width = 773;
},
{
layerId = "1D04CB99-59CD-4CDD-8259-0FDF24D9F847";
shapes = (
{
closed = 1;
nodes = (
(603,-172,o),
(654,-135,o),
(654,-58,cs),
(654,-44,o),
(652,-32,o),
(652,-22,c),
(605,-36,o),
(555,-45,o),
(491,-45,cs),
(369,-45,o),
(268,0,o),
(188,0,cs),
(146,0,o),
(109,-20,o),
(109,-62,cs),
(109,-97,o),
(133,-115,o),
(163,-115,cs),
(208,-115,o),
(241,-87,o),
(257,-58,c),
(318,-99,o),
(422,-172,o),
(536,-172,cs)
);
},
{
ref = O;
}
);
width = 737;
},
{
layerId = "CE369AAB-0FC9-4F25-BC24-38D80C2A37D0";
shapes = (
{
closed = 1;
nodes = (
(613,-182,o),
(663,-139,o),
(663,-63,cs),
(663,-47,o),
(661,-33,o),
(659,-21,c),
(609,-37,o),
(558,-45,o),
(495,-45,cs),
(375,-45,o),
(272,0,o),
(187,0,cs),
(138,0,o),
(102,-25,o),
(102,-68,cs),
(102,-103,o),
(126,-125,o),
(160,-125,cs),
(201,-125,o),
(237,-101,o),
(258,-68,c),
(320,-109,o),
(428,-182,o),
(540,-182,cs)
);
},
{
alignment = -1;
ref = O;
}
);
width = 744;
}
);
metricLeft = O;
metricRight = O;
unicode = 81;
},
{
color = 10;
glyphname = R;
kernLeft = H;
kernRight = R;
layers = (
{
anchors = (
{
name = bottom;
pos = (332,0);
},
{
name = top;
pos = (437,710);
}
);
hints = (
{
horizontal = 1;
origin = (0,25);
target = (0,18);
type = Stem;
},
{
horizontal = 1;
origin = (0,12);
target = (0,5);
type = Stem;
},
{
origin = (0,15);
target = (0,2);
type = Stem;
},
{
origin = (1,18);
target = (1,5);
type = Stem;
}
);
layerId = "E79706D4-AD71-4087-AB75-377D41BAFC4F";
shapes = (
{
closed = 1;
nodes = (
(612,235,o),
(717,377,o),
(717,515,cs),
(717,620,o),
(638,724,o),
(494,724,cs),
(381,724,o),
(327,687,o),
(265,640,c),
(265,538,l),
(311,575,o),
(352,596,o),
(393,596,cs),
(461,596,o),
(494,546,o),
(494,501,cs),
(494,415,o),
(423,360,o),
(330,360,cs),
(300,360,o),
(267,368,o),
(243,387,c),
(243,268,l),
(288,244,o),
(326,235,o),
(383,235,cs)
);
},
{
closed = 1;
nodes = (
(227,-26,o),
(267,-12,o),
(306,19,c),
(284,50,o),
(276,83,o),
(276,144,cs),
(276,251,o),
(353,564,o),
(353,632,cs),
(353,695,o),
(327,726,o),
(276,726,cs),
(215,726,o),
(144,701,o),
(70,653,c),
(123,546,l),
(72,253,o),
(60,167,o),
(60,109,cs),
(60,14,o),
(96,-26,o),
(182,-26,cs)
);
},
{
closed = 1;
nodes = (
(650,-25,o),
(718,1,o),
(747,30,c),
(688,71,o),
(625,188,o),
(571,349,c),
(375,269,l),
(421,139,ls),
(464,17,o),
(511,-25,o),
(604,-25,cs)
);
}
);
width = 747;
},
{
anchors = (
{
name = bottom;
pos = (364,0);
},
{
name = top;
pos = (439,710);
}
);
hints = (
{
horizontal = 1;
origin = (0,25);
target = (0,18);
type = Stem;
},
{
horizontal = 1;
origin = (0,12);
target = (0,5);
type = Stem;
},
{
origin = (0,15);
target = (0,2);
type = Stem;
},
{
origin = (1,18);
target = (1,5);
type = Stem;
}
);
layerId = "1D04CB99-59CD-4CDD-8259-0FDF24D9F847";
shapes = (
{
closed = 1;
nodes = (
(582,250,o),
(672,392,o),
(672,515,cs),
(672,626,o),
(599,724,o),
(464,724,cs),
(351,724,o),
(297,674,o),
(235,610,c),
(235,583,l),
(297,629,o),
(352,656,o),
(408,656,cs),
(531,656,o),
(569,584,o),
(569,501,cs),
(569,396,o),
(487,315,o),
(345,315,cs),
(301,315,o),
(255,326,o),
(220,351,c),
(190,322,l),
(253,267,o),
(306,250,o),
(384,250,cs)
);
},
{
closed = 1;
nodes = (
(199,-26,o),
(219,-20,o),
(243,-5,c),
(229,13,o),
(221,41,o),
(221,74,cs),
(221,199,o),
(308,654,o),
(308,683,cs),
(308,712,o),
(296,726,o),
(272,726,cs),
(245,726,o),
(210,713,o),
(175,692,c),
(201,642,l),
(138,259,o),
(120,124,o),
(120,42,cs),
(120,-6,o),
(138,-26,o),
(178,-26,cs)
);
},
{
closed = 1;
nodes = (
(627,-25,o),
(662,-13,o),
(675,2,c),
(626,49,o),
(550,178,o),
(485,322,c),
(400,286,l),
(466,148,ls),
(533,1,o),
(553,-25,o),
(605,-25,cs)
);
}
);
width = 720;
},
{
anchors = (
{
name = bottom;
pos = (358,0);
},
{
name = top;
pos = (439,710);
}
);
hints = (
{
horizontal = 1;
origin = (0,25);
target = (0,18);
type = Stem;
},
{
horizontal = 1;
origin = (0,12);
target = (0,5);
type = Stem;
},
{
origin = (0,15);
target = (0,2);
type = Stem;
},
{
origin = (1,18);
target = (1,5);
type = Stem;
}
);
layerId = "CE369AAB-0FC9-4F25-BC24-38D80C2A37D0";
shapes = (
{
closed = 1;
nodes = (
(588,247,o),
(681,389,o),
(681,515,cs),
(681,625,o),
(607,724,o),
(470,724,cs),
(357,724,o),
(303,677,o),
(241,616,c),
(241,574,l),
(300,618,o),
(352,644,o),
(405,644,cs),
(517,644,o),
(554,576,o),
(554,501,cs),
(554,400,o),
(474,324,o),
(342,324,cs),
(301,324,o),
(257,334,o),
(225,358,c),
(201,311,l),
(260,262,o),
(310,247,o),
(384,247,cs)
);
},
{
closed = 1;
nodes = (
(205,-26,o),
(229,-18,o),
(256,0,c),
(240,20,o),
(232,49,o),
(232,88,cs),
(232,209,o),
(317,636,o),
(317,673,cs),
(317,709,o),
(302,726,o),
(273,726,cs),
(239,726,o),
(197,711,o),
(154,684,c),
(185,623,l),
(125,258,o),
(108,133,o),
(108,55,cs),
(108,-2,o),
(130,-26,o),
(179,-26,cs)
);
},
{
closed = 1;
nodes = (
(632,-25,o),
(673,-10,o),
(689,8,c),
(638,53,o),
(565,180,o),
(502,327,c),
(395,283,l),
(457,146,ls),
(519,4,o),
(545,-25,o),
(605,-25,cs)
);
}
);
width = 725;
}
);
metricLeft = H;
unicode = 82;
},
{
color = 10;
glyphname = S;
kernLeft = S;
kernRight = S;
layers = (
{
anchors = (
{
name = bottom;
pos = (303,0);
},
{
name = top;
pos = (428,710);
}
);
hints = (
{
horizontal = 1;
origin = (0,35);
target = (0,26);
type = Stem;
},
{
origin = (0,29);
target = (0,5);
type = Stem;
},
{
origin = (0,23);
target = (0,2);
type = Stem;
}
);
layerId = "E79706D4-AD71-4087-AB75-377D41BAFC4F";
shapes = (
{
closed = 1;
nodes = (
(480,-25,o),
(664,46,o),
(664,203,cs),
(664,438,o),
(293,398,o),
(293,507,cs),
(293,554,o),
(355,586,o),
(434,594,c),
(465,521,o),
(522,486,o),
(586,486,cs),
(652,486,o),
(709,525,o),
(709,595,cs),
(709,672,o),
(611,726,o),
(452,726,cs),
(248,726,o),
(75,649,o),
(75,482,cs),
(75,241,o),
(446,272,o),
(446,167,cs),
(446,114,o),
(384,91,o),
(310,91,cs),
(204,91,o),
(135,144,o),
(84,216,c),
(53,189,o),
(35,147,o),
(35,112,cs),
(35,32,o),
(118,-25,o),
(321,-25,cs)
);
}
);
width = 729;
},
{
anchors = (
{
name = bottom;
pos = (309,0);
},
{
name = top;
pos = (419,710);
}
);
hints = (
{
horizontal = 1;
origin = (0,35);
target = (0,26);
type = Stem;
},
{
origin = (0,29);
target = (0,5);
type = Stem;
},
{
origin = (0,23);
target = (0,2);
type = Stem;
}
);
layerId = "1D04CB99-59CD-4CDD-8259-0FDF24D9F847";
shapes = (
{
closed = 1;
nodes = (
(537,-25,o),
(627,81,o),
(627,184,cs),
(627,405,o),
(233,382,o),
(233,516,cs),
(233,587,o),
(316,645,o),
(467,663,c),
(485,595,o),
(521,555,o),
(583,555,cs),
(640,555,o),
(678,581,o),
(678,636,cs),
(678,690,o),
(590,726,o),
(476,726,cs),
(260,726,o),
(126,625,o),
(126,505,cs),
(126,277,o),
(520,311,o),
(520,164,cs),
(520,81,o),
(437,39,o),
(316,39,cs),
(239,39,o),
(161,80,o),
(122,165,c),
(97,152,o),
(80,128,o),
(80,100,cs),
(80,17,o),
(187,-25,o),
(321,-25,cs)
);
}
);
width = 713;
},
{
anchors = (
{
name = bottom;
pos = (308,0);
},
{
name = top;
pos = (421,710);
}
);
hints = (
{
horizontal = 1;
origin = (0,35);
target = (0,26);
type = Stem;
},
{
origin = (0,29);
target = (0,5);
type = Stem;
},
{
origin = (0,23);
target = (0,2);
type = Stem;
}
);
layerId = "CE369AAB-0FC9-4F25-BC24-38D80C2A37D0";
shapes = (
{
closed = 1;
nodes = (
(526,-25,o),
(634,74,o),
(634,188,cs),
(634,412,o),
(245,385,o),
(245,514,cs),
(245,580,o),
(324,633,o),
(460,649,c),
(481,580,o),
(521,541,o),
(584,541,cs),
(642,541,o),
(684,570,o),
(684,628,cs),
(684,686,o),
(594,726,o),
(471,726,cs),
(258,726,o),
(116,630,o),
(116,500,cs),
(116,270,o),
(505,303,o),
(505,165,cs),
(505,88,o),
(426,49,o),
(315,49,cs),
(232,49,o),
(156,93,o),
(114,175,c),
(88,159,o),
(71,132,o),
(71,102,cs),
(71,20,o),
(173,-25,o),
(321,-25,cs)
);
}
);
width = 716;
}
);
unicode = 83;
},
{
color = 10;
glyphname = T;
kernLeft = T;
kernRight = T;
layers = (
{
anchors = (
{
name = bottom;
pos = (271,0);
},
{
name = center;
pos = (312,305);
},
{
name = top;
pos = (386,710);
}
);
hints = (
{
origin = (0,12);
target = (0,5);
type = Stem;
},
{
horizontal = 1;
origin = (1,16);
target = (1,6);
type = Stem;
}
);
layerId = "E79706D4-AD71-4087-AB75-377D41BAFC4F";
shapes = (
{
closed = 1;
nodes = (
(340,-26,o),
(380,-12,o),
(421,19,c),
(401,51,o),
(391,96,o),
(391,164,cs),
(391,223,o),
(433,419,o),
(460,564,c),
(249,606,l),
(202,353,o),
(175,205,o),
(175,129,cs),
(175,25,o),
(207,-26,o),
(297,-26,cs)
);
},
{
closed = 1;
nodes = (
(607,485,o),
(664,536,o),
(664,618,cs),
(664,655,o),
(657,687,o),
(646,713,c),
(494,674,l),
(388,677,o),
(291,715,o),
(189,715,cs),
(97,715,o),
(40,664,o),
(40,582,cs),
(40,545,o),
(47,513,o),
(58,487,c),
(210,526,l),
(316,523,o),
(413,485,o),
(515,485,cs)
);
}
);
width = 644;
},
{
anchors = (
{
name = bottom;
pos = (184,0);
},
{
name = center;
pos = (297,350);
},
{
name = top;
pos = (359,710);
}
);
hints = (
{
origin = (0,12);
target = (0,5);
type = Stem;
},
{
horizontal = 1;
origin = (1,16);
target = (1,6);
type = Stem;
}
);
layerId = "1D04CB99-59CD-4CDD-8259-0FDF24D9F847";
shapes = (
{
closed = 1;
nodes = (
(277,-26,o),
(297,-20,o),
(320,-5,c),
(305,12,o),
(298,35,o),
(298,64,cs),
(298,133,o),
(358,490,o),
(383,656,c),
(285,675,l),
(223,293,o),
(197,106,o),
(197,32,cs),
(197,-11,o),
(217,-26,o),
(255,-26,cs)
);
},
{
closed = 1;
nodes = (
(554,611,o),
(587,634,o),
(587,675,cs),
(587,690,o),
(585,704,o),
(580,713,c),
(416,691,l),
(328,692,o),
(247,715,o),
(165,715,cs),
(112,715,o),
(77,708,o),
(77,651,cs),
(77,635,o),
(80,623,o),
(85,613,c),
(249,634,l),
(337,634,o),
(417,611,o),
(500,611,cs)
);
}
);
width = 530;
},
{
anchors = (
{
name = bottom;
pos = (201,0);
},
{
name = center;
pos = (300,341);
},
{
name = top;
pos = (364,710);
}
);
hints = (
{
origin = (0,12);
target = (0,5);
type = Stem;
},
{
horizontal = 1;
origin = (1,16);
target = (1,6);
type = Stem;
}
);
layerId = "CE369AAB-0FC9-4F25-BC24-38D80C2A37D0";
shapes = (
{
closed = 1;
nodes = (
(290,-26,o),
(314,-18,o),
(340,0,c),
(324,20,o),
(317,47,o),
(317,84,cs),
(317,151,o),
(373,476,o),
(398,638,c),
(278,661,l),
(219,305,o),
(193,126,o),
(193,51,cs),
(193,-4,o),
(215,-26,o),
(263,-26,cs)
);
},
{
closed = 1;
nodes = (
(565,586,o),
(602,614,o),
(602,664,cs),
(602,683,o),
(599,701,o),
(593,713,c),
(432,688,l),
(340,689,o),
(256,715,o),
(170,715,cs),
(109,715,o),
(70,699,o),
(70,637,cs),
(70,617,o),
(73,601,o),
(80,588,c),
(241,612,l),
(333,612,o),
(416,586,o),
(503,586,cs)
);
}
);
width = 553;
}
);
unicode = 84;
},
{
color = 10;
glyphname = U;
kernLeft = U;
kernRight = U;
layers = (
{
anchors = (
{
name = bottom;
pos = (349,0);
},
{
name = ogonek;
pos = (740,19);
},
{
name = top;
pos = (461,710);
},
{
name = topright;
pos = (802,706);
}
);
hints = (
{
horizontal = 1;
origin = (0,39);
target = (0,20);
type = Stem;
},
{
origin = (0,36);
target = (0,23);
type = Stem;
},
{
origin = (0,46);
target = (0,5);
type = Stem;
}
);
layerId = "E79706D4-AD71-4087-AB75-377D41BAFC4F";
shapes = (
{
closed = 1;
nodes = (
(663,-26,o),
(703,-12,o),
(740,19,c),
(719,49,o),
(710,95,o),
(710,164,cs),
(710,285,o),
(761,553,o),
(802,706,c),
(776,718,o),
(744,725,o),
(709,725,cs),
(580,725,o),
(488,611,o),
(488,451,cs),
(488,404,o),
(495,360,o),
(510,321,c),
(468,205,o),
(400,130,o),
(336,130,cs),
(296,130,o),
(277,155,o),
(277,209,cs),
(277,268,o),
(349,581,o),
(349,632,cs),
(349,696,o),
(325,725,o),
(272,725,cs),
(212,725,o),
(158,706,o),
(66,653,c),
(119,546,l),
(68,256,o),
(60,206,o),
(60,155,cs),
(60,36,o),
(114,-25,o),
(221,-25,cs),
(333,-25,o),
(438,48,o),
(500,170,c),
(510,171,l),
(503,149,o),
(500,124,o),
(500,95,cs),
(500,16,o),
(541,-26,o),
(616,-26,cs)
);
}
);
width = 822;
},
{
anchors = (
{
name = bottom;
pos = (358,0);
},
{
name = ogonek;
pos = (677,-5);
},
{
name = top;
pos = (490,710);
},
{
name = topright;
pos = (759,705);
}
);
hints = (
{
horizontal = 1;
origin = (0,39);
target = (0,20);
type = Stem;
},
{
origin = (0,36);
target = (0,23);
type = Stem;
},
{
origin = (0,46);
target = (0,5);
type = Stem;
}
);
layerId = "1D04CB99-59CD-4CDD-8259-0FDF24D9F847";
shapes = (
{
closed = 1;
nodes = (
(636,-26,o),
(655,-20,o),
(677,-5,c),
(667,13,o),
(662,35,o),
(662,64,cs),
(662,281,o),
(722,573,o),
(759,705,c),
(740,720,o),
(720,727,o),
(705,727,cs),
(588,727,o),
(587,536,o),
(587,429,cs),
(587,380,o),
(591,339,o),
(591,321,c),
(527,157,o),
(397,49,o),
(311,49,cs),
(232,49,o),
(216,95,o),
(216,167,cs),
(216,252,o),
(306,655,o),
(306,683,cs),
(306,711,o),
(292,727,o),
(269,727,cs),
(242,727,o),
(200,711,o),
(174,692,c),
(200,642,l),
(140,339,o),
(120,214,o),
(120,145,cs),
(120,74,o),
(149,-22,o),
(268,-22,cs),
(408,-22,o),
(515,90,o),
(574,202,c),
(579,201,l),
(568,158,o),
(560,114,o),
(560,76,cs),
(560,25,o),
(570,-26,o),
(619,-26,cs)
);
}
);
width = 810;
},
{
anchors = (
{
name = bottom;
pos = (356,0);
},
{
name = ogonek;
pos = (689,0);
},
{
name = top;
pos = (484,710);
},
{
name = topright;
pos = (767,705);
}
);
hints = (
{
horizontal = 1;
origin = (0,39);
target = (0,20);
type = Stem;
},
{
origin = (0,36);
target = (0,23);
type = Stem;
},
{
origin = (0,46);
target = (0,5);
type = Stem;
}
);
layerId = "CE369AAB-0FC9-4F25-BC24-38D80C2A37D0";
shapes = (
{
closed = 1;
nodes = (
(641,-26,o),
(664,-18,o),
(689,0,c),
(677,20,o),
(671,47,o),
(671,84,cs),
(671,282,o),
(729,569,o),
(767,705,c),
(747,720,o),
(724,727,o),
(705,727,cs),
(586,727,o),
(567,551,o),
(567,433,cs),
(567,385,o),
(571,343,o),
(574,321,c),
(515,167,o),
(397,65,o),
(316,65,cs),
(244,65,o),
(228,107,o),
(228,175,cs),
(228,255,o),
(314,640,o),
(314,673,cs),
(314,708,o),
(298,727,o),
(269,727,cs),
(236,727,o),
(191,710,o),
(152,684,c),
(183,623,l),
(125,322,o),
(108,212,o),
(108,147,cs),
(108,66,o),
(142,-23,o),
(258,-23,cs),
(393,-23,o),
(499,82,o),
(559,196,c),
(565,195,l),
(555,156,o),
(548,116,o),
(548,80,cs),
(548,23,o),
(564,-26,o),
(618,-26,cs)
);
}
);
width = 812;
}
);
metricLeft = H;
metricRight = "=H-10";
unicode = 85;
},
{
color = 10;
glyphname = V;
kernLeft = V;
kernRight = V;
layers = (
{
hints = (
{
horizontal = 1;
origin = (0,34);
target = (0,19);
type = Stem;
},
{
origin = (0,31);
target = (0,22);
type = Stem;
},
{
origin = (0,15);
target = (0,6);
type = Stem;
}
);
layerId = "E79706D4-AD71-4087-AB75-377D41BAFC4F";
shapes = (
{
closed = 1;
nodes = (
(369,-30,o),
(477,9,o),
(538,64,c),
(523,120,l),
(682,431,o),
(727,547,o),
(727,628,cs),
(727,692,o),
(695,726,o),
(634,726,cs),
(588,726,o),
(532,709,o),
(493,681,c),
(509,651,o),
(515,622,o),
(515,587,cs),
(515,510,o),
(448,339,o),
(300,104,c),
(288,104,l),
(291,167,o),
(294,270,o),
(294,405,cs),
(294,651,o),
(241,726,o),
(145,726,cs),
(100,726,o),
(59,711,o),
(20,681,c),
(101,593,o),
(85,424,o),
(85,226,cs),
(85,40,o),
(141,-30,o),
(284,-30,cs)
);
}
);
width = 727;
},
{
hints = (
{
horizontal = 1;
origin = (0,34);
target = (0,19);
type = Stem;
},
{
origin = (0,31);
target = (0,22);
type = Stem;
},
{
origin = (0,15);
target = (0,6);
type = Stem;
}
);
layerId = "1D04CB99-59CD-4CDD-8259-0FDF24D9F847";
shapes = (
{
closed = 1;
nodes = (
(245,-30,o),
(290,-17,o),
(306,-1,c),
(285,27,l),
(483,314,o),
(589,537,o),
(589,640,cs),
(589,692,o),
(568,726,o),
(537,726,cs),
(515,726,o),
(504,724,o),
(463,704,c),
(481,675,o),
(487,642,o),
(487,599,cs),
(487,512,o),
(411,356,o),
(209,59,c),
(197,59,l),
(197,73,o),
(197,75,o),
(197,326,cs),
(197,624,o),
(180,726,o),
(85,726,cs),
(61,726,o),
(40,719,o),
(20,704,c),
(112,605,o),
(93,405,o),
(93,214,cs),
(93,24,o),
(116,-30,o),
(209,-30,cs)
);
}
);
width = 589;
},
{
hints = (
{
horizontal = 1;
origin = (0,34);
target = (0,19);
type = Stem;
},
{
origin = (0,31);
target = (0,22);
type = Stem;
},
{
origin = (0,15);
target = (0,6);
type = Stem;
}
);
layerId = "CE369AAB-0FC9-4F25-BC24-38D80C2A37D0";
shapes = (
{
closed = 1;
nodes = (
(270,-30,o),
(327,-12,o),
(352,12,c),
(333,46,l),
(523,337,o),
(617,539,o),
(617,638,cs),
(617,692,o),
(593,726,o),
(556,726,cs),
(530,726,o),
(510,721,o),
(469,699,c),
(487,670,o),
(493,638,o),
(493,597,cs),
(493,512,o),
(418,353,o),
(227,68,c),
(215,68,l),
(216,92,o),
(216,114,o),
(216,342,cs),
(216,629,o),
(192,726,o),
(97,726,cs),
(69,726,o),
(44,717,o),
(20,699,c),
(110,603,o),
(91,409,o),
(91,216,cs),
(91,27,o),
(121,-30,o),
(224,-30,cs)
);
}
);
width = 617;
}
);
unicode = 86;
userData = {
RMXScaler = {
source = v;
};
};
},
{
color = 10;
glyphname = W;
kernLeft = W;
kernRight = W;
layers = (
{
anchors = (
{
name = bottom;
pos = (460,0);
},
{
name = top;
pos = (585,710);
}
);
hints = (
{
horizontal = 1;
origin = (0,33);
target = (0,18);
type = Stem;
},
{
origin = (0,30);
target = (0,21);
type = Stem;
},
{
origin = (0,14);
target = (0,5);
type = Stem;
},
{
origin = (1,15);
target = (1,6);
type = Stem;
}
);
layerId = "E79706D4-AD71-4087-AB75-377D41BAFC4F";
shapes = (
{
closed = 1;
nodes = (
(364,-30,o),
(432,51,o),
(522,199,cs),
(599,328,o),
(661,480,o),
(661,584,cs),
(661,654,o),
(627,690,o),
(564,690,cs),
(533,690,o),
(499,675,o),
(471,650,c),
(489,615,o),
(514,575,o),
(514,535,cs),
(514,484,o),
(471,283,o),
(309,104,c),
(297,104,l),
(297,167,o),
(299,270,o),
(299,405,cs),
(299,651,o),
(248,726,o),
(147,726,cs),
(101,726,o),
(59,711,o),
(20,681,c),
(107,587,o),
(90,407,o),
(90,197,cs),
(90,33,o),
(131,-30,o),
(240,-30,cs)
);
},
{
closed = 1;
nodes = (
(740,-30,o),
(831,9,o),
(882,64,c),
(857,120,l),
(1013,431,o),
(1061,547,o),
(1061,628,cs),
(1061,692,o),
(1028,726,o),
(966,726,cs),
(919,726,o),
(864,709,o),
(824,681,c),
(840,651,o),
(848,622,o),
(848,587,cs),
(848,510,o),
(784,339,o),
(644,104,c),
(632,104,l),
(606,619,l),
(564,690,l),
(539,690,o),
(500,681,o),
(461,650,c),
(498,202,ls),
(511,43,o),
(544,-30,o),
(666,-30,cs)
);
}
);
width = 1061;
},
{
anchors = (
{
name = bottom;
pos = (424,0);
},
{
name = top;
pos = (549,710);
}
);
hints = (
{
horizontal = 1;
origin = (0,33);
target = (0,18);
type = Stem;
},
{
origin = (0,30);
target = (0,21);
type = Stem;
},
{
origin = (0,14);
target = (0,5);
type = Stem;
},
{
origin = (1,15);
target = (1,6);
type = Stem;
}
);
layerId = "1D04CB99-59CD-4CDD-8259-0FDF24D9F847";
shapes = (
{
closed = 1;
nodes = (
(234,-30,o),
(299,11,o),
(455,288,cs),
(559,472,o),
(603,536,o),
(603,611,cs),
(603,659,o),
(575,690,o),
(537,690,cs),
(521,690,o),
(511,686,o),
(486,661,c),
(485,651,o),
(513,608,o),
(513,589,cs),
(513,600,o),
(470,372,o),
(219,59,c),
(206,59,l),
(207,73,o),
(206,75,o),
(206,326,cs),
(206,624,o),
(191,726,o),
(89,726,cs),
(64,726,o),
(41,719,o),
(20,704,c),
(125,580,o),
(105,329,o),
(105,86,cs),
(105,23,o),
(113,-30,o),
(161,-30,cs)
);
},
{
closed = 1;
nodes = (
(631,-30,o),
(674,-17,o),
(690,-1,c),
(673,27,l),
(856,314,o),
(959,537,o),
(959,640,cs),
(959,692,o),
(937,726,o),
(905,726,cs),
(880,726,o),
(870,724,o),
(829,704,c),
(848,675,o),
(856,642,o),
(856,599,cs),
(856,512,o),
(784,356,o),
(593,59,c),
(581,59,l),
(564,616,l),
(537,690,l),
(497,690,o),
(470,677,o),
(461,661,c),
(500,108,ls),
(504,37,o),
(514,-30,o),
(593,-30,cs)
);
}
);
width = 960;
},
{
anchors = (
{
name = bottom;
pos = (431,0);
},
{
name = top;
pos = (556,710);
}
);
hints = (
{
horizontal = 1;
origin = (0,33);
target = (0,18);
type = Stem;
},
{
origin = (0,30);
target = (0,21);
type = Stem;
},
{
origin = (0,14);
target = (0,5);
type = Stem;
},
{
origin = (1,15);
target = (1,6);
type = Stem;
}
);
layerId = "CE369AAB-0FC9-4F25-BC24-38D80C2A37D0";
shapes = (
{
closed = 1;
nodes = (
(260,-30,o),
(326,19,o),
(468,270,cs),
(567,443,o),
(615,525,o),
(615,606,cs),
(615,658,o),
(585,690,o),
(542,690,cs),
(523,690,o),
(509,684,o),
(483,659,c),
(486,644,o),
(513,601,o),
(513,578,cs),
(513,577,o),
(470,354,o),
(237,68,c),
(224,68,l),
(225,92,o),
(225,114,o),
(225,342,cs),
(225,629,o),
(202,726,o),
(101,726,cs),
(71,726,o),
(45,717,o),
(20,699,c),
(121,581,o),
(102,345,o),
(102,108,cs),
(102,25,o),
(117,-30,o),
(177,-30,cs)
);
},
{
closed = 1;
nodes = (
(653,-30,o),
(705,-12,o),
(728,12,c),
(710,46,l),
(887,337,o),
(979,539,o),
(979,638,cs),
(979,692,o),
(955,726,o),
(917,726,cs),
(888,726,o),
(869,721,o),
(828,699,c),
(846,670,o),
(854,638,o),
(854,597,cs),
(854,512,o),
(784,353,o),
(603,68,c),
(591,68,l),
(572,617,l),
(542,690,l),
(505,690,o),
(476,678,o),
(461,659,c),
(500,127,ls),
(505,38,o),
(520,-30,o),
(608,-30,cs)
);
}
);
width = 980;
}
);
metricLeft = V;
metricRight = V;
unicode = 87;
},
{
color = 10;
glyphname = X;
kernLeft = X;
kernRight = X;
layers = (
{
hints = (
{
origin = (1,13);
target = (1,5);
type = Stem;
},
{
origin = (2,12);
target = (2,3);
type = Stem;
}
);
layerId = "E79706D4-AD71-4087-AB75-377D41BAFC4F";
shapes = (
{
closed = 1;
nodes = (
(657,-30,o),
(715,4,o),
(758,70,c),
(675,103,o),
(630,161,o),
(591,235,cs),
(404,586,ls),
(347,692,o),
(308,725,o),
(238,725,cs),
(167,725,o),
(109,691,o),
(65,624,c),
(148,592,o),
(193,534,o),
(232,460,cs),
(420,108,ls),
(476,2,o),
(516,-30,o),
(586,-30,cs)
);
},
{
closed = 1;
nodes = (
(160,-30,o),
(207,-14,o),
(254,15,c),
(248,30,o),
(244,46,o),
(244,68,cs),
(244,129,o),
(302,203,o),
(419,281,c),
(352,399,l),
(228,318,ls),
(78,220,o),
(16,149,o),
(16,75,cs),
(16,12,o),
(55,-30,o),
(115,-30,cs)
);
},
{
closed = 1;
nodes = (
(584,378,ls),
(733,476,o),
(795,548,o),
(795,620,cs),
(795,684,o),
(756,726,o),
(697,726,cs),
(651,726,o),
(604,710,o),
(558,681,c),
(564,666,o),
(567,650,o),
(567,628,cs),
(567,567,o),
(510,493,o),
(392,415,c),
(460,296,l)
);
}
);
width = 800;
},
{
hints = (
{
origin = (1,13);
target = (1,5);
type = Stem;
},
{
origin = (2,12);
target = (2,3);
type = Stem;
}
);
layerId = "1D04CB99-59CD-4CDD-8259-0FDF24D9F847";
shapes = (
{
closed = 1;
nodes = (
(652,-30,o),
(689,-8,o),
(708,25,c),
(651,46,o),
(610,71,o),
(556,171,cs),
(332,588,ls),
(278,689,o),
(239,727,o),
(181,727,cs),
(147,727,o),
(110,705,o),
(90,671,c),
(148,651,o),
(190,624,o),
(244,525,cs),
(469,108,ls),
(524,8,o),
(561,-30,o),
(619,-30,cs)
);
},
{
closed = 1;
nodes = (
(130,-30,o),
(158,-16,o),
(164,-8,c),
(158,5,o),
(154,18,o),
(154,35,cs),
(154,99,o),
(220,193,o),
(397,316,c),
(370,368,l),
(204,233,ls),
(69,121,o),
(46,79,o),
(46,39,cs),
(46,-2,o),
(67,-30,o),
(103,-30,cs)
);
},
{
closed = 1;
nodes = (
(585,464,ls),
(719,575,o),
(741,620,o),
(741,656,cs),
(741,698,o),
(720,726,o),
(685,726,cs),
(657,726,o),
(629,712,o),
(624,704,c),
(630,692,o),
(633,679,o),
(633,661,cs),
(633,597,o),
(568,504,o),
(390,381,c),
(418,328,l)
);
}
);
width = 761;
},
{
hints = (
{
origin = (1,13);
target = (1,5);
type = Stem;
},
{
origin = (2,12);
target = (2,3);
type = Stem;
}
);
layerId = "CE369AAB-0FC9-4F25-BC24-38D80C2A37D0";
shapes = (
{
closed = 1;
nodes = (
(653,-30,o),
(694,-6,o),
(718,34,c),
(656,57,o),
(614,89,o),
(563,184,cs),
(346,588,ls),
(292,690,o),
(253,727,o),
(192,727,cs),
(151,727,o),
(110,702,o),
(85,662,c),
(148,639,o),
(191,606,o),
(242,512,cs),
(459,108,ls),
(514,7,o),
(552,-30,o),
(612,-30,cs)
);
},
{
closed = 1;
nodes = (
(136,-30,o),
(168,-16,o),
(182,-3,c),
(176,10,o),
(172,24,o),
(172,42,cs),
(172,105,o),
(236,195,o),
(401,309,c),
(366,374,l),
(209,250,ls),
(71,141,o),
(40,93,o),
(40,46,cs),
(40,1,o),
(65,-30,o),
(105,-30,cs)
);
},
{
closed = 1;
nodes = (
(585,447,ls),
(722,555,o),
(752,606,o),
(752,649,cs),
(752,695,o),
(727,726,o),
(687,726,cs),
(656,726,o),
(624,712,o),
(611,699,c),
(617,687,o),
(620,673,o),
(620,654,cs),
(620,591,o),
(556,502,o),
(390,388,c),
(426,322,l)
);
}
);
width = 769;
}
);
unicode = 88;
},
{
color = 10;
glyphname = Y;
kernLeft = Y;
kernRight = Y;
layers = (
{
anchors = (
{
name = bottom;
pos = (341,-200);
},
{
name = top;
pos = (484,710);
},
{
name = topleft;
pos = (20,710);
}
);
hints = (
{
horizontal = 1;
origin = (0,23);
target = (0,20);
type = Stem;
},
{
horizontal = 1;
place = (726, -20);
target = down;
type = TopGhost;
},
{
place = (147.3, 131.6);
place = (147.3, 131.6);
type = Stem;
},
{
origin = (0,2);
target = (0,2);
type = Stem;
}
);
layerId = "E79706D4-AD71-4087-AB75-377D41BAFC4F";
shapes = (
{
closed = 1;
nodes = (
(547,-242,o),
(806,334,o),
(806,630,c),
(806,694,o),
(775,726,o),
(714,726,cs),
(668,726,o),
(612,709,o),
(573,681,c),
(589,651,o),
(595,622,o),
(595,587,cs),
(595,144,o),
(298,-85,o),
(130,-85,cs),
(47,-85,o),
(3,-49,o),
(-21,-12,c),
(-45,-31,o),
(-70,-72,o),
(-70,-113,cs),
(-70,-194,o),
(-6,-242,o),
(121,-242,cs)
);
},
{
closed = 1;
nodes = (
(468,53,l),
(206,53,o),
(492,726,o),
(190,726,cs),
(145,726,o),
(103,711,o),
(65,681,c),
(230,527,o),
(-9,-30,o),
(356,-30,c)
);
}
);
width = 841;
},
{
anchors = (
{
name = bottom;
pos = (308,-200);
},
{
name = top;
pos = (454,710);
},
{
name = topleft;
pos = (20,710);
}
);
hints = (
{
horizontal = 1;
origin = (0,23);
target = (0,20);
type = Stem;
},
{
horizontal = 1;
place = (1089, -20);
target = down;
type = TopGhost;
},
{
place = (220.95, 197.4);
place = (220.95, 197.4);
type = Stem;
},
{
origin = (0,2);
target = (0,2);
type = Stem;
}
);
layerId = "1D04CB99-59CD-4CDD-8259-0FDF24D9F847";
shapes = (
{
closed = 1;
nodes = (
(481,-242,o),
(730,237,o),
(730,639,cs),
(730,691,o),
(708,726,o),
(677,726,cs),
(655,726,o),
(644,724,o),
(603,704,c),
(621,675,o),
(627,642,o),
(627,599,cs),
(627,20,o),
(262,-165,o),
(115,-165,cs),
(25,-165,o),
(-8,-130,o),
(-32,-105,c),
(-39,-120,o),
(-46,-141,o),
(-46,-157,cs),
(-46,-205,o),
(-9,-242,o),
(81,-242,cs)
);
},
{
closed = 1;
nodes = (
(468,11,l),
(155,11,o),
(432,726,o),
(180,726,cs),
(157,726,o),
(138,719,o),
(118,704,c),
(284,545,o),
(63,-30,o),
(409,-30,c)
);
}
);
width = 781;
},
{
anchors = (
{
name = bottom;
pos = (315,-200);
},
{
name = top;
pos = (460,710);
},
{
name = topleft;
pos = (20,710);
}
);
hints = (
{
horizontal = 1;
origin = (0,23);
target = (0,20);
type = Stem;
},
{
horizontal = 1;
place = (1016.4, -20);
target = down;
type = TopGhost;
},
{
place = (206.22, 184.24);
place = (206.22, 184.24);
type = Stem;
},
{
origin = (0,2);
target = (0,2);
type = Stem;
}
);
layerId = "CE369AAB-0FC9-4F25-BC24-38D80C2A37D0";
shapes = (
{
closed = 1;
nodes = (
(494,-242,o),
(745,256,o),
(745,637,c),
(745,692,o),
(721,726,o),
(684,726,cs),
(658,726,o),
(638,721,o),
(597,699,c),
(615,670,o),
(621,638,o),
(621,597,cs),
(621,45,o),
(269,-149,o),
(118,-149,cs),
(29,-149,o),
(-6,-114,o),
(-30,-86,c),
(-40,-102,o),
(-51,-127,o),
(-51,-148,cs),
(-51,-203,o),
(-8,-242,o),
(89,-242,cs)
);
},
{
closed = 1;
nodes = (
(468,19,l),
(165,19,o),
(444,726,o),
(182,726,cs),
(155,726,o),
(131,717,o),
(107,699,c),
(273,541,o),
(49,-30,o),
(398,-30,c)
);
}
);
width = 793;
}
);
unicode = 89;
},
{
color = 10;
glyphname = Z;
kernLeft = Z;
kernRight = Z;
layers = (
{
anchors = (
{
name = bottom;
pos = (296,0);
},
{
name = top;
pos = (421,710);
}
);
hints = (
{
horizontal = 1;
origin = (1,21);
target = (1,6);
type = Stem;
},
{
horizontal = 1;
origin = (2,17);
target = (2,8);
type = Stem;
}
);
layerId = "E79706D4-AD71-4087-AB75-377D41BAFC4F";
shapes = (
{
closed = 1;
nodes = (
(651,564,l),
(405,534,l),
(96,143,l),
(294,104,l)
);
},
{
closed = 1;
nodes = (
(596,-30,o),
(673,29,o),
(673,104,cs),
(673,137,o),
(665,169,o),
(648,211,c),
(497,146,l),
(413,146,o),
(252,219,o),
(176,219,cs),
(81,218,o),
(15,161,o),
(15,81,cs),
(15,21,o),
(56,-22,o),
(115,-22,cs),
(160,-22,o),
(196,-7,o),
(242,30,c),
(328,-2,o),
(403,-30,o),
(497,-30,cs)
);
},
{
closed = 1;
nodes = (
(593,480,o),
(701,534,o),
(701,626,cs),
(701,689,o),
(662,726,o),
(597,726,cs),
(546,726,o),
(501,698,o),
(461,641,c),
(381,645,o),
(217,688,o),
(111,732,c),
(99,697,o),
(93,663,o),
(93,635,cs),
(93,523,o),
(181,480,o),
(411,480,cs)
);
}
);
width = 716;
},
{
anchors = (
{
name = bottom;
pos = (272,0);
},
{
name = top;
pos = (397,710);
}
);
hints = (
{
horizontal = 1;
origin = (1,21);
target = (1,6);
type = Stem;
},
{
horizontal = 1;
origin = (2,17);
target = (2,8);
type = Stem;
}
);
layerId = "1D04CB99-59CD-4CDD-8259-0FDF24D9F847";
shapes = (
{
closed = 1;
nodes = (
(555,627,l),
(435,597,l),
(117,98,l),
(206,83,l)
);
},
{
closed = 1;
nodes = (
(529,-30,o),
(583,5,o),
(583,52,cs),
(583,67,o),
(577,81,o),
(558,106,c),
(460,49,l),
(377,49,o),
(218,114,o),
(142,114,cs),
(77,115,o),
(30,79,o),
(30,29,cs),
(30,0,o),
(53,-22,o),
(84,-22,cs),
(117,-22,o),
(142,-7,o),
(179,33,c),
(333,-23,o),
(390,-30,o),
(460,-30,cs)
);
},
{
closed = 1;
nodes = (
(548,585,o),
(623,611,o),
(623,676,cs),
(623,709,o),
(601,726,o),
(558,726,cs),
(524,726,o),
(480,695,o),
(463,656,c),
(360,660,o),
(228,690,o),
(126,732,c),
(116,721,o),
(108,696,o),
(108,673,cs),
(108,610,o),
(181,585,o),
(365,585,cs)
);
}
);
width = 638;
},
{
anchors = (
{
name = bottom;
pos = (277,0);
},
{
name = top;
pos = (402,710);
}
);
hints = (
{
horizontal = 1;
origin = (1,21);
target = (1,6);
type = Stem;
},
{
horizontal = 1;
origin = (2,17);
target = (2,8);
type = Stem;
}
);
layerId = "CE369AAB-0FC9-4F25-BC24-38D80C2A37D0";
shapes = (
{
closed = 1;
nodes = (
(574,614,l),
(429,584,l),
(113,107,l),
(224,87,l)
);
},
{
closed = 1;
nodes = (
(542,-30,o),
(601,10,o),
(601,62,cs),
(601,81,o),
(595,99,o),
(576,127,c),
(467,68,l),
(384,68,o),
(225,135,o),
(149,135,cs),
(78,136,o),
(27,95,o),
(27,39,cs),
(27,4,o),
(54,-22,o),
(90,-22,cs),
(126,-22,o),
(153,-7,o),
(192,32,c),
(332,-19,o),
(393,-30,o),
(467,-30,cs)
);
},
{
closed = 1;
nodes = (
(557,564,o),
(639,596,o),
(639,666,cs),
(639,705,o),
(613,726,o),
(566,726,cs),
(528,726,o),
(484,696,o),
(463,653,c),
(364,657,o),
(226,690,o),
(123,732,c),
(113,716,o),
(105,689,o),
(105,665,cs),
(105,593,o),
(181,564,o),
(374,564,cs)
);
}
);
width = 654;
}
);
unicode = 90;
},
{
color = 10;
glyphname = O.alt;
kernLeft = O.alt;
kernRight = O.alt;
layers = (
{
hints = (
{
horizontal = 1;
origin = (0,29);
target = (0,14);
type = Stem;
},
{
horizontal = 1;
origin = (0,23);
target = (0,20);
type = Stem;
},
{
origin = (0,26);
target = (0,17);
type = Stem;
},
{
origin = (0,11);
target = (0,2);
type = Stem;
}
);
layerId = "E79706D4-AD71-4087-AB75-377D41BAFC4F";
shapes = (
{
closed = 1;
nodes = (
(588,-25,o),
(768,168,o),
(768,424,cs),
(768,547,o),
(713,629,o),
(630,629,cs),
(584,629,o),
(543,607,o),
(518,571,c),
(570,513,o),
(593,444,o),
(593,349,cs),
(593,194,o),
(508,86,o),
(388,86,cs),
(295,86,o),
(244,155,o),
(244,283,cs),
(244,488,o),
(379,629,o),
(573,629,c),
(573,677,o),
(536,726,o),
(434,726,cs),
(200,726,o),
(32,546,o),
(32,293,cs),
(32,99,o),
(156,-25,o),
(351,-25,cs)
);
}
);
width = 788;
},
{
hints = (
{
horizontal = 1;
origin = (0,29);
target = (0,14);
type = Stem;
},
{
horizontal = 1;
origin = (0,23);
target = (0,20);
type = Stem;
},
{
origin = (0,26);
target = (0,17);
type = Stem;
},
{
origin = (0,11);
target = (0,2);
type = Stem;
}
);
layerId = "1D04CB99-59CD-4CDD-8259-0FDF24D9F847";
shapes = (
{
closed = 1;
nodes = (
(573,-25,o),
(721,149,o),
(721,414,cs),
(721,564,o),
(666,652,o),
(598,652,cs),
(575,652,o),
(556,643,o),
(540,627,c),
(588,569,o),
(618,489,o),
(618,376,cs),
(618,172,o),
(518,41,o),
(362,41,cs),
(250,41,o),
(181,131,o),
(181,279,cs),
(181,526,o),
(329,674,o),
(573,674,c),
(573,700,o),
(551,726,o),
(477,726,cs),
(233,726,o),
(60,545,o),
(60,286,cs),
(60,98,o),
(169,-25,o),
(340,-25,cs)
);
}
);
width = 748;
},
{
hints = (
{
horizontal = 1;
origin = (0,29);
target = (0,14);
type = Stem;
},
{
horizontal = 1;
origin = (0,23);
target = (0,20);
type = Stem;
},
{
origin = (0,26);
target = (0,17);
type = Stem;
},
{
origin = (0,11);
target = (0,2);
type = Stem;
}
);
layerId = "CE369AAB-0FC9-4F25-BC24-38D80C2A37D0";
shapes = (
{
closed = 1;
nodes = (
(577,-25,o),
(731,153,o),
(731,416,cs),
(731,561,o),
(676,647,o),
(605,647,cs),
(578,647,o),
(554,636,o),
(536,616,c),
(585,558,o),
(614,480,o),
(614,371,cs),
(614,176,o),
(517,50,o),
(368,50,cs),
(260,50,o),
(194,136,o),
(194,280,cs),
(194,518,o),
(340,665,o),
(574,665,c),
(574,695,o),
(549,726,o),
(469,726,cs),
(227,726,o),
(55,545,o),
(55,287,cs),
(55,98,o),
(167,-25,o),
(343,-25,cs)
);
}
);
width = 761;
}
);
metricLeft = O;
metricRight = O;
},
{
color = 10;
glyphname = Y.alt;
kernLeft = Y.alt;
kernRight = Y.alt;
layers = (
{
hints = (
{
place = (457, 208);
place = (457, 208);
type = Stem;
},
{
place = (457, 250);
place = (457, 250);
type = Stem;
},
{
horizontal = 1;
place = (194, 86);
place = (194, 86);
type = Stem;
},
{
horizontal = 1;
place = (-25, 21);
target = up;
type = BottomGhost;
},
{
horizontal = 1;
place = (700, -20);
target = down;
type = TopGhost;
},
{
horizontal = 1;
origin = (0,11);
target = (0,18);
type = Stem;
},
{
origin = (0,18);
target = (0,21);
type = Stem;
},
{
origin = (0,18);
target = (1,8);
type = Stem;
},
{
origin = (1,8);
target = (1,8);
type = Stem;
},
{
horizontal = 1;
place = (-25, 0);
place = (-25, 0);
type = Stem;
},
{
horizontal = 1;
place = (245, 0);
place = (245, 0);
type = Stem;
}
);
layerId = "E79706D4-AD71-4087-AB75-377D41BAFC4F";
shapes = (
{
closed = 1;
nodes = (
(440,234,o),
(646,473,o),
(646,650,cs),
(646,701,o),
(615,725,o),
(554,725,cs),
(511,725,o),
(452,706,o),
(421,682,cs),
(435,654,o),
(441,631,o),
(441,606,cs),
(441,526,o),
(398,435,o),
(325,367,c),
(315,367,ls),
(301,633,o),
(263,725,o),
(160,725,cs),
(113,725,o),
(72,711,o),
(32,682,cs),
(96,631,o),
(99,540,o),
(117,407,cs),
(127,287,o),
(173,234,o),
(283,234,cs)
);
},
{
closed = 1;
nodes = (
(317,-25,o),
(357,-11,o),
(398,20,c),
(377,51,o),
(372,84,o),
(372,145,cs),
(372,176,o),
(393,271,o),
(416,333,c),
(199,333,l),
(166,205,o),
(155,150,o),
(155,110,cs),
(155,15,o),
(186,-25,o),
(272,-25,cs)
);
}
);
width = 632;
},
{
hints = (
{
place = (685.5, 312);
place = (685.5, 312);
type = Stem;
},
{
place = (685.5, 375);
place = (685.5, 375);
type = Stem;
},
{
horizontal = 1;
place = (291, 129);
place = (291, 129);
type = Stem;
},
{
horizontal = 1;
place = (-37.5, 21);
target = up;
type = BottomGhost;
},
{
horizontal = 1;
place = (1050, -20);
target = down;
type = TopGhost;
},
{
horizontal = 1;
origin = (0,11);
target = (0,18);
type = Stem;
},
{
origin = (0,18);
target = (0,21);
type = Stem;
},
{
origin = (0,18);
target = (1,8);
type = Stem;
},
{
origin = (1,8);
target = (1,8);
type = Stem;
},
{
horizontal = 1;
place = (-25, 0);
place = (-25, 0);
type = Stem;
},
{
horizontal = 1;
place = (367.5, 0);
place = (367.5, 0);
type = Stem;
}
);
layerId = "1D04CB99-59CD-4CDD-8259-0FDF24D9F847";
shapes = (
{
closed = 1;
nodes = (
(389,251,o),
(575,517,o),
(575,662,cs),
(575,700,o),
(552,727,o),
(519,727,cs),
(505,727,o),
(498,726,o),
(463,714,c),
(472,693,o),
(477,675,o),
(477,644,cs),
(477,544,o),
(405,416,o),
(298,324,c),
(294,324,l),
(247,636,o),
(213,727,o),
(130,727,cs),
(105,727,o),
(84,720,o),
(66,706,c),
(120,664,o),
(157,594,o),
(190,397,cs),
(209,284,o),
(224,251,o),
(286,251,cs)
);
},
{
closed = 1;
nodes = (
(266,-25,o),
(288,-19,o),
(314,-4,cs),
(305,26,o),
(299,51,o),
(299,90,cs),
(299,137,o),
(308,232,o),
(341,305,c),
(240,305,l),
(202,136,o),
(194,81,o),
(194,35,cs),
(194,-8,o),
(215,-25,o),
(245,-25,cs)
);
}
);
width = 551;
},
{
hints = (
{
place = (606.6, 0);
place = (606.6, 0);
type = Stem;
},
{
place = (639.8, 299.6);
place = (639.8, 299.6);
type = Stem;
},
{
horizontal = 1;
place = (332.8, 17.2);
place = (332.8, 17.2);
type = Stem;
},
{
horizontal = 1;
place = (-35, 21);
target = up;
type = BottomGhost;
},
{
horizontal = 1;
place = (980, -20);
target = down;
type = TopGhost;
},
{
horizontal = 1;
origin = (0,11);
target = (0,18);
type = Stem;
},
{
origin = (0,18);
target = (0,21);
type = Stem;
},
{
origin = (0,18);
target = (1,8);
type = Stem;
},
{
origin = (1,8);
target = (1,8);
type = Stem;
},
{
horizontal = 1;
place = (-25, 0);
place = (-25, 0);
type = Stem;
},
{
horizontal = 1;
place = (321.8, 0);
place = (321.8, 0);
type = Stem;
}
);
layerId = "CE369AAB-0FC9-4F25-BC24-38D80C2A37D0";
shapes = (
{
closed = 1;
nodes = (
(399,248,o),
(589,508,o),
(589,660,cs),
(589,700,o),
(565,727,o),
(526,727,cs),
(506,727,o),
(489,722,o),
(455,708,cs),
(465,685,o),
(470,666,o),
(470,636,cs),
(470,540,o),
(404,420,o),
(303,333,c),
(298,333,ls),
(258,635,o),
(223,727,o),
(136,727,cs),
(107,727,o),
(82,718,o),
(59,701,cs),
(115,657,o),
(145,583,o),
(175,399,cs),
(193,285,o),
(214,248,o),
(285,248,cs)
);
},
{
closed = 1;
nodes = (
(276,-25,o),
(302,-17,o),
(331,1,c),
(319,31,o),
(314,58,o),
(314,101,cs),
(314,145,o),
(325,240,o),
(356,311,c),
(232,311,l),
(195,150,o),
(186,95,o),
(186,50,cs),
(186,-3,o),
(209,-25,o),
(250,-25,cs)
);
}
);
width = 567;
}
);
},
{
color = 10;
glyphname = a;
kernLeft = a;
kernRight = n;
layers = (
{
anchors = (
{
name = bottom;
pos = (322,0);
},
{
name = ogonek;
pos = (669,24);
},
{
name = top;
pos = (424,575);
}
);
hints = (
{
horizontal = 1;
origin = (0,45);
target = (0,27);
type = Stem;
},
{
horizontal = 1;
origin = (0,39);
target = (0,24);
type = Stem;
},
{
origin = (0,42);
target = (0,30);
type = Stem;
},
{
origin = (0,6);
target = (0,15);
type = Stem;
},
{
horizontal = 1;
options = 1;
origin = (0,45);
type = TTSnap;
},
{
horizontal = 1;
origin = (0,9);
type = TTSnap;
},
{
horizontal = 1;
options = 1;
origin = (0,9);
type = TTSnap;
},
{
horizontal = 1;
origin = (0,45);
target = (0,27);
type = TTStem;
},
{
horizontal = 1;
origin = (0,39);
target = (0,24);
type = TTStem;
}
);
layerId = "E79706D4-AD71-4087-AB75-377D41BAFC4F";
shapes = (
{
closed = 1;
nodes = (
(314,-25,o),
(389,32,o),
(427,128,c),
(437,123,l),
(435,110,o),
(434,98,o),
(434,87,cs),
(434,16,o),
(472,-25,o),
(540,-25,cs),
(585,-25,o),
(629,-8,o),
(669,24,c),
(649,41,o),
(638,73,o),
(638,115,cs),
(638,243,o),
(701,426,o),
(701,496,cs),
(701,547,o),
(675,575,o),
(628,575,cs),
(575,575,o),
(533,554,o),
(497,509,c),
(471,261,o),
(414,147,o),
(316,147,cs),
(267,147,o),
(238,184,o),
(238,249,cs),
(238,391,o),
(370,509,o),
(530,509,c),
(530,544,o),
(526,574,o),
(518,592,c),
(495,597,o),
(466,600,o),
(439,600,cs),
(202,600,o),
(40,442,o),
(40,210,cs),
(40,68,o),
(114,-25,o),
(227,-25,cs)
);
}
);
width = 746;
},
{
anchors = (
{
name = bottom;
pos = (324,0);
},
{
name = ogonek;
pos = (591,-2);
},
{
name = top;
pos = (426,575);
}
);
hints = (
{
horizontal = 1;
origin = (0,45);
target = (0,27);
type = Stem;
},
{
horizontal = 1;
origin = (0,39);
target = (0,24);
type = Stem;
},
{
origin = (0,42);
target = (0,30);
type = Stem;
},
{
origin = (0,6);
target = (0,15);
type = Stem;
},
{
horizontal = 1;
options = 1;
origin = (0,45);
type = TTSnap;
},
{
horizontal = 1;
origin = (0,9);
type = TTSnap;
},
{
horizontal = 1;
options = 1;
origin = (0,9);
type = TTSnap;
},
{
horizontal = 1;
origin = (0,45);
target = (0,27);
type = TTStem;
},
{
horizontal = 1;
origin = (0,39);
target = (0,24);
type = TTStem;
}
);
layerId = "1D04CB99-59CD-4CDD-8259-0FDF24D9F847";
shapes = (
{
closed = 1;
nodes = (
(350,-25,o),
(427,28,o),
(477,121,c),
(487,116,l),
(482,91,o),
(479,68,o),
(479,50,cs),
(479,1,o),
(501,-25,o),
(540,-25,cs),
(558,-25,o),
(574,-19,o),
(591,-2,c),
(582,7,o),
(577,21,o),
(577,40,cs),
(577,252,o),
(658,447,o),
(658,538,cs),
(658,562,o),
(639,575,o),
(609,575,cs),
(593,575,o),
(572,566,o),
(562,554,c),
(519,218,o),
(434,50,o),
(304,50,cs),
(231,50,o),
(189,106,o),
(189,204,cs),
(189,403,o),
(325,554,o),
(575,554,c),
(575,567,o),
(571,579,o),
(563,592,c),
(531,597,o),
(496,600,o),
(465,600,cs),
(255,600,o),
(85,427,o),
(85,210,cs),
(85,68,o),
(158,-25,o),
(266,-25,cs)
);
}
);
width = 748;
},
{
anchors = (
{
name = bottom;
pos = (324,0);
},
{
name = ogonek;
pos = (607,3);
},
{
name = top;
pos = (426,575);
}
);
hints = (
{
horizontal = 1;
origin = (0,45);
target = (0,27);
type = Stem;
},
{
horizontal = 1;
origin = (0,39);
target = (0,24);
type = Stem;
},
{
origin = (0,42);
target = (0,30);
type = Stem;
},
{
origin = (0,6);
target = (0,15);
type = Stem;
},
{
horizontal = 1;
options = 1;
origin = (0,45);
type = TTSnap;
},
{
horizontal = 1;
origin = (0,9);
type = TTSnap;
},
{
horizontal = 1;
options = 1;
origin = (0,9);
type = TTSnap;
},
{
horizontal = 1;
origin = (0,45);
target = (0,27);
type = TTStem;
},
{
horizontal = 1;
origin = (0,39);
target = (0,24);
type = TTStem;
}
);
layerId = "CE369AAB-0FC9-4F25-BC24-38D80C2A37D0";
shapes = (
{
closed = 1;
nodes = (
(343,-25,o),
(419,29,o),
(467,122,c),
(477,117,l),
(473,95,o),
(470,74,o),
(470,57,cs),
(470,4,o),
(495,-25,o),
(540,-25,cs),
(563,-25,o),
(585,-17,o),
(607,3,c),
(595,14,o),
(589,31,o),
(589,55,cs),
(589,250,o),
(667,443,o),
(667,530,cs),
(667,559,o),
(646,575,o),
(613,575,cs),
(589,575,o),
(564,564,o),
(549,545,c),
(509,227,o),
(430,69,o),
(306,69,cs),
(238,69,o),
(199,122,o),
(199,213,cs),
(199,401,o),
(334,545,o),
(566,545,c),
(566,562,o),
(562,578,o),
(554,592,c),
(524,597,o),
(490,600,o),
(460,600,cs),
(244,600,o),
(76,430,o),
(76,210,cs),
(76,68,o),
(149,-25,o),
(258,-25,cs)
);
}
);
width = 748;
}
);
unicode = 97;
},
{
color = 10;
glyphname = ae;
kernLeft = a;
kernRight = e;
layers = (
{
anchors = (
{
name = bottom;
pos = (470,0);
},
{
name = top;
pos = (562,575);
}
);
hints = (
{
horizontal = 1;
origin = (0,25);
target = (0,7);
type = Stem;
},
{
horizontal = 1;
origin = (0,13);
target = (0,19);
type = Stem;
},
{
origin = (0,22);
target = (0,10);
type = Stem;
}
);
layerId = "E79706D4-AD71-4087-AB75-377D41BAFC4F";
shapes = (
{
closed = 1;
nodes = (
(318,-25,o),
(396,32,o),
(436,128,c),
(446,128,l),
(454,262,l),
(421,191,o),
(368,147,o),
(316,147,cs),
(267,147,o),
(238,184,o),
(238,249,cs),
(238,379,o),
(370,484,o),
(530,484,c),
(530,515,o),
(526,545,o),
(518,567,c),
(495,572,o),
(466,575,o),
(439,575,cs),
(202,575,o),
(40,427,o),
(40,210,cs),
(40,68,o),
(114,-25,o),
(227,-25,cs)
);
},
{
pos = (388,0);
ref = e;
}
);
width = 1049;
},
{
anchors = (
{
name = bottom;
pos = (454,0);
},
{
name = top;
pos = (576,575);
}
);
hints = (
{
horizontal = 1;
origin = (0,25);
target = (0,7);
type = Stem;
},
{
horizontal = 1;
origin = (0,13);
target = (0,19);
type = Stem;
},
{
origin = (0,22);
target = (0,10);
type = Stem;
}
);
layerId = "1D04CB99-59CD-4CDD-8259-0FDF24D9F847";
shapes = (
{
closed = 1;
nodes = (
(348,-25,o),
(423,28,o),
(472,121,c),
(478,121,l),
(507,247,l),
(465,124,o),
(380,50,o),
(304,50,cs),
(231,50,o),
(189,106,o),
(189,204,cs),
(189,396,o),
(333,529,o),
(575,529,c),
(575,544,o),
(571,556,o),
(563,567,c),
(537,572,o),
(502,575,o),
(465,575,cs),
(255,575,o),
(85,412,o),
(85,210,cs),
(85,68,o),
(158,-25,o),
(266,-25,cs)
);
},
{
pos = (378,0);
ref = e;
}
);
width = 1025;
},
{
anchors = (
{
name = bottom;
pos = (457,0);
},
{
name = top;
pos = (573,575);
}
);
hints = (
{
horizontal = 1;
origin = (0,25);
target = (0,7);
type = Stem;
},
{
horizontal = 1;
origin = (0,13);
target = (0,19);
type = Stem;
},
{
origin = (0,22);
target = (0,10);
type = Stem;
}
);
layerId = "CE369AAB-0FC9-4F25-BC24-38D80C2A37D0";
shapes = (
{
closed = 1;
nodes = (
(342,-25,o),
(418,29,o),
(465,122,c),
(472,122,l),
(496,250,l),
(456,137,o),
(378,69,o),
(306,69,cs),
(238,69,o),
(199,122,o),
(199,213,cs),
(199,393,o),
(340,520,o),
(566,520,c),
(566,538,o),
(562,554,o),
(554,567,c),
(529,572,o),
(495,575,o),
(460,575,cs),
(244,575,o),
(76,415,o),
(76,210,cs),
(76,68,o),
(149,-25,o),
(258,-25,cs)
);
},
{
alignment = -1;
pos = (380,0);
ref = e;
}
);
width = 1030;
}
);
metricLeft = a;
metricRight = e;
unicode = 230;
},
{
color = 10;
glyphname = b;
kernLeft = h;
kernRight = o;
layers = (
{
hints = (
{
horizontal = 1;
origin = (0,25);
target = (1,8);
type = Stem;
},
{
horizontal = 1;
origin = (0,5);
target = (1,2);
type = Stem;
},
{
origin = (0,22);
target = (1,8);
type = Stem;
},
{
origin = (1,5);
target = (0,2);
type = Stem;
}
);
layerId = "E79706D4-AD71-4087-AB75-377D41BAFC4F";
shapes = (
{
closed = 1;
nodes = (
(524,-25,o),
(702,133,o),
(702,365,cs),
(702,507,o),
(628,600,o),
(515,600,cs),
(428,600,o),
(353,543,o),
(315,447,c),
(305,452,l),
(329,560,o),
(355,652,o),
(355,703,cs),
(355,753,o),
(333,774,o),
(270,774,cs),
(209,774,o),
(139,742,o),
(83,701,c),
(139,621,l),
(84,306,o),
(70,213,o),
(70,160,cs),
(70,40,o),
(116,-25,o),
(263,-25,cs)
);
},
{
closed = 1;
nodes = (
(245,292,o),
(328,428,o),
(426,428,cs),
(475,428,o),
(504,391,o),
(504,326,cs),
(504,199,o),
(390,92,o),
(245,78,c)
);
}
);
width = 742;
},
{
hints = (
{
horizontal = 1;
origin = (0,25);
target = (1,8);
type = Stem;
},
{
horizontal = 1;
origin = (0,5);
target = (1,2);
type = Stem;
},
{
origin = (0,22);
target = (1,8);
type = Stem;
},
{
origin = (1,5);
target = (0,2);
type = Stem;
}
);
layerId = "1D04CB99-59CD-4CDD-8259-0FDF24D9F847";
shapes = (
{
closed = 1;
nodes = (
(462,-25,o),
(663,154,o),
(663,380,cs),
(663,513,o),
(590,600,o),
(482,600,cs),
(393,600,o),
(314,542,o),
(261,440,c),
(251,445,l),
(281,578,o),
(314,681,o),
(314,723,cs),
(314,761,o),
(301,774,o),
(270,774,cs),
(242,774,o),
(200,762,o),
(173,739,c),
(214,696,l),
(159,458,o),
(107,195,o),
(107,90,cs),
(107,-19,o),
(165,-25,o),
(213,-25,cs)
);
},
{
closed = 1;
nodes = (
(186,327,o),
(314,526,o),
(444,526,cs),
(517,526,o),
(559,469,o),
(559,371,cs),
(559,181,o),
(399,37,o),
(186,30,c)
);
}
);
width = 748;
},
{
hints = (
{
horizontal = 1;
origin = (0,25);
target = (1,8);
type = Stem;
},
{
horizontal = 1;
origin = (0,5);
target = (1,2);
type = Stem;
},
{
origin = (0,22);
target = (1,8);
type = Stem;
},
{
origin = (1,5);
target = (0,2);
type = Stem;
}
);
layerId = "CE369AAB-0FC9-4F25-BC24-38D80C2A37D0";
shapes = (
{
closed = 1;
nodes = (
(475,-25,o),
(671,150,o),
(671,377,cs),
(671,512,o),
(598,600,o),
(489,600,cs),
(400,600,o),
(322,542,o),
(272,441,c),
(262,446,l),
(291,574,o),
(323,675,o),
(323,719,cs),
(323,759,o),
(308,774,o),
(270,774,cs),
(236,774,o),
(188,758,o),
(155,731,c),
(199,681,l),
(144,428,o),
(100,199,o),
(100,104,cs),
(100,-7,o),
(156,-25,o),
(223,-25,cs)
);
},
{
closed = 1;
nodes = (
(198,320,o),
(317,506,o),
(441,506,cs),
(509,506,o),
(548,453,o),
(548,362,cs),
(548,185,o),
(398,48,o),
(198,40,c)
);
}
);
width = 747;
}
);
metricLeft = l;
metricRight = "=|a";
unicode = 98;
},
{
color = 10;
glyphname = c;
kernLeft = o;
kernRight = c;
layers = (
{
anchors = (
{
name = bottom;
pos = (300,0);
},
{
name = top;
pos = (412,575);
}
);
hints = (
{
horizontal = 1;
origin = (0,29);
target = (0,8);
type = Stem;
},
{
horizontal = 1;
origin = (0,23);
target = (0,14);
type = Stem;
},
{
origin = (0,26);
target = (0,11);
type = Stem;
},
{
origin = (0,3);
target = (0,2);
type = Stem;
}
);
layerId = "E79706D4-AD71-4087-AB75-377D41BAFC4F";
shapes = (
{
closed = 1;
nodes = (
(473,-25,o),
(592,48,o),
(592,141,cs),
(592,197,o),
(549,227,o),
(469,227,c),
(466,144,o),
(408,78,o),
(338,78,cs),
(278,78,o),
(243,135,o),
(243,233,cs),
(243,344,o),
(302,449,o),
(379,477,c),
(406,420,o),
(456,385,o),
(513,385,cs),
(574,385,o),
(617,426,o),
(617,483,cs),
(617,554,o),
(543,600,o),
(429,600,cs),
(205,600,o),
(45,448,o),
(45,235,cs),
(45,72,o),
(149,-25,o),
(323,-25,cs)
);
}
);
width = 638;
},
{
anchors = (
{
name = bottom;
pos = (273,0);
},
{
name = top;
pos = (385,575);
}
);
hints = (
{
horizontal = 1;
origin = (0,29);
target = (0,8);
type = Stem;
},
{
horizontal = 1;
origin = (0,23);
target = (0,14);
type = Stem;
},
{
origin = (0,26);
target = (0,11);
type = Stem;
},
{
origin = (0,3);
target = (0,2);
type = Stem;
}
);
layerId = "1D04CB99-59CD-4CDD-8259-0FDF24D9F847";
shapes = (
{
closed = 1;
nodes = (
(430,-25,o),
(530,51,o),
(530,141,cs),
(530,181,o),
(502,196,o),
(459,196,c),
(453,104,o),
(395,33,o),
(306,33,cs),
(234,33,o),
(191,98,o),
(191,206,cs),
(191,362,o),
(270,488,o),
(377,536,c),
(404,483,o),
(446,469,o),
(488,469,cs),
(531,469,o),
(564,497,o),
(564,533,cs),
(564,575,o),
(518,600,o),
(442,600,cs),
(246,600,o),
(86,433,o),
(86,213,cs),
(86,63,o),
(171,-25,o),
(310,-25,cs)
);
}
);
width = 616;
},
{
anchors = (
{
name = bottom;
pos = (278,0);
},
{
name = top;
pos = (390,575);
}
);
hints = (
{
horizontal = 1;
origin = (0,29);
target = (0,8);
type = Stem;
},
{
horizontal = 1;
origin = (0,23);
target = (0,14);
type = Stem;
},
{
origin = (0,26);
target = (0,11);
type = Stem;
},
{
origin = (0,3);
target = (0,2);
type = Stem;
}
);
layerId = "CE369AAB-0FC9-4F25-BC24-38D80C2A37D0";
shapes = (
{
closed = 1;
nodes = (
(439,-25,o),
(542,50,o),
(542,141,cs),
(542,184,o),
(511,202,o),
(461,202,c),
(456,112,o),
(398,42,o),
(312,42,cs),
(243,42,o),
(201,105,o),
(201,211,cs),
(201,358,o),
(276,480,o),
(377,524,c),
(404,470,o),
(448,452,o),
(493,452,cs),
(540,452,o),
(575,483,o),
(575,523,cs),
(575,571,o),
(523,600,o),
(439,600,cs),
(238,600,o),
(78,436,o),
(78,217,cs),
(78,65,o),
(167,-25,o),
(313,-25,cs)
);
}
);
width = 620;
}
);
metricLeft = o;
metricRight = "=o-25";
unicode = 99;
},
{
color = 10;
glyphname = d;
kernLeft = a;
kernRight = l;
layers = (
{
anchors = (
{
name = bottom;
pos = (309,0);
},
{
name = center;
pos = (617,612);
},
{
name = top;
pos = (410,575);
},
{
name = topright;
pos = (711,575);
}
);
hints = (
{
horizontal = 1;
origin = (0,25);
target = (0,7);
type = Stem;
},
{
horizontal = 1;
origin = (0,13);
target = (0,19);
type = Stem;
},
{
origin = (0,22);
target = (0,10);
type = Stem;
},
{
origin = (1,18);
target = (1,5);
type = Stem;
}
);
layerId = "E79706D4-AD71-4087-AB75-377D41BAFC4F";
shapes = (
{
closed = 1;
nodes = (
(313,-25,o),
(387,32,o),
(425,128,c),
(446,119,l),
(453,262,l),
(420,191,o),
(367,147,o),
(315,147,cs),
(266,147,o),
(237,184,o),
(237,249,cs),
(237,379,o),
(369,484,o),
(529,484,c),
(529,515,o),
(525,545,o),
(517,567,c),
(494,572,o),
(465,575,o),
(438,575,cs),
(201,575,o),
(39,427,o),
(39,210,cs),
(39,68,o),
(113,-25,o),
(226,-25,cs)
);
},
{
closed = 1;
nodes = (
(587,-25,o),
(636,-9,o),
(673,24,c),
(655,46,o),
(642,65,o),
(642,132,cs),
(642,357,o),
(731,605,o),
(731,704,cs),
(731,754,o),
(709,775,o),
(646,775,cs),
(585,775,o),
(515,743,o),
(459,702,c),
(515,622,l),
(489,472,o),
(436,195,o),
(436,119,cs),
(436,22,o),
(468,-25,o),
(549,-25,cs)
);
}
);
width = 751;
},
{
anchors = (
{
name = bottom;
pos = (308,0);
},
{
name = center;
pos = (619,612);
},
{
name = top;
pos = (409,575);
},
{
name = topright;
pos = (651,575);
}
);
hints = (
{
horizontal = 1;
origin = (0,25);
target = (0,7);
type = Stem;
},
{
horizontal = 1;
origin = (0,13);
target = (0,19);
type = Stem;
},
{
origin = (0,22);
target = (0,10);
type = Stem;
},
{
origin = (1,18);
target = (1,5);
type = Stem;
}
);
layerId = "1D04CB99-59CD-4CDD-8259-0FDF24D9F847";
shapes = (
{
closed = 1;
nodes = (
(349,-25,o),
(426,28,o),
(476,121,c),
(496,113,l),
(506,247,l),
(464,124,o),
(379,50,o),
(303,50,cs),
(230,50,o),
(188,106,o),
(188,204,cs),
(188,396,o),
(332,529,o),
(574,529,c),
(574,544,o),
(570,556,o),
(562,567,c),
(536,572,o),
(501,575,o),
(464,575,cs),
(254,575,o),
(84,412,o),
(84,210,cs),
(84,68,o),
(157,-25,o),
(265,-25,cs)
);
},
{
closed = 1;
nodes = (
(559,-25,o),
(579,-15,o),
(594,-2,c),
(582,7,o),
(576,34,o),
(576,47,cs),
(576,345,o),
(680,646,o),
(680,724,cs),
(680,762,o),
(667,775,o),
(636,775,cs),
(608,775,o),
(566,763,o),
(539,740,c),
(580,697,l),
(545,505,o),
(481,107,o),
(481,38,cs),
(481,-5,o),
(501,-25,o),
(531,-25,cs)
);
}
);
width = 746;
},
{
anchors = (
{
name = bottom;
pos = (308,0);
},
{
name = center;
pos = (619,612);
},
{
name = top;
pos = (409,575);
},
{
name = topright;
pos = (663,575);
}
);
hints = (
{
horizontal = 1;
origin = (0,25);
target = (0,7);
type = Stem;
},
{
horizontal = 1;
origin = (0,13);
target = (0,19);
type = Stem;
},
{
origin = (0,22);
target = (0,10);
type = Stem;
},
{
origin = (1,18);
target = (1,5);
type = Stem;
}
);
layerId = "CE369AAB-0FC9-4F25-BC24-38D80C2A37D0";
shapes = (
{
closed = 1;
nodes = (
(342,-25,o),
(418,29,o),
(466,122,c),
(486,114,l),
(495,250,l),
(455,137,o),
(377,69,o),
(305,69,cs),
(237,69,o),
(198,122,o),
(198,213,cs),
(198,393,o),
(339,520,o),
(565,520,c),
(565,538,o),
(561,554,o),
(553,567,c),
(528,572,o),
(494,575,o),
(459,575,cs),
(243,575,o),
(75,415,o),
(75,210,cs),
(75,68,o),
(148,-25,o),
(257,-25,cs)
);
},
{
closed = 1;
nodes = (
(565,-25,o),
(590,-14,o),
(610,3,c),
(597,15,o),
(589,40,o),
(589,64,cs),
(589,347,o),
(690,638,o),
(690,720,cs),
(690,760,o),
(675,775,o),
(638,775,cs),
(603,775,o),
(556,759,o),
(523,732,c),
(567,682,l),
(534,498,o),
(472,125,o),
(472,54,cs),
(472,0,o),
(494,-25,o),
(535,-25,cs)
);
}
);
width = 747;
}
);
metricLeft = a;
metricRight = l;
unicode = 100;
},
{
color = 10;
glyphname = eth;
kernLeft = eth;
kernRight = eth;
layers = (
{
hints = (
{
horizontal = 1;
origin = (0,32);
target = (0,14);
type = Stem;
},
{
horizontal = 1;
origin = (0,26);
target = (0,20);
type = Stem;
},
{
horizontal = 1;
origin = (0,8);
target = (0,5);
type = Stem;
},
{
horizontal = 1;
origin = (0,5);
target = (0,8);
type = Stem;
},
{
origin = (0,29);
target = (0,17);
type = Stem;
},
{
origin = (0,11);
target = (0,2);
type = Stem;
}
);
layerId = "E79706D4-AD71-4087-AB75-377D41BAFC4F";
shapes = (
{
closed = 1;
nodes = (
(539,-25,o),
(680,122,o),
(680,337,cs),
(680,587,o),
(490,827,o),
(291,827,cs),
(212,827,o),
(163,781,o),
(163,706,c),
(360,706,o),
(517,510,o),
(517,291,cs),
(517,167,o),
(450,78,o),
(357,78,cs),
(283,78,o),
(244,132,o),
(244,236,cs),
(244,395,o),
(354,509,o),
(506,509,c),
(507,544,o),
(504,573,o),
(497,592,c),
(475,598,o),
(455,600,o),
(426,600,cs),
(204,600,o),
(46,452,o),
(46,245,cs),
(46,80,o),
(158,-25,o),
(333,-25,cs)
);
},
{
angle = 19.99289;
pos = (583,327);
ref = strokeshortcomb.Rhalf;
}
);
width = 718;
},
{
hints = (
{
horizontal = 1;
origin = (0,32);
target = (0,14);
type = Stem;
},
{
horizontal = 1;
origin = (0,26);
target = (0,20);
type = Stem;
},
{
horizontal = 1;
origin = (0,8);
target = (0,5);
type = Stem;
},
{
horizontal = 1;
origin = (0,5);
target = (0,8);
type = Stem;
},
{
origin = (0,29);
target = (0,17);
type = Stem;
},
{
origin = (0,11);
target = (0,2);
type = Stem;
}
);
layerId = "1D04CB99-59CD-4CDD-8259-0FDF24D9F847";
shapes = (
{
closed = 1;
nodes = (
(502,-25,o),
(634,131,o),
(634,354,cs),
(634,604,o),
(470,827,o),
(286,827,cs),
(250,827,o),
(222,799,o),
(222,763,c),
(400,763,o),
(545,584,o),
(545,306,cs),
(545,140,o),
(464,33,o),
(340,33,cs),
(249,33,o),
(195,107,o),
(195,230,cs),
(195,431,o),
(316,554,o),
(510,554,c),
(509,567,o),
(505,579,o),
(496,592,c),
(476,598,o),
(454,600,o),
(418,600,cs),
(226,600,o),
(90,449,o),
(90,235,cs),
(90,77,o),
(178,-25,o),
(316,-25,cs)
);
},
{
angle = 19.99289;
pos = (569,353);
ref = strokeshortcomb.Rhalf;
}
);
width = 701;
},
{
hints = (
{
horizontal = 1;
origin = (0,32);
target = (0,14);
type = Stem;
},
{
horizontal = 1;
origin = (0,26);
target = (0,20);
type = Stem;
},
{
horizontal = 1;
origin = (0,8);
target = (0,5);
type = Stem;
},
{
horizontal = 1;
origin = (0,5);
target = (0,8);
type = Stem;
},
{
origin = (0,29);
target = (0,17);
type = Stem;
},
{
origin = (0,11);
target = (0,2);
type = Stem;
}
);
layerId = "CE369AAB-0FC9-4F25-BC24-38D80C2A37D0";
shapes = (
{
closed = 1;
nodes = (
(509,-25,o),
(643,129,o),
(643,351,cs),
(643,601,o),
(474,827,o),
(287,827,cs),
(242,827,o),
(210,795,o),
(210,752,c),
(392,752,o),
(539,569,o),
(539,303,cs),
(539,145,o),
(461,42,o),
(343,42,cs),
(256,42,o),
(205,112,o),
(205,231,cs),
(205,424,o),
(324,545,o),
(509,545,c),
(509,562,o),
(505,578,o),
(496,592,c),
(476,598,o),
(454,600,o),
(420,600,cs),
(222,600,o),
(81,450,o),
(81,237,cs),
(81,78,o),
(174,-25,o),
(319,-25,cs)
);
},
{
alignment = -1;
angle = 19.99289;
pos = (572,348);
ref = strokeshortcomb.Rhalf;
}
);
width = 704;
}
);
metricLeft = o;
unicode = 240;
},
{
color = 10;
glyphname = e;
kernLeft = o;
kernRight = e;
layers = (
{
anchors = (
{
name = bottom;
pos = (318,0);
},
{
name = ogonek;
pos = (453,0);
},
{
name = top;
pos = (420,575);
}
);
hints = (
{
horizontal = 1;
origin = (0,33);
target = (0,8);
type = Stem;
},
{
horizontal = 1;
origin = (0,21);
target = (0,20);
type = Stem;
},
{
horizontal = 1;
origin = (0,27);
target = (0,14);
type = Stem;
},
{
origin = (0,30);
target = (0,11);
type = Stem;
},
{
origin = (0,17);
target = (0,24);
type = Stem;
},
{
origin = (0,5);
target = (0,2);
type = Stem;
}
);
layerId = "E79706D4-AD71-4087-AB75-377D41BAFC4F";
shapes = (
{
closed = 1;
nodes = (
(456,-25,o),
(572,42,o),
(572,128,cs),
(572,184,o),
(529,214,o),
(449,214,c),
(446,132,o),
(398,78,o),
(330,78,cs),
(274,78,o),
(241,132,o),
(241,223,cs),
(241,359,o),
(318,483,o),
(403,483,cs),
(435,483,o),
(457,463,o),
(457,434,cs),
(457,360,o),
(377,314,o),
(235,306,c),
(222,232,l),
(475,227,o),
(630,312,o),
(630,455,cs),
(630,547,o),
(559,600,o),
(437,600,cs),
(210,600,o),
(43,441,o),
(43,225,cs),
(43,68,o),
(142,-25,o),
(308,-25,cs)
);
}
);
width = 661;
},
{
anchors = (
{
name = bottom;
pos = (309,0);
},
{
name = ogonek;
pos = (429,0);
},
{
name = top;
pos = (411,575);
}
);
hints = (
{
horizontal = 1;
origin = (0,33);
target = (0,8);
type = Stem;
},
{
horizontal = 1;
origin = (0,21);
target = (0,20);
type = Stem;
},
{
horizontal = 1;
origin = (0,27);
target = (0,14);
type = Stem;
},
{
origin = (0,30);
target = (0,11);
type = Stem;
},
{
origin = (0,17);
target = (0,24);
type = Stem;
},
{
origin = (0,5);
target = (0,2);
type = Stem;
}
);
layerId = "1D04CB99-59CD-4CDD-8259-0FDF24D9F847";
shapes = (
{
closed = 1;
nodes = (
(439,-25,o),
(540,53,o),
(540,133,cs),
(540,172,o),
(512,187,o),
(469,187,c),
(463,93,o),
(400,33,o),
(310,33,cs),
(236,33,o),
(192,101,o),
(192,211,cs),
(192,400,o),
(299,551,o),
(428,551,cs),
(478,551,o),
(510,517,o),
(510,467,cs),
(510,348,o),
(384,280,o),
(173,284,c),
(161,232,l),
(444,235,o),
(602,315,o),
(602,458,cs),
(602,547,o),
(542,600,o),
(441,600,cs),
(239,600,o),
(87,438,o),
(87,218,cs),
(87,67,o),
(167,-25,o),
(303,-25,cs)
);
}
);
width = 647;
},
{
anchors = (
{
name = bottom;
pos = (311,0);
},
{
name = ogonek;
pos = (434,0);
},
{
name = top;
pos = (413,575);
}
);
hints = (
{
horizontal = 1;
origin = (0,33);
target = (0,8);
type = Stem;
},
{
horizontal = 1;
origin = (0,21);
target = (0,20);
type = Stem;
},
{
horizontal = 1;
origin = (0,27);
target = (0,14);
type = Stem;
},
{
origin = (0,30);
target = (0,11);
type = Stem;
},
{
origin = (0,17);
target = (0,24);
type = Stem;
},
{
origin = (0,5);
target = (0,2);
type = Stem;
}
);
layerId = "CE369AAB-0FC9-4F25-BC24-38D80C2A37D0";
shapes = (
{
closed = 1;
nodes = (
(442,-25,o),
(546,51,o),
(546,132,cs),
(546,174,o),
(515,192,o),
(465,192,c),
(460,101,o),
(400,42,o),
(314,42,cs),
(244,42,o),
(202,107,o),
(202,213,cs),
(202,392,o),
(303,537,o),
(423,537,cs),
(469,537,o),
(499,506,o),
(499,460,cs),
(499,350,o),
(383,287,o),
(185,288,c),
(173,232,l),
(450,233,o),
(608,314,o),
(608,457,cs),
(608,547,o),
(545,600,o),
(440,600,cs),
(233,600,o),
(78,439,o),
(78,219,cs),
(78,67,o),
(162,-25,o),
(304,-25,cs)
);
}
);
width = 650;
}
);
metricLeft = o;
unicode = 101;
},
{
color = 10;
glyphname = f;
kernLeft = f;
kernRight = f;
layers = (
{
hints = (
{
horizontal = 1;
origin = (1,2);
target = (1,8);
type = Stem;
},
{
horizontal = 1;
origin = (0,10);
target = (0,19);
type = Stem;
},
{
origin = (0,28);
target = (0,5);
type = Stem;
}
);
layerId = "E79706D4-AD71-4087-AB75-377D41BAFC4F";
shapes = (
{
closed = 1;
nodes = (
(222,-200,o),
(263,-184,o),
(312,-151,c),
(292,-134,o),
(281,-102,o),
(281,-60,cs),
(281,16,o),
(310,208,o),
(349,379,c),
(274,590,l),
(288,600,l),
(311,585,o),
(338,577,o),
(367,577,cs),
(433,577,o),
(479,619,o),
(479,680,cs),
(479,741,o),
(425,787,o),
(353,787,cs),
(223,787,o),
(151,693,o),
(151,544,cs),
(151,513,o),
(154,481,o),
(160,446,c),
(100,153,o),
(70,-15,o),
(70,-82,cs),
(70,-157,o),
(111,-200,o),
(182,-200,cs)
);
},
{
closed = 1;
nodes = (
(131,341,o),
(223,355,o),
(310,355,cs),
(382,355,o),
(422,390,o),
(422,453,cs),
(422,466,o),
(419,485,o),
(415,498,c),
(351,474,o),
(259,460,o),
(172,460,cs),
(100,460,o),
(60,425,o),
(60,362,cs),
(60,349,o),
(63,330,o),
(67,317,c)
);
}
);
width = 439;
},
{
hints = (
{
horizontal = 1;
origin = (1,2);
target = (1,8);
type = Stem;
},
{
horizontal = 1;
origin = (0,10);
target = (0,19);
type = Stem;
},
{
origin = (0,28);
target = (0,5);
type = Stem;
}
);
layerId = "1D04CB99-59CD-4CDD-8259-0FDF24D9F847";
shapes = (
{
closed = 1;
nodes = (
(186,-200,o),
(204,-193,o),
(228,-178,c),
(215,-170,o),
(209,-155,o),
(209,-135,cs),
(209,-37,o),
(250,207,o),
(310,424,c),
(262,677,l),
(270,684,l),
(293,663,o),
(321,655,o),
(349,655,cs),
(391,655,o),
(419,681,o),
(419,719,cs),
(419,758,o),
(384,787,o),
(336,787,cs),
(271,787,o),
(208,749,o),
(208,615,cs),
(208,567,o),
(211,511,o),
(218,445,c),
(151,125,o),
(113,-57,o),
(113,-132,cs),
(113,-175,o),
(133,-200,o),
(167,-200,cs)
);
},
{
closed = 1;
nodes = (
(172,389,o),
(259,400,o),
(295,400,cs),
(352,400,o),
(407,416,o),
(407,461,cs),
(407,469,o),
(404,482,o),
(400,491,c),
(341,471,o),
(253,460,o),
(217,460,cs),
(160,460,o),
(105,445,o),
(105,400,cs),
(105,391,o),
(108,378,o),
(112,370,c)
);
}
);
width = 432;
},
{
hints = (
{
horizontal = 1;
origin = (1,2);
target = (1,8);
type = Stem;
},
{
horizontal = 1;
origin = (0,10);
target = (0,19);
type = Stem;
},
{
origin = (0,28);
target = (0,5);
type = Stem;
}
);
layerId = "CE369AAB-0FC9-4F25-BC24-38D80C2A37D0";
shapes = (
{
closed = 1;
nodes = (
(193,-200,o),
(216,-191,o),
(245,-173,c),
(230,-163,o),
(223,-144,o),
(223,-120,cs),
(223,-26,o),
(262,207,o),
(318,415,c),
(264,660,l),
(274,667,l),
(297,647,o),
(324,639,o),
(353,639,cs),
(399,639,o),
(431,669,o),
(431,711,cs),
(431,755,o),
(392,787,o),
(339,787,cs),
(261,787,o),
(197,738,o),
(197,601,cs),
(197,556,o),
(200,505,o),
(206,445,c),
(141,131,o),
(104,-49,o),
(104,-122,cs),
(104,-171,o),
(129,-200,o),
(170,-200,cs)
);
},
{
closed = 1;
nodes = (
(164,379,o),
(252,391,o),
(298,391,cs),
(358,391,o),
(410,411,o),
(410,459,cs),
(410,468,o),
(407,483,o),
(403,492,c),
(343,472,o),
(254,460,o),
(208,460,cs),
(148,460,o),
(96,441,o),
(96,392,cs),
(96,383,o),
(99,368,o),
(103,359,c)
);
}
);
width = 433;
}
);
unicode = 102;
},
{
color = 10;
glyphname = g;
kernLeft = a;
kernRight = g;
layers = (
{
anchors = (
{
name = bottom;
pos = (312,0);
},
{
name = top;
pos = (413,575);
}
);
hints = (
{
horizontal = 1;
origin = (0,20);
target = (0,11);
type = Stem;
},
{
horizontal = 1;
origin = (1,25);
target = (1,7);
type = Stem;
},
{
horizontal = 1;
origin = (1,19);
target = (0,8);
type = Stem;
},
{
origin = (1,22);
target = (1,10);
type = Stem;
},
{
origin = (0,8);
target = (0,2);
type = Stem;
}
);
layerId = "E79706D4-AD71-4087-AB75-377D41BAFC4F";
shapes = (
{
closed = 1;
nodes = (
(544,-238,o),
(675,156,o),
(675,505,cs),
(675,551,o),
(651,576,o),
(604,576,cs),
(550,576,o),
(508,555,o),
(471,509,c),
(482,29,o),
(320,-89,o),
(180,-89,cs),
(120,-89,o),
(65,-66,o),
(33,-15,c),
(-2,-35,o),
(-29,-80,o),
(-29,-124,cs),
(-29,-197,o),
(41,-238,o),
(168,-238,cs)
);
},
{
closed = 1;
nodes = (
(291,10,o),
(369,63,o),
(409,153,c),
(471,153,l),
(471,509,l),
(471,216,o),
(355,142,o),
(289,142,cs),
(237,142,o),
(206,183,o),
(206,254,cs),
(206,395,o),
(340,509,o),
(503,509,c),
(503,540,o),
(499,570,o),
(491,592,c),
(468,597,o),
(439,600,o),
(412,600,cs),
(172,600,o),
(8,452,o),
(8,235,cs),
(8,99,o),
(84,10,o),
(200,10,cs)
);
}
);
width = 702;
},
{
anchors = (
{
name = bottom;
pos = (303,0);
},
{
name = top;
pos = (404,575);
}
);
hints = (
{
horizontal = 1;
origin = (0,20);
target = (0,11);
type = Stem;
},
{
horizontal = 1;
origin = (1,25);
target = (1,7);
type = Stem;
},
{
horizontal = 1;
origin = (1,19);
target = (0,8);
type = Stem;
},
{
origin = (1,22);
target = (1,10);
type = Stem;
},
{
origin = (0,8);
target = (0,2);
type = Stem;
}
);
layerId = "1D04CB99-59CD-4CDD-8259-0FDF24D9F847";
shapes = (
{
closed = 1;
nodes = (
(486,-234,o),
(602,131,o),
(602,549,cs),
(602,568,o),
(591,578,o),
(568,578,cs),
(559,578,o),
(552,576,o),
(521,554,c),
(545,-15,o),
(308,-164,o),
(183,-164,cs),
(117,-164,o),
(76,-137,o),
(47,-84,c),
(21,-104,o),
(4,-131,o),
(4,-154,cs),
(4,-200,o),
(67,-234,o),
(156,-234,cs)
);
},
{
closed = 1;
nodes = (
(322,3,o),
(412,54,o),
(461,146,c),
(526,146,l),
(520,554,l),
(520,168,o),
(361,75,o),
(278,75,cs),
(202,75,o),
(158,135,o),
(158,239,cs),
(158,425,o),
(298,554,o),
(534,554,c),
(534,569,o),
(530,581,o),
(522,592,c),
(496,597,o),
(461,600,o),
(424,600,cs),
(191,600,o),
(54,437,o),
(54,235,cs),
(54,95,o),
(129,3,o),
(240,3,cs)
);
}
);
width = 665;
},
{
anchors = (
{
name = bottom;
pos = (305,0);
},
{
name = top;
pos = (406,575);
}
);
hints = (
{
horizontal = 1;
origin = (0,20);
target = (0,11);
type = Stem;
},
{
horizontal = 1;
origin = (1,25);
target = (1,7);
type = Stem;
},
{
horizontal = 1;
origin = (1,19);
target = (0,8);
type = Stem;
},
{
origin = (1,22);
target = (1,10);
type = Stem;
},
{
origin = (0,8);
target = (0,2);
type = Stem;
}
);
layerId = "CE369AAB-0FC9-4F25-BC24-38D80C2A37D0";
shapes = (
{
closed = 1;
nodes = (
(498,-235,o),
(617,136,o),
(617,540,cs),
(617,565,o),
(603,578,o),
(575,578,cs),
(557,578,o),
(543,572,o),
(511,545,c),
(532,-6,o),
(310,-149,o),
(182,-149,cs),
(118,-149,o),
(74,-123,o),
(44,-70,c),
(16,-90,o),
(-3,-121,o),
(-3,-148,cs),
(-3,-199,o),
(62,-235,o),
(158,-235,cs)
);
},
{
closed = 1;
nodes = (
(316,4,o),
(403,56,o),
(451,147,c),
(515,147,l),
(510,545,l),
(510,178,o),
(360,88,o),
(280,88,cs),
(209,88,o),
(168,145,o),
(168,242,cs),
(168,419,o),
(306,545,o),
(528,545,c),
(528,563,o),
(524,579,o),
(516,592,c),
(490,597,o),
(457,600,o),
(422,600,cs),
(187,600,o),
(45,440,o),
(45,235,cs),
(45,96,o),
(120,4,o),
(232,4,cs)
);
}
);
width = 672;
}
);
metricLeft = "=a-35";
unicode = 103;
},
{
color = 10;
glyphname = h;
kernLeft = h;
kernRight = n;
layers = (
{
anchors = (
{
name = bottom;
pos = (377,0);
},
{
name = center;
pos = (249,612);
},
{
name = top;
pos = (263,725);
}
);
hints = (
{
horizontal = 1;
origin = (0,29);
target = (0,8);
type = Stem;
},
{
origin = (0,46);
target = (0,5);
type = Stem;
},
{
origin = (0,14);
target = (0,23);
type = Stem;
}
);
layerId = "E79706D4-AD71-4087-AB75-377D41BAFC4F";
shapes = (
{
closed = 1;
nodes = (
(214,-25,o),
(251,-9,o),
(287,24,c),
(274,42,o),
(266,75,o),
(266,115,cs),
(266,309,o),
(407,443,o),
(479,443,cs),
(504,443,o),
(513,427,o),
(513,401,cs),
(513,329,o),
(453,210,o),
(453,99,cs),
(453,19,o),
(486,-25,o),
(570,-25,cs),
(607,-25,o),
(644,-9,o),
(680,24,c),
(667,42,o),
(659,75,o),
(659,115,cs),
(659,239,o),
(718,371,o),
(718,479,cs),
(718,562,o),
(678,600,o),
(597,600,cs),
(495,600,o),
(394,535,o),
(313,396,c),
(303,401,l),
(329,530,o),
(365,646,o),
(365,704,cs),
(365,754,o),
(343,775,o),
(280,775,cs),
(219,775,o),
(149,743,o),
(93,702,c),
(149,622,l),
(120,466,o),
(60,178,o),
(60,99,cs),
(60,19,o),
(93,-25,o),
(177,-25,cs)
);
}
);
width = 763;
},
{
anchors = (
{
name = bottom;
pos = (356,0);
},
{
name = center;
pos = (242,612);
},
{
name = top;
pos = (263,725);
}
);
hints = (
{
horizontal = 1;
origin = (0,29);
target = (0,8);
type = Stem;
},
{
origin = (0,46);
target = (0,5);
type = Stem;
},
{
origin = (0,14);
target = (0,23);
type = Stem;
}
);
layerId = "1D04CB99-59CD-4CDD-8259-0FDF24D9F847";
shapes = (
{
closed = 1;
nodes = (
(161,-25,o),
(179,-18,o),
(195,-2,c),
(188,6,o),
(185,23,o),
(185,40,cs),
(185,332,o),
(347,533,o),
(476,533,cs),
(525,533,o),
(544,499,o),
(544,442,cs),
(544,344,o),
(480,143,o),
(480,33,cs),
(480,-5,o),
(496,-25,o),
(535,-25,cs),
(553,-25,o),
(570,-18,o),
(587,-2,c),
(580,6,o),
(576,23,o),
(576,40,cs),
(576,185,o),
(649,338,o),
(649,464,cs),
(649,558,o),
(606,600,o),
(519,600,cs),
(436,600,o),
(328,555,o),
(250,413,c),
(240,418,l),
(278,595,o),
(306,678,o),
(306,724,cs),
(306,762,o),
(293,775,o),
(262,775,cs),
(234,775,o),
(192,763,o),
(165,740,c),
(206,697,l),
(153,411,o),
(88,102,o),
(88,33,cs),
(88,-5,o),
(105,-25,o),
(144,-25,cs)
);
}
);
width = 730;
},
{
anchors = (
{
name = bottom;
pos = (360,0);
},
{
name = center;
pos = (243,612);
},
{
name = top;
pos = (263,725);
}
);
hints = (
{
horizontal = 1;
origin = (0,29);
target = (0,8);
type = Stem;
},
{
origin = (0,46);
target = (0,5);
type = Stem;
},
{
origin = (0,14);
target = (0,23);
type = Stem;
}
);
layerId = "CE369AAB-0FC9-4F25-BC24-38D80C2A37D0";
shapes = (
{
closed = 1;
nodes = (
(172,-25,o),
(193,-16,o),
(213,3,c),
(205,13,o),
(201,33,o),
(201,55,cs),
(201,327,o),
(359,515,o),
(477,515,cs),
(521,515,o),
(538,485,o),
(538,434,cs),
(538,341,o),
(475,156,o),
(475,46,cs),
(475,0,o),
(494,-25,o),
(542,-25,cs),
(564,-25,o),
(585,-16,o),
(606,3,c),
(597,13,o),
(593,33,o),
(593,55,cs),
(593,196,o),
(663,345,o),
(663,467,cs),
(663,559,o),
(620,600,o),
(535,600,cs),
(448,600,o),
(341,551,o),
(263,410,c),
(253,415,l),
(288,582,o),
(318,672,o),
(318,720,cs),
(318,760,o),
(303,775,o),
(266,775,cs),
(231,775,o),
(183,759,o),
(151,732,c),
(195,682,l),
(146,422,o),
(82,117,o),
(82,46,cs),
(82,0,o),
(103,-25,o),
(151,-25,cs)
);
}
);
width = 737;
}
);
metricLeft = l;
metricRight = n;
unicode = 104;
},
{
color = 10;
glyphname = i;
kernLeft = i;
kernRight = i;
layers = (
{
anchors = (
{
name = bottom;
pos = (175,0);
},
{
name = ogonek;
pos = (302,24);
}
);
hints = (
{
horizontal = 1;
origin = (1,11);
target = (1,5);
type = Stem;
},
{
origin = (0,18);
target = (0,5);
type = Stem;
},
{
horizontal = 1;
origin = (0,11);
target = down;
type = TopGhost;
},
{
origin = (1,8);
target = (1,2);
type = Stem;
}
);
layerId = "E79706D4-AD71-4087-AB75-377D41BAFC4F";
shapes = (
{
closed = 1;
nodes = (
(223,-25,o),
(264,-9,o),
(302,24,c),
(281,42,o),
(271,75,o),
(271,115,cs),
(271,243,o),
(345,476,o),
(345,526,cs),
(345,577,o),
(326,600,o),
(270,600,cs),
(206,600,o),
(133,567,o),
(73,525,c),
(129,441,l),
(102,324,o),
(65,158,o),
(65,99,cs),
(65,19,o),
(98,-25,o),
(183,-25,cs)
);
},
{
closed = 1;
nodes = (
(314,655,o),
(378,699,o),
(378,764,cs),
(378,816,o),
(333,847,o),
(272,847,cs),
(215,847,o),
(137,811,o),
(137,738,cs),
(137,686,o),
(182,655,o),
(243,655,cs)
);
}
);
width = 388;
},
{
anchors = (
{
name = bottom;
pos = (160,0);
},
{
name = ogonek;
pos = (224,-3);
}
);
hints = (
{
horizontal = 1;
origin = (1,11);
target = (1,5);
type = Stem;
},
{
origin = (0,18);
target = (0,5);
type = Stem;
},
{
horizontal = 1;
origin = (0,11);
target = down;
type = TopGhost;
},
{
origin = (1,8);
target = (1,2);
type = Stem;
}
);
layerId = "1D04CB99-59CD-4CDD-8259-0FDF24D9F847";
shapes = (
{
closed = 1;
nodes = (
(190,-25,o),
(207,-18,o),
(224,-3,c),
(215,5,o),
(210,18,o),
(210,40,cs),
(210,201,o),
(305,529,o),
(305,550,cs),
(305,588,o),
(290,600,o),
(255,600,cs),
(229,600,o),
(189,588,o),
(163,566,c),
(204,525,l),
(131,197,o),
(113,85,o),
(113,33,cs),
(113,-10,o),
(133,-25,o),
(168,-25,cs)
);
},
{
closed = 1;
nodes = (
(311,693,o),
(342,723,o),
(342,760,cs),
(342,789,o),
(320,810,o),
(281,810,cs),
(229,810,o),
(203,774,o),
(203,743,cs),
(203,713,o),
(226,693,o),
(264,693,cs)
);
}
);
width = 388;
},
{
anchors = (
{
name = bottom;
pos = (163,0);
},
{
name = ogonek;
pos = (240,2);
}
);
hints = (
{
horizontal = 1;
origin = (1,11);
target = (1,5);
type = Stem;
},
{
origin = (0,18);
target = (0,5);
type = Stem;
},
{
horizontal = 1;
origin = (0,11);
target = down;
type = TopGhost;
},
{
origin = (1,8);
target = (1,2);
type = Stem;
}
);
layerId = "CE369AAB-0FC9-4F25-BC24-38D80C2A37D0";
shapes = (
{
closed = 1;
nodes = (
(197,-25,o),
(218,-16,o),
(240,2,c),
(228,12,o),
(222,29,o),
(222,55,cs),
(222,209,o),
(313,518,o),
(313,545,cs),
(313,586,o),
(297,600,o),
(258,600,cs),
(224,600,o),
(178,584,o),
(145,558,c),
(189,508,l),
(125,222,o),
(103,100,o),
(103,46,cs),
(103,-4,o),
(126,-25,o),
(171,-25,cs)
);
},
{
closed = 1;
nodes = (
(312,685,o),
(349,718,o),
(349,761,cs),
(349,794,o),
(323,817,o),
(279,817,cs),
(226,817,o),
(190,781,o),
(190,742,cs),
(190,708,o),
(217,685,o),
(260,685,cs)
);
}
);
width = 388;
}
);
unicode = 105;
},
{
color = 10;
glyphname = idotless;
kernLeft = idotless;
kernRight = idotless;
layers = (
{
anchors = (
{
name = bottom;
pos = (143,0);
},
{
name = ogonek;
pos = (302,24);
},
{
name = top;
pos = (245,575);
}
);
hints = (
{
origin = (0,18);
target = (0,5);
type = Stem;
}
);
layerId = "E79706D4-AD71-4087-AB75-377D41BAFC4F";
shapes = (
{
closed = 1;
nodes = (
(223,-25,o),
(264,-9,o),
(302,24,c),
(281,42,o),
(271,75,o),
(271,115,cs),
(271,243,o),
(345,476,o),
(345,526,cs),
(345,577,o),
(326,600,o),
(270,600,cs),
(206,600,o),
(133,567,o),
(73,525,c),
(129,441,l),
(102,324,o),
(65,158,o),
(65,99,cs),
(65,19,o),
(98,-25,o),
(183,-25,cs)
);
}
);
width = 388;
},
{
anchors = (
{
name = bottom;
pos = (143,0);
},
{
name = ogonek;
pos = (224,-3);
},
{
name = top;
pos = (245,575);
}
);
hints = (
{
origin = (0,18);
target = (0,5);
type = Stem;
}
);
layerId = "1D04CB99-59CD-4CDD-8259-0FDF24D9F847";
shapes = (
{
closed = 1;
nodes = (
(190,-25,o),
(207,-18,o),
(224,-3,c),
(215,5,o),
(210,18,o),
(210,40,cs),
(210,201,o),
(305,529,o),
(305,550,cs),
(305,588,o),
(290,600,o),
(255,600,cs),
(229,600,o),
(189,588,o),
(163,566,c),
(204,525,l),
(132,200,o),
(113,85,o),
(113,33,cs),
(113,-10,o),
(133,-25,o),
(168,-25,cs)
);
}
);
width = 388;
},
{
anchors = (
{
name = bottom;
pos = (143,0);
},
{
name = ogonek;
pos = (240,2);
},
{
name = top;
pos = (245,575);
}
);
hints = (
{
origin = (0,18);
target = (0,5);
type = Stem;
}
);
layerId = "CE369AAB-0FC9-4F25-BC24-38D80C2A37D0";
shapes = (
{
closed = 1;
nodes = (
(197,-25,o),
(218,-16,o),
(240,2,c),
(228,12,o),
(222,29,o),
(222,55,cs),
(222,209,o),
(313,518,o),
(313,545,cs),
(313,586,o),
(297,600,o),
(258,600,cs),
(224,600,o),
(178,584,o),
(145,558,c),
(189,508,l),
(126,225,o),
(103,100,o),
(103,46,cs),
(103,-4,o),
(126,-25,o),
(171,-25,cs)
);
}
);
width = 388;
}
);
unicode = 305;
},
{
color = 10;
glyphname = j;
kernLeft = j;
kernRight = j;
layers = (
{
hints = (
{
place = (134, 241);
place = (134, 241);
type = Stem;
},
{
horizontal = 1;
place = (837, -20);
target = down;
type = TopGhost;
},
{
horizontal = 1;
place = (600, -20);
target = down;
type = TopGhost;
},
{
horizontal = 1;
place = (-15, 21);
target = up;
type = BottomGhost;
},
{
horizontal = 1;
place = (-210, 21);
target = up;
type = BottomGhost;
}
);
layerId = "E79706D4-AD71-4087-AB75-377D41BAFC4F";
shapes = (
{
closed = 1;
nodes = (
(165,-210,o),
(230,-87,o),
(255,37,cs),
(290,210,o),
(337,465,o),
(337,526,cs),
(337,577,o),
(318,600,o),
(262,600,cs),
(198,600,o),
(125,567,o),
(65,525,c),
(121,441,l),
(99,316,o),
(67,134,o),
(67,105,cs),
(67,50,o),
(77,18,o),
(134,-34,c),
(124,-48,l),
(102,-33,o),
(76,-15,o),
(38,-15,cs),
(-29,-15,o),
(-73,-52,o),
(-73,-113,cs),
(-73,-165,o),
(-37,-210,o),
(46,-210,cs)
);
},
{
closed = 1;
nodes = (
(306,665,o),
(370,704,o),
(370,763,cs),
(370,809,o),
(325,837,o),
(264,837,cs),
(207,837,o),
(129,805,o),
(129,739,cs),
(129,693,o),
(174,665,o),
(235,665,cs)
);
}
);
width = 397;
},
{
hints = (
{
place = (201, 361.5);
place = (201, 361.5);
type = Stem;
},
{
horizontal = 1;
place = (1255.5, -20);
target = down;
type = TopGhost;
},
{
horizontal = 1;
place = (900, -20);
target = down;
type = TopGhost;
},
{
horizontal = 1;
place = (-22.5, 21);
target = up;
type = BottomGhost;
},
{
horizontal = 1;
place = (-315, 21);
target = up;
type = BottomGhost;
}
);
layerId = "1D04CB99-59CD-4CDD-8259-0FDF24D9F847";
shapes = (
{
closed = 1;
nodes = (
(117,-210,o),
(161,-161,o),
(183,-58,cs),
(224,152,o),
(301,527,o),
(301,550,cs),
(301,588,o),
(287,600,o),
(252,600,cs),
(225,600,o),
(185,588,o),
(160,566,c),
(201,525,l),
(165,288,o),
(111,50,o),
(111,-21,cs),
(111,-60,o),
(118,-86,o),
(133,-102,c),
(124,-117,l),
(111,-107,o),
(88,-89,o),
(58,-89,cs),
(15,-89,o),
(-13,-112,o),
(-13,-149,cs),
(-13,-182,o),
(7,-210,o),
(49,-210,cs)
);
},
{
closed = 1;
nodes = (
(307,703,o),
(338,728,o),
(338,759,cs),
(338,782,o),
(314,800,o),
(277,800,cs),
(225,800,o),
(199,769,o),
(199,744,cs),
(199,720,o),
(223,703,o),
(260,703,cs)
);
}
);
width = 397;
},
{
hints = (
{
place = (187.6, 337.4);
place = (187.6, 337.4);
type = Stem;
},
{
horizontal = 1;
place = (1171.8, -20);
target = down;
type = TopGhost;
},
{
horizontal = 1;
place = (840, -20);
target = down;
type = TopGhost;
},
{
horizontal = 1;
place = (-21, 21);
target = up;
type = BottomGhost;
},
{
horizontal = 1;
place = (-294, 21);
target = up;
type = BottomGhost;
}
);
layerId = "CE369AAB-0FC9-4F25-BC24-38D80C2A37D0";
shapes = (
{
closed = 1;
nodes = (
(127,-210,o),
(175,-146,o),
(197,-39,cs),
(237,164,o),
(308,515,o),
(308,545,cs),
(308,586,o),
(293,600,o),
(254,600,cs),
(220,600,o),
(173,584,o),
(141,558,c),
(185,508,l),
(152,294,o),
(102,67,o),
(102,4,cs),
(102,-38,o),
(110,-65,o),
(133,-88,c),
(124,-103,l),
(109,-92,o),
(86,-74,o),
(54,-74,cs),
(6,-74,o),
(-25,-100,o),
(-25,-142,cs),
(-25,-179,o),
(-2,-210,o),
(48,-210,cs)
);
},
{
closed = 1;
nodes = (
(307,695,o),
(344,723,o),
(344,760,cs),
(344,787,o),
(316,807,o),
(274,807,cs),
(221,807,o),
(185,776,o),
(185,743,cs),
(185,715,o),
(213,695,o),
(255,695,cs)
);
}
);
width = 397;
}
);
unicode = 106;
},
{
color = 10;
glyphname = jdotless;
kernLeft = jdotless;
kernRight = jdotless;
layers = (
{
anchors = (
{
name = bottom;
pos = (153,0);
},
{
name = top;
pos = (245,575);
}
);
hints = (
{
place = (134, 241);
place = (134, 241);
type = Stem;
},
{
horizontal = 1;
place = (837, -20);
target = down;
type = TopGhost;
},
{
horizontal = 1;
place = (600, -20);
target = down;
type = TopGhost;
},
{
horizontal = 1;
place = (-15, 21);
target = up;
type = BottomGhost;
},
{
horizontal = 1;
place = (-210, 21);
target = up;
type = BottomGhost;
}
);
layerId = "E79706D4-AD71-4087-AB75-377D41BAFC4F";
shapes = (
{
closed = 1;
nodes = (
(165,-210,o),
(230,-87,o),
(255,37,cs),
(290,210,o),
(337,465,o),
(337,526,cs),
(337,577,o),
(318,600,o),
(262,600,cs),
(198,600,o),
(125,567,o),
(65,525,c),
(121,441,l),
(99,316,o),
(67,134,o),
(67,105,cs),
(67,50,o),
(77,18,o),
(134,-34,c),
(124,-48,l),
(102,-33,o),
(76,-15,o),
(38,-15,cs),
(-29,-15,o),
(-73,-52,o),
(-73,-113,cs),
(-73,-165,o),
(-37,-210,o),
(46,-210,cs)
);
}
);
width = 397;
},
{
anchors = (
{
name = bottom;
pos = (153,0);
},
{
name = top;
pos = (245,575);
}
);
hints = (
{
place = (201, 361.5);
place = (201, 361.5);
type = Stem;
},
{
horizontal = 1;
place = (1255.5, -20);
target = down;
type = TopGhost;
},
{
horizontal = 1;
place = (900, -20);
target = down;
type = TopGhost;
},
{
horizontal = 1;
place = (-22.5, 21);
target = up;
type = BottomGhost;
},
{
horizontal = 1;
place = (-315, 21);
target = up;
type = BottomGhost;
}
);
layerId = "1D04CB99-59CD-4CDD-8259-0FDF24D9F847";
shapes = (
{
closed = 1;
nodes = (
(117,-210,o),
(161,-161,o),
(183,-58,cs),
(224,152,o),
(301,527,o),
(301,550,cs),
(301,588,o),
(287,600,o),
(252,600,cs),
(225,600,o),
(185,588,o),
(160,566,c),
(201,525,l),
(165,288,o),
(111,50,o),
(111,-21,cs),
(111,-60,o),
(118,-86,o),
(133,-102,c),
(124,-117,l),
(111,-107,o),
(88,-89,o),
(58,-89,cs),
(15,-89,o),
(-13,-112,o),
(-13,-149,cs),
(-13,-182,o),
(7,-210,o),
(49,-210,cs)
);
}
);
width = 397;
},
{
anchors = (
{
name = bottom;
pos = (153,0);
},
{
name = top;
pos = (245,575);
}
);
hints = (
{
place = (187.6, 337.4);
place = (187.6, 337.4);
type = Stem;
},
{
horizontal = 1;
place = (1171.8, -20);
target = down;
type = TopGhost;
},
{
horizontal = 1;
place = (840, -20);
target = down;
type = TopGhost;
},
{
horizontal = 1;
place = (-21, 21);
target = up;
type = BottomGhost;
},
{
horizontal = 1;
place = (-294, 21);
target = up;
type = BottomGhost;
}
);
layerId = "CE369AAB-0FC9-4F25-BC24-38D80C2A37D0";
shapes = (
{
closed = 1;
nodes = (
(127,-210,o),
(175,-146,o),
(197,-39,cs),
(237,164,o),
(308,515,o),
(308,545,cs),
(308,586,o),
(293,600,o),
(254,600,cs),
(220,600,o),
(173,584,o),
(141,558,c),
(185,508,l),
(152,294,o),
(102,67,o),
(102,4,cs),
(102,-38,o),
(110,-65,o),
(133,-88,c),
(124,-103,l),
(109,-92,o),
(86,-74,o),
(54,-74,cs),
(6,-74,o),
(-25,-100,o),
(-25,-142,cs),
(-25,-179,o),
(-2,-210,o),
(48,-210,cs)
);
}
);
width = 397;
}
);
unicode = 567;
},
{
color = 10;
glyphname = k;
kernLeft = h;
kernRight = k;
layers = (
{
anchors = (
{
name = bottom;
pos = (342,0);
},
{
name = top;
pos = (443,575);
}
);
hints = (
{
horizontal = 1;
origin = (1,21);
target = up;
type = BottomGhost;
},
{
horizontal = 1;
origin = (0,6);
target = down;
type = TopGhost;
},
{
origin = (1,18);
target = (1,5);
type = Stem;
},
{
origin = (0,12);
target = (0,3);
type = Stem;
}
);
layerId = "E79706D4-AD71-4087-AB75-377D41BAFC4F";
shapes = (
{
closed = 1;
nodes = (
(484,277,ls),
(640,358,o),
(705,425,o),
(705,504,cs),
(705,562,o),
(664,600,o),
(603,600,cs),
(564,600,o),
(523,589,o),
(478,567,c),
(485,550,o),
(488,534,o),
(488,519,cs),
(488,446,o),
(417,389,o),
(315,307,cs),
(234,241,l),
(228,144,l)
);
},
{
closed = 1;
nodes = (
(221,-25,o),
(270,-9,o),
(307,24,c),
(289,46,o),
(276,65,o),
(276,132,cs),
(276,357,o),
(365,605,o),
(365,704,cs),
(365,754,o),
(343,775,o),
(280,775,cs),
(219,775,o),
(149,743,o),
(93,702,c),
(149,622,l),
(123,472,o),
(70,195,o),
(70,119,cs),
(70,22,o),
(102,-25,o),
(183,-25,cs)
);
},
{
closed = 1;
nodes = (
(639,-25,o),
(689,6,o),
(728,69,c),
(653,99,o),
(613,154,o),
(587,210,cs),
(505,361,l),
(332,257,l),
(407,118,ls),
(461,19,o),
(503,-25,o),
(575,-25,cs)
);
}
);
width = 729;
},
{
anchors = (
{
name = bottom;
pos = (294,0);
},
{
name = top;
pos = (397,575);
}
);
hints = (
{
horizontal = 1;
origin = (1,21);
target = up;
type = BottomGhost;
},
{
horizontal = 1;
origin = (0,6);
target = down;
type = TopGhost;
},
{
origin = (1,18);
target = (1,5);
type = Stem;
},
{
origin = (0,12);
target = (0,3);
type = Stem;
}
);
layerId = "1D04CB99-59CD-4CDD-8259-0FDF24D9F847";
shapes = (
{
closed = 1;
nodes = (
(388,303,ls),
(526,394,o),
(589,472,o),
(589,540,cs),
(589,577,o),
(568,600,o),
(535,600,cs),
(519,600,o),
(497,594,o),
(484,581,c),
(486,571,o),
(488,561,o),
(488,551,cs),
(488,475,o),
(415,395,o),
(337,331,cs),
(184,210,l),
(172,159,l)
);
},
{
closed = 1;
nodes = (
(185,-25,o),
(205,-15,o),
(220,-2,c),
(208,7,o),
(202,34,o),
(202,47,cs),
(202,345,o),
(306,646,o),
(306,724,cs),
(306,762,o),
(293,775,o),
(262,775,cs),
(234,775,o),
(192,763,o),
(165,740,c),
(206,697,l),
(171,505,o),
(107,107,o),
(107,38,cs),
(107,-5,o),
(127,-25,o),
(157,-25,cs)
);
},
{
closed = 1;
nodes = (
(561,-25,o),
(593,-9,o),
(612,24,c),
(543,50,o),
(517,90,o),
(483,146,cs),
(377,339,l),
(303,278,l),
(416,75,ls),
(459,-4,o),
(488,-25,o),
(534,-25,cs)
);
}
);
width = 626;
},
{
anchors = (
{
name = bottom;
pos = (304,0);
},
{
name = top;
pos = (406,575);
}
);
hints = (
{
horizontal = 1;
origin = (1,21);
target = up;
type = BottomGhost;
},
{
horizontal = 1;
origin = (0,6);
target = down;
type = TopGhost;
},
{
origin = (1,18);
target = (1,5);
type = Stem;
},
{
origin = (0,12);
target = (0,3);
type = Stem;
}
);
layerId = "CE369AAB-0FC9-4F25-BC24-38D80C2A37D0";
shapes = (
{
closed = 1;
nodes = (
(407,298,ls),
(549,387,o),
(612,463,o),
(612,533,cs),
(612,574,o),
(587,600,o),
(549,600,cs),
(528,600,o),
(502,593,o),
(483,578,c),
(486,567,o),
(488,556,o),
(488,545,cs),
(488,469,o),
(415,394,o),
(333,326,cs),
(194,216,l),
(183,156,l)
);
},
{
closed = 1;
nodes = (
(192,-25,o),
(218,-14,o),
(237,3,c),
(224,15,o),
(217,40,o),
(217,64,cs),
(217,347,o),
(318,638,o),
(318,720,cs),
(318,760,o),
(303,775,o),
(266,775,cs),
(231,775,o),
(183,759,o),
(151,732,c),
(195,682,l),
(161,498,o),
(100,125,o),
(100,54,cs),
(100,0,o),
(122,-25,o),
(162,-25,cs)
);
},
{
closed = 1;
nodes = (
(577,-25,o),
(612,-6,o),
(635,33,c),
(565,60,o),
(536,103,o),
(504,159,cs),
(403,343,l),
(309,274,l),
(414,84,ls),
(459,1,o),
(491,-25,o),
(542,-25,cs)
);
}
);
width = 647;
}
);
metricLeft = l;
unicode = 107;
},
{
color = 10;
glyphname = kgreenlandic;
kernLeft = h;
kernRight = k;
layers = (
{
anchors = (
{
name = bottom;
pos = (342,0);
},
{
name = top;
pos = (415,575);
}
);
hints = (
{
origin = (1,18);
target = (1,5);
type = Stem;
},
{
origin = (0,12);
target = (0,3);
type = Stem;
}
);
layerId = "E79706D4-AD71-4087-AB75-377D41BAFC4F";
shapes = (
{
closed = 1;
nodes = (
(494,277,ls),
(650,358,o),
(715,425,o),
(715,504,cs),
(715,562,o),
(674,600,o),
(613,600,cs),
(574,600,o),
(533,589,o),
(488,567,c),
(495,550,o),
(498,534,o),
(498,519,cs),
(498,446,o),
(427,389,o),
(325,307,cs),
(244,241,l),
(238,144,l)
);
},
{
closed = 1;
nodes = (
(229,-25,o),
(266,-9,o),
(302,24,c),
(289,42,o),
(281,75,o),
(281,115,cs),
(281,243,o),
(345,476,o),
(345,526,cs),
(345,577,o),
(326,600,o),
(270,600,cs),
(206,600,o),
(133,567,o),
(73,525,c),
(129,441,l),
(106,324,o),
(75,158,o),
(75,99,cs),
(75,19,o),
(108,-25,o),
(192,-25,cs)
);
},
{
closed = 1;
nodes = (
(649,-25,o),
(699,6,o),
(738,69,c),
(663,99,o),
(623,154,o),
(597,210,cs),
(515,361,l),
(342,257,l),
(417,118,ls),
(471,19,o),
(513,-25,o),
(585,-25,cs)
);
}
);
width = 739;
},
{
anchors = (
{
name = bottom;
pos = (348,0);
},
{
name = top;
pos = (417,575);
}
);
hints = (
{
origin = (1,18);
target = (1,5);
type = Stem;
},
{
origin = (0,12);
target = (0,3);
type = Stem;
}
);
layerId = "1D04CB99-59CD-4CDD-8259-0FDF24D9F847";
shapes = (
{
closed = 1;
nodes = (
(413,303,ls),
(551,394,o),
(614,472,o),
(614,540,cs),
(614,577,o),
(593,600,o),
(560,600,cs),
(544,600,o),
(522,594,o),
(509,581,c),
(511,571,o),
(513,561,o),
(513,551,cs),
(513,475,o),
(440,395,o),
(362,331,cs),
(209,210,l),
(197,159,l)
);
},
{
closed = 1;
nodes = (
(217,-25,o),
(236,-18,o),
(254,-3,c),
(241,5,o),
(235,18,o),
(235,40,cs),
(235,201,o),
(305,529,o),
(305,550,cs),
(305,588,o),
(290,600,o),
(255,600,cs),
(229,600,o),
(189,588,o),
(163,566,c),
(204,525,l),
(150,197,o),
(138,85,o),
(138,33,cs),
(138,-10,o),
(158,-25,o),
(194,-25,cs)
);
},
{
closed = 1;
nodes = (
(586,-25,o),
(618,-9,o),
(637,24,c),
(568,50,o),
(542,90,o),
(508,146,cs),
(402,339,l),
(328,278,l),
(441,75,ls),
(484,-4,o),
(513,-25,o),
(559,-25,cs)
);
}
);
width = 651;
},
{
anchors = (
{
name = bottom;
pos = (347,0);
},
{
name = top;
pos = (417,575);
}
);
hints = (
{
origin = (1,18);
target = (1,5);
type = Stem;
},
{
origin = (0,12);
target = (0,3);
type = Stem;
}
);
layerId = "CE369AAB-0FC9-4F25-BC24-38D80C2A37D0";
shapes = (
{
closed = 1;
nodes = (
(429,298,ls),
(571,387,o),
(634,463,o),
(634,533,cs),
(634,574,o),
(609,600,o),
(571,600,cs),
(550,600,o),
(524,593,o),
(505,578,c),
(508,567,o),
(510,556,o),
(510,545,cs),
(510,469,o),
(437,394,o),
(355,326,cs),
(216,216,l),
(205,156,l)
);
},
{
closed = 1;
nodes = (
(219,-25,o),
(242,-16,o),
(264,2,c),
(251,12,o),
(244,29,o),
(244,55,cs),
(244,209,o),
(313,518,o),
(313,545,cs),
(313,586,o),
(297,600,o),
(258,600,cs),
(224,600,o),
(178,584,o),
(145,558,c),
(189,508,l),
(141,222,o),
(125,100,o),
(125,46,cs),
(125,-4,o),
(148,-25,o),
(194,-25,cs)
);
},
{
closed = 1;
nodes = (
(599,-25,o),
(634,-6,o),
(657,33,c),
(587,60,o),
(558,103,o),
(526,159,cs),
(425,343,l),
(331,274,l),
(436,84,ls),
(481,1,o),
(513,-25,o),
(564,-25,cs)
);
}
);
width = 669;
}
);
metricLeft = i;
metricRight = k;
unicode = 312;
},
{
color = 10;
glyphname = l;
kernLeft = h;
kernRight = l;
layers = (
{
anchors = (
{
name = bottom;
pos = (165,0);
},
{
name = center;
pos = (205,377);
},
{
name = top;
pos = (260,725);
},
{
name = topright;
pos = (345,575);
}
);
layerId = "E79706D4-AD71-4087-AB75-377D41BAFC4F";
shapes = (
{
closed = 1;
nodes = (
(221,-25,o),
(270,-9,o),
(307,24,c),
(289,46,o),
(276,65,o),
(276,132,cs),
(276,357,o),
(365,605,o),
(365,704,cs),
(365,754,o),
(343,775,o),
(280,775,cs),
(219,775,o),
(149,743,o),
(93,702,c),
(149,622,l),
(123,472,o),
(70,195,o),
(70,119,cs),
(70,22,o),
(102,-25,o),
(183,-25,cs)
);
}
);
width = 385;
},
{
anchors = (
{
name = bottom;
pos = (140,0);
},
{
name = center;
pos = (202,391);
},
{
name = top;
pos = (257,725);
},
{
name = topright;
pos = (279,575);
}
);
layerId = "1D04CB99-59CD-4CDD-8259-0FDF24D9F847";
shapes = (
{
closed = 1;
nodes = (
(185,-25,o),
(205,-15,o),
(220,-2,c),
(208,7,o),
(202,34,o),
(202,47,cs),
(202,270,o),
(306,676,o),
(306,724,cs),
(306,762,o),
(293,775,o),
(262,775,cs),
(234,775,o),
(192,763,o),
(165,740,c),
(206,697,l),
(171,505,o),
(107,107,o),
(107,38,cs),
(107,-5,o),
(127,-25,o),
(157,-25,cs)
);
}
);
width = 372;
},
{
anchors = (
{
name = bottom;
pos = (145,0);
},
{
name = center;
pos = (203,388);
},
{
name = top;
pos = (258,725);
},
{
name = topright;
pos = (292,575);
}
);
layerId = "CE369AAB-0FC9-4F25-BC24-38D80C2A37D0";
shapes = (
{
closed = 1;
nodes = (
(192,-25,o),
(218,-14,o),
(237,3,c),
(224,15,o),
(217,40,o),
(217,64,cs),
(217,287,o),
(318,662,o),
(318,720,cs),
(318,760,o),
(303,775,o),
(266,775,cs),
(231,775,o),
(183,759,o),
(151,732,c),
(195,682,l),
(161,498,o),
(100,125,o),
(100,54,cs),
(100,0,o),
(122,-25,o),
(162,-25,cs)
);
}
);
width = 375;
}
);
unicode = 108;
},
{
color = 1;
glyphname = lslash;
kernLeft = h;
kernRight = l;
layers = (
{
hints = (
{
horizontal = 1;
place = (307, 114);
place = (307, 114);
type = Stem;
},
{
horizontal = 1;
place = (377, 114);
place = (377, 114);
type = Stem;
}
);
layerId = "E79706D4-AD71-4087-AB75-377D41BAFC4F";
shapes = (
{
closed = 1;
nodes = (
(-4,209,o),
(16,204,o),
(38,213,cs),
(188,276,o),
(391,391,o),
(475,435,c),
(469,462,o),
(454,495,o),
(445,502,cs),
(426,518,o),
(408,523,o),
(386,513,cs),
(236,446,o),
(37,341,o),
(-53,292,c),
(-47,267,o),
(-41,241,o),
(-23,225,cs)
);
},
{
ref = l;
}
);
width = 385;
},
{
hints = (
{
horizontal = 1;
place = (460.5, 171);
place = (460.5, 171);
type = Stem;
},
{
horizontal = 1;
place = (565.5, 171);
place = (565.5, 171);
type = Stem;
},
{
horizontal = 1;
place = (255.764, 21);
target = up;
type = BottomGhost;
},
{
horizontal = 1;
place = (772.844, -20);
target = down;
type = TopGhost;
}
);
layerId = "1D04CB99-59CD-4CDD-8259-0FDF24D9F847";
shapes = (
{
closed = 1;
nodes = (
(36.414,269.013,o),
(55.068,265.109,o),
(77.987,272.509,cs),
(219,323,o),
(315,379,o),
(395,405,c),
(391,416,o),
(384,425,o),
(375,432,cs),
(356,448,o),
(338,452,o),
(316,443,cs),
(176,390,o),
(83,342,o),
(-2.697,312.013,c),
(1.186,301.706,o),
(8.223,292.668,o),
(17.416,284.955,cs)
);
},
{
ref = l;
}
);
width = 372;
},
{
hints = (
{
horizontal = 1;
place = (429.8, 159.6);
place = (429.8, 159.6);
type = Stem;
},
{
horizontal = 1;
place = (527.8, 159.6);
place = (527.8, 159.6);
type = Stem;
}
);
layerId = "CE369AAB-0FC9-4F25-BC24-38D80C2A37D0";
shapes = (
{
closed = 1;
nodes = (
(36,239,o),
(57,232,o),
(78,243,cs),
(220,313,o),
(315,374,o),
(395,415,c),
(391,434,o),
(386,453,o),
(375,462,cs),
(356,478,o),
(337,484,o),
(316,473,cs),
(175,400,o),
(83,347,o),
(-3,302,c),
(1,284,o),
(6,265,o),
(17,255,cs)
);
},
{
ref = l;
}
);
width = 375;
}
);
unicode = 322;
},
{
color = 10;
glyphname = m;
kernLeft = n;
kernRight = n;
layers = (
{
hints = (
{
horizontal = 1;
origin = (0,57);
target = (0,8);
type = Stem;
},
{
origin = (0,74);
target = (0,5);
type = Stem;
},
{
origin = (0,14);
target = (0,23);
type = Stem;
},
{
origin = (0,32);
target = (0,41);
type = Stem;
},
{
horizontal = 1;
origin = (0,77);
target = (0,17);
type = Stem;
}
);
layerId = "E79706D4-AD71-4087-AB75-377D41BAFC4F";
shapes = (
{
closed = 1;
nodes = (
(209,-25,o),
(246,-9,o),
(282,24,c),
(269,42,o),
(261,75,o),
(261,115,cs),
(261,309,o),
(392,443,o),
(464,443,cs),
(489,443,o),
(498,426,o),
(498,398,cs),
(498,325,o),
(438,211,o),
(438,89,cs),
(438,15,o),
(471,-25,o),
(555,-25,cs),
(592,-25,o),
(629,-9,o),
(665,24,c),
(652,42,o),
(644,75,o),
(644,115,cs),
(644,309,o),
(775,443,o),
(847,443,cs),
(872,443,o),
(881,426,o),
(881,398,cs),
(881,325,o),
(821,211,o),
(821,89,cs),
(821,15,o),
(854,-25,o),
(938,-25,cs),
(975,-25,o),
(1012,-9,o),
(1048,24,c),
(1035,42,o),
(1027,75,o),
(1027,115,cs),
(1027,239,o),
(1086,371,o),
(1086,479,cs),
(1086,562,o),
(1046,600,o),
(965,600,cs),
(867,600,o),
(781,551,o),
(703,417,c),
(693,422,l),
(700,447,o),
(703,469,o),
(703,488,cs),
(703,566,o),
(653,600,o),
(582,600,cs),
(484,600,o),
(398,551,o),
(320,417,c),
(310,422,l),
(322,449,o),
(333,489,o),
(333,524,cs),
(333,571,o),
(307,600,o),
(251,600,cs),
(185,600,o),
(121,575,o),
(66,544,c),
(118,464,l),
(92,351,o),
(55,156,o),
(55,99,cs),
(55,19,o),
(88,-25,o),
(172,-25,cs)
);
}
);
width = 1131;
},
{
hints = (
{
horizontal = 1;
origin = (0,57);
target = (0,8);
type = Stem;
},
{
origin = (0,74);
target = (0,5);
type = Stem;
},
{
origin = (0,14);
target = (0,23);
type = Stem;
},
{
origin = (0,32);
target = (0,41);
type = Stem;
},
{
horizontal = 1;
origin = (0,77);
target = (0,17);
type = Stem;
}
);
layerId = "1D04CB99-59CD-4CDD-8259-0FDF24D9F847";
shapes = (
{
closed = 1;
nodes = (
(189,-25,o),
(207,-18,o),
(223,-2,c),
(216,6,o),
(213,23,o),
(213,40,cs),
(213,332,o),
(366,533,o),
(486,533,cs),
(535,533,o),
(555,500,o),
(555,443,cs),
(555,346,o),
(490,142,o),
(490,38,cs),
(490,-3,o),
(507,-25,o),
(546,-25,cs),
(563,-25,o),
(581,-18,o),
(597,-2,c),
(590,6,o),
(587,23,o),
(587,40,cs),
(587,332,o),
(740,533,o),
(860,533,cs),
(909,533,o),
(929,500,o),
(929,443,cs),
(929,346,o),
(864,142,o),
(864,38,cs),
(864,-3,o),
(881,-25,o),
(920,-25,cs),
(937,-25,o),
(955,-18,o),
(971,-2,c),
(964,6,o),
(961,23,o),
(961,40,cs),
(961,185,o),
(1033,338,o),
(1033,464,cs),
(1033,558,o),
(990,600,o),
(903,600,cs),
(807,600,o),
(725,551,o),
(653,417,c),
(643,422,l),
(647,440,o),
(649,456,o),
(649,470,cs),
(649,545,o),
(621,600,o),
(529,600,cs),
(436,600,o),
(356,551,o),
(287,417,c),
(277,422,l),
(298,463,o),
(310,512,o),
(310,547,cs),
(310,586,o),
(299,596,o),
(264,596,cs),
(239,596,o),
(194,580,o),
(166,552,c),
(209,509,l),
(171,362,o),
(116,108,o),
(116,33,cs),
(116,-5,o),
(133,-25,o),
(172,-25,cs)
);
}
);
width = 1114;
},
{
hints = (
{
horizontal = 1;
origin = (0,57);
target = (0,8);
type = Stem;
},
{
origin = (0,74);
target = (0,5);
type = Stem;
},
{
origin = (0,14);
target = (0,23);
type = Stem;
},
{
origin = (0,32);
target = (0,41);
type = Stem;
},
{
horizontal = 1;
origin = (0,77);
target = (0,17);
type = Stem;
}
);
layerId = "CE369AAB-0FC9-4F25-BC24-38D80C2A37D0";
shapes = (
{
closed = 1;
nodes = (
(193,-25,o),
(215,-16,o),
(235,3,c),
(227,13,o),
(223,33,o),
(223,55,cs),
(223,327,o),
(371,515,o),
(482,515,cs),
(526,515,o),
(544,485,o),
(544,434,cs),
(544,342,o),
(480,156,o),
(480,48,cs),
(480,1,o),
(500,-25,o),
(548,-25,cs),
(569,-25,o),
(591,-16,o),
(611,3,c),
(602,13,o),
(598,33,o),
(598,55,cs),
(598,327,o),
(747,515,o),
(857,515,cs),
(902,515,o),
(919,485,o),
(919,434,cs),
(919,342,o),
(855,156,o),
(855,48,cs),
(855,1,o),
(876,-25,o),
(924,-25,cs),
(945,-25,o),
(966,-16,o),
(986,3,c),
(978,13,o),
(974,33,o),
(974,55,cs),
(974,196,o),
(1044,345,o),
(1044,467,cs),
(1044,559,o),
(1001,600,o),
(915,600,cs),
(819,600,o),
(736,551,o),
(663,417,c),
(653,422,l),
(658,441,o),
(660,459,o),
(660,474,cs),
(660,549,o),
(627,600,o),
(540,600,cs),
(446,600,o),
(364,551,o),
(294,417,c),
(284,422,l),
(303,460,o),
(315,507,o),
(315,542,cs),
(315,583,o),
(301,597,o),
(261,597,cs),
(228,597,o),
(179,579,o),
(146,550,c),
(191,500,l),
(155,360,o),
(104,118,o),
(104,46,cs),
(104,0,o),
(124,-25,o),
(172,-25,cs)
);
}
);
width = 1117;
}
);
metricLeft = n;
metricRight = n;
unicode = 109;
},
{
color = 10;
glyphname = n;
kernLeft = n;
kernRight = n;
layers = (
{
anchors = (
{
name = bottom;
pos = (358,0);
},
{
name = top;
pos = (460,575);
}
);
hints = (
{
horizontal = 1;
origin = (0,29);
target = (0,8);
type = Stem;
},
{
origin = (0,46);
target = (0,5);
type = Stem;
},
{
origin = (0,14);
target = (0,23);
type = Stem;
},
{
horizontal = 1;
origin = (0,49);
target = (0,17);
type = Stem;
}
);
layerId = "E79706D4-AD71-4087-AB75-377D41BAFC4F";
shapes = (
{
closed = 1;
nodes = (
(209,-25,o),
(246,-9,o),
(282,24,c),
(269,42,o),
(261,75,o),
(261,115,cs),
(261,309,o),
(402,443,o),
(474,443,cs),
(499,443,o),
(508,427,o),
(508,401,cs),
(508,329,o),
(448,210,o),
(448,99,cs),
(448,19,o),
(481,-25,o),
(565,-25,cs),
(602,-25,o),
(639,-9,o),
(675,24,c),
(662,42,o),
(654,75,o),
(654,115,cs),
(654,239,o),
(713,371,o),
(713,479,cs),
(713,562,o),
(673,600,o),
(592,600,cs),
(494,600,o),
(398,551,o),
(320,417,c),
(310,422,l),
(322,449,o),
(333,489,o),
(333,524,cs),
(333,571,o),
(307,600,o),
(251,600,cs),
(185,600,o),
(121,575,o),
(66,544,c),
(118,464,l),
(92,351,o),
(55,156,o),
(55,99,cs),
(55,19,o),
(88,-25,o),
(172,-25,cs)
);
}
);
width = 758;
},
{
anchors = (
{
name = bottom;
pos = (358,0);
},
{
name = top;
pos = (460,575);
}
);
hints = (
{
horizontal = 1;
origin = (0,29);
target = (0,8);
type = Stem;
},
{
origin = (0,46);
target = (0,5);
type = Stem;
},
{
origin = (0,14);
target = (0,23);
type = Stem;
},
{
horizontal = 1;
origin = (0,49);
target = (0,17);
type = Stem;
}
);
layerId = "1D04CB99-59CD-4CDD-8259-0FDF24D9F847";
shapes = (
{
closed = 1;
nodes = (
(191,-25,o),
(208,-17,o),
(223,-2,c),
(216,6,o),
(213,21,o),
(213,40,cs),
(213,273,o),
(340,533,o),
(504,533,cs),
(548,533,o),
(572,504,o),
(572,442,cs),
(572,344,o),
(508,143,o),
(508,33,cs),
(508,-8,o),
(527,-25,o),
(563,-25,cs),
(582,-25,o),
(600,-17,o),
(615,-2,c),
(608,6,o),
(604,21,o),
(604,40,cs),
(604,185,o),
(677,338,o),
(677,464,cs),
(677,556,o),
(635,600,o),
(547,600,cs),
(437,600,o),
(351,532,o),
(287,417,c),
(277,422,l),
(298,463,o),
(310,512,o),
(310,547,cs),
(310,586,o),
(299,596,o),
(264,596,cs),
(239,596,o),
(194,580,o),
(166,552,c),
(209,509,l),
(159,315,o),
(116,92,o),
(116,33,cs),
(116,-8,o),
(136,-25,o),
(172,-25,cs)
);
}
);
width = 758;
},
{
anchors = (
{
name = bottom;
pos = (358,0);
},
{
name = top;
pos = (460,575);
}
);
hints = (
{
horizontal = 1;
origin = (0,29);
target = (0,8);
type = Stem;
},
{
origin = (0,46);
target = (0,5);
type = Stem;
},
{
origin = (0,14);
target = (0,23);
type = Stem;
},
{
horizontal = 1;
origin = (0,49);
target = (0,17);
type = Stem;
}
);
layerId = "CE369AAB-0FC9-4F25-BC24-38D80C2A37D0";
shapes = (
{
closed = 1;
nodes = (
(195,-25,o),
(216,-15,o),
(235,3,c),
(227,13,o),
(223,32,o),
(223,55,cs),
(223,280,o),
(352,515,o),
(498,515,cs),
(538,515,o),
(559,489,o),
(559,434,cs),
(559,341,o),
(496,156,o),
(496,46,cs),
(496,-3,o),
(518,-25,o),
(563,-25,cs),
(586,-25,o),
(608,-15,o),
(627,3,c),
(619,13,o),
(614,32,o),
(614,55,cs),
(614,196,o),
(684,345,o),
(684,467,cs),
(684,557,o),
(643,600,o),
(556,600,cs),
(448,600,o),
(360,536,o),
(294,417,c),
(284,422,l),
(303,460,o),
(315,507,o),
(315,542,cs),
(315,583,o),
(301,597,o),
(261,597,cs),
(228,597,o),
(179,579,o),
(146,550,c),
(191,500,l),
(146,322,o),
(104,105,o),
(104,46,cs),
(104,-3,o),
(126,-25,o),
(172,-25,cs)
);
}
);
width = 758;
}
);
unicode = 110;
},
{
color = 10;
glyphname = eng;
kernLeft = n;
kernRight = j;
layers = (
{
layerId = "E79706D4-AD71-4087-AB75-377D41BAFC4F";
shapes = (
{
closed = 1;
nodes = (
(577,-240,o),
(713,95,o),
(713,409,cs),
(713,539,o),
(670,600,o),
(582,600,cs),
(488,600,o),
(395,551,o),
(320,417,c),
(310,422,l),
(322,449,o),
(333,489,o),
(333,524,cs),
(333,571,o),
(307,600,o),
(251,600,cs),
(185,600,o),
(121,575,o),
(66,544,c),
(118,464,l),
(92,351,o),
(55,156,o),
(55,99,cs),
(55,19,o),
(88,-25,o),
(172,-25,cs),
(209,-25,o),
(246,-9,o),
(282,24,c),
(269,42,o),
(261,75,o),
(261,115,cs),
(261,309,o),
(382,443,o),
(459,443,cs),
(495,443,o),
(508,409,o),
(508,351,cs),
(508,151,o),
(410,-114,o),
(221,-114,c),
(221,-207,o),
(295,-240,o),
(345,-240,cs)
);
}
);
width = 774;
},
{
layerId = "1D04CB99-59CD-4CDD-8259-0FDF24D9F847";
shapes = (
{
closed = 1;
nodes = (
(488,-240,o),
(677,119,o),
(677,454,cs),
(677,554,o),
(637,600,o),
(552,600,cs),
(440,600,o),
(353,532,o),
(287,417,c),
(277,422,l),
(298,463,o),
(310,512,o),
(310,547,cs),
(310,586,o),
(299,596,o),
(264,596,cs),
(239,596,o),
(194,580,o),
(166,552,c),
(209,509,l),
(159,315,o),
(116,92,o),
(116,33,cs),
(116,-8,o),
(136,-25,o),
(172,-25,cs),
(191,-25,o),
(208,-17,o),
(223,-2,c),
(216,6,o),
(213,21,o),
(213,40,cs),
(213,273,o),
(350,533,o),
(511,533,cs),
(550,533,o),
(572,493,o),
(572,407,cs),
(572,157,o),
(431,-174,o),
(221,-174,c),
(221,-222,o),
(254,-240,o),
(300,-240,cs)
);
}
);
width = 784;
},
{
layerId = "CE369AAB-0FC9-4F25-BC24-38D80C2A37D0";
shapes = (
{
closed = 1;
nodes = (
(506,-240,o),
(684,114,o),
(684,445,cs),
(684,551,o),
(644,600,o),
(558,600,cs),
(450,600,o),
(361,536,o),
(294,417,c),
(284,422,l),
(303,460,o),
(315,507,o),
(315,542,cs),
(315,583,o),
(301,597,o),
(261,597,cs),
(228,597,o),
(179,579,o),
(146,550,c),
(191,500,l),
(146,322,o),
(104,105,o),
(104,46,cs),
(104,-3,o),
(126,-25,o),
(172,-25,cs),
(195,-25,o),
(216,-15,o),
(235,3,c),
(227,13,o),
(223,32,o),
(223,55,cs),
(223,280,o),
(356,515,o),
(501,515,cs),
(539,515,o),
(559,476,o),
(559,396,cs),
(559,156,o),
(427,-162,o),
(221,-162,c),
(221,-219,o),
(262,-240,o),
(309,-240,cs)
);
}
);
width = 782;
}
);
metricLeft = n;
metricRight = "=n+25";
unicode = 331;
},
{
color = 10;
glyphname = o;
kernLeft = o;
kernRight = o;
layers = (
{
anchors = (
{
name = bottom;
pos = (299,0);
},
{
name = center;
pos = (370,288);
},
{
name = ogonek;
pos = (647,10);
},
{
name = top;
pos = (401,575);
},
{
name = topright;
pos = (548,524);
}
);
hints = (
{
horizontal = 1;
origin = (0,32);
target = (0,14);
type = Stem;
},
{
horizontal = 1;
origin = (0,26);
target = (0,20);
type = Stem;
},
{
origin = (0,29);
target = (0,17);
type = Stem;
},
{
origin = (0,11);
target = (0,2);
type = Stem;
}
);
layerId = "E79706D4-AD71-4087-AB75-377D41BAFC4F";
shapes = (
{
closed = 1;
nodes = (
(520,-25,o),
(679,143,o),
(679,357,cs),
(679,456,o),
(626,524,o),
(548,524,cs),
(477,524,o),
(420,461,o),
(420,379,cs),
(420,322,o),
(445,279,o),
(496,251,c),
(483,142,o),
(428,78,o),
(351,78,cs),
(286,78,o),
(243,123,o),
(243,236,cs),
(243,386,o),
(344,509,o),
(505,509,c),
(506,540,o),
(503,570,o),
(496,592,c),
(468,598,o),
(447,600,o),
(425,600,cs),
(204,600,o),
(45,450,o),
(45,238,cs),
(45,78,o),
(151,-25,o),
(319,-25,cs)
);
}
);
width = 719;
},
{
anchors = (
{
name = bottom;
pos = (317,0);
},
{
name = center;
pos = (373,288);
},
{
name = ogonek;
pos = (655,10);
},
{
name = top;
pos = (419,575);
},
{
name = topright;
pos = (559,532);
}
);
hints = (
{
horizontal = 1;
origin = (0,32);
target = (0,14);
type = Stem;
},
{
horizontal = 1;
origin = (0,26);
target = (0,20);
type = Stem;
},
{
origin = (0,29);
target = (0,17);
type = Stem;
},
{
origin = (0,11);
target = (0,2);
type = Stem;
}
);
layerId = "1D04CB99-59CD-4CDD-8259-0FDF24D9F847";
shapes = (
{
closed = 1;
nodes = (
(505,-25,o),
(649,154,o),
(649,380,cs),
(649,476,o),
(616,532,o),
(559,532,cs),
(519,532,o),
(491,500,o),
(491,456,cs),
(491,402,o),
(514,363,o),
(570,326,c),
(552,150,o),
(457,33,o),
(327,33,cs),
(241,33,o),
(195,111,o),
(195,230,cs),
(195,419,o),
(310,554,o),
(525,554,c),
(524,569,o),
(520,581,o),
(511,592,c),
(486,598,o),
(462,600,o),
(433,600,cs),
(231,600,o),
(90,452,o),
(90,238,cs),
(90,78,o),
(181,-25,o),
(322,-25,cs)
);
}
);
width = 727;
},
{
anchors = (
{
name = bottom;
pos = (313,0);
},
{
name = center;
pos = (372,288);
},
{
name = ogonek;
pos = (653,10);
},
{
name = top;
pos = (415,575);
},
{
name = topright;
pos = (557,530);
}
);
hints = (
{
horizontal = 1;
origin = (0,32);
target = (0,14);
type = Stem;
},
{
horizontal = 1;
origin = (0,26);
target = (0,20);
type = Stem;
},
{
origin = (0,29);
target = (0,17);
type = Stem;
},
{
origin = (0,11);
target = (0,2);
type = Stem;
}
);
layerId = "CE369AAB-0FC9-4F25-BC24-38D80C2A37D0";
shapes = (
{
closed = 1;
nodes = (
(508,-25,o),
(655,152,o),
(655,375,cs),
(655,472,o),
(618,530,o),
(557,530,cs),
(511,530,o),
(477,492,o),
(477,441,cs),
(477,386,o),
(500,346,o),
(555,311,c),
(538,148,o),
(451,42,o),
(332,42,cs),
(250,42,o),
(205,113,o),
(205,231,cs),
(205,412,o),
(317,545,o),
(521,545,c),
(520,563,o),
(517,579,o),
(508,592,c),
(482,598,o),
(459,600,o),
(431,600,cs),
(226,600,o),
(81,452,o),
(81,238,cs),
(81,78,o),
(175,-25,o),
(321,-25,cs)
);
}
);
width = 725;
}
);
unicode = 111;
},
{
color = 10;
glyphname = oe;
kernLeft = o;
kernRight = e;
layers = (
{
anchors = (
{
name = bottom;
pos = (513,0);
},
{
name = top;
pos = (605,575);
}
);
hints = (
{
horizontal = 1;
origin = (0,32);
target = (0,14);
type = Stem;
},
{
horizontal = 1;
origin = (0,26);
target = (0,20);
type = Stem;
},
{
origin = (0,29);
target = (0,17);
type = Stem;
},
{
origin = (0,11);
target = (0,2);
type = Stem;
}
);
layerId = "E79706D4-AD71-4087-AB75-377D41BAFC4F";
shapes = (
{
closed = 1;
nodes = (
(523,-25,o),
(680,135,o),
(680,337,cs),
(680,442,o),
(631,514,o),
(559,514,cs),
(515,514,o),
(475,493,o),
(451,458,c),
(498,410,o),
(517,359,o),
(517,281,cs),
(517,163,o),
(450,78,o),
(357,78,cs),
(283,78,o),
(244,132,o),
(244,236,cs),
(244,395,o),
(354,509,o),
(506,509,c),
(507,542,o),
(504,572,o),
(497,592,c),
(473,598,o),
(452,600,o),
(426,600,cs),
(204,600,o),
(46,452,o),
(46,245,cs),
(46,80,o),
(154,-25,o),
(323,-25,cs)
);
},
{
pos = (476,0);
ref = e;
}
);
width = 1137;
},
{
anchors = (
{
name = bottom;
pos = (484,0);
},
{
name = top;
pos = (576,575);
}
);
hints = (
{
horizontal = 1;
origin = (0,32);
target = (0,14);
type = Stem;
},
{
horizontal = 1;
origin = (0,26);
target = (0,20);
type = Stem;
},
{
origin = (0,29);
target = (0,17);
type = Stem;
},
{
origin = (0,11);
target = (0,2);
type = Stem;
}
);
layerId = "1D04CB99-59CD-4CDD-8259-0FDF24D9F847";
shapes = (
{
closed = 1;
nodes = (
(509,-25,o),
(633,140,o),
(633,390,cs),
(633,483,o),
(598,537,o),
(538,537,cs),
(519,537,o),
(505,529,o),
(491,514,c),
(523,467,o),
(544,389,o),
(544,311,cs),
(544,142,o),
(463,33,o),
(339,33,cs),
(248,33,o),
(194,107,o),
(194,230,cs),
(194,416,o),
(315,554,o),
(509,554,c),
(508,568,o),
(504,580,o),
(495,592,c),
(473,598,o),
(450,600,o),
(417,600,cs),
(225,600,o),
(89,436,o),
(89,235,cs),
(89,77,o),
(179,-25,o),
(320,-25,cs)
);
},
{
pos = (455,0);
ref = e;
}
);
width = 1102;
},
{
anchors = (
{
name = bottom;
pos = (490,0);
},
{
name = top;
pos = (582,575);
}
);
hints = (
{
horizontal = 1;
origin = (0,32);
target = (0,14);
type = Stem;
},
{
horizontal = 1;
origin = (0,26);
target = (0,20);
type = Stem;
},
{
origin = (0,29);
target = (0,17);
type = Stem;
},
{
origin = (0,11);
target = (0,2);
type = Stem;
}
);
layerId = "CE369AAB-0FC9-4F25-BC24-38D80C2A37D0";
shapes = (
{
closed = 1;
nodes = (
(512,-25,o),
(642,139,o),
(642,379,cs),
(642,475,o),
(605,532,o),
(542,532,cs),
(518,532,o),
(499,522,o),
(483,503,c),
(518,456,o),
(539,383,o),
(539,305,cs),
(539,146,o),
(460,42,o),
(343,42,cs),
(255,42,o),
(204,112,o),
(204,231,cs),
(204,412,o),
(323,545,o),
(508,545,c),
(508,563,o),
(504,578,o),
(495,592,c),
(473,598,o),
(450,600,o),
(419,600,cs),
(221,600,o),
(80,439,o),
(80,237,cs),
(80,78,o),
(174,-25,o),
(321,-25,cs)
);
},
{
alignment = -1;
pos = (459,0);
ref = e;
}
);
width = 1109;
}
);
metricLeft = o;
metricRight = e;
unicode = 339;
},
{
color = 10;
glyphname = p;
kernLeft = p;
kernRight = o;
layers = (
{
hints = (
{
horizontal = 1;
origin = (0,25);
target = (0,19);
type = Stem;
},
{
horizontal = 1;
origin = (1,11);
target = (0,13);
type = Stem;
},
{
origin = (1,18);
target = (1,5);
type = Stem;
},
{
origin = (0,16);
target = (0,2);
type = Stem;
}
);
layerId = "E79706D4-AD71-4087-AB75-377D41BAFC4F";
shapes = (
{
closed = 1;
nodes = (
(562,0,o),
(724,148,o),
(724,365,cs),
(724,507,o),
(650,600,o),
(537,600,cs),
(450,600,o),
(376,543,o),
(338,447,c),
(256,478,l),
(258,114,l),
(293,296,o),
(373,428,o),
(448,428,cs),
(497,428,o),
(526,391,o),
(526,326,cs),
(526,192,o),
(401,91,o),
(234,91,c),
(234,58,o),
(238,28,o),
(246,8,c),
(269,3,o),
(298,0,o),
(325,0,cs)
);
},
{
closed = 1;
nodes = (
(195,-200,o),
(243,-181,o),
(277,-151,c),
(253,-122,o),
(246,-97,o),
(246,-43,cs),
(246,182,o),
(335,430,o),
(335,529,cs),
(335,580,o),
(311,600,o),
(250,600,cs),
(195,600,o),
(126,573,o),
(63,527,c),
(119,447,l),
(75,206,o),
(40,-27,o),
(40,-76,cs),
(40,-162,o),
(74,-200,o),
(153,-200,cs)
);
}
);
width = 763;
},
{
hints = (
{
horizontal = 1;
origin = (0,25);
target = (0,19);
type = Stem;
},
{
horizontal = 1;
origin = (1,11);
target = (0,13);
type = Stem;
},
{
origin = (1,18);
target = (1,5);
type = Stem;
},
{
origin = (0,16);
target = (0,2);
type = Stem;
}
);
layerId = "1D04CB99-59CD-4CDD-8259-0FDF24D9F847";
shapes = (
{
closed = 1;
nodes = (
(518,0,o),
(687,163,o),
(687,365,cs),
(687,507,o),
(615,600,o),
(506,600,cs),
(422,600,o),
(345,540,o),
(295,434,c),
(251,474,l),
(220,89,l),
(280,374,o),
(357,526,o),
(468,526,cs),
(541,526,o),
(584,469,o),
(584,371,cs),
(584,174,o),
(432,46,o),
(197,46,c),
(197,33,o),
(201,21,o),
(209,8,c),
(238,3,o),
(273,0,o),
(308,0,cs)
);
},
{
closed = 1;
nodes = (
(186,-200,o),
(207,-192,o),
(223,-177,c),
(214,-172,o),
(205,-148,o),
(205,-129,cs),
(205,170,o),
(309,471,o),
(309,549,cs),
(309,586,o),
(297,600,o),
(265,600,cs),
(234,600,o),
(192,585,o),
(168,565,c),
(209,522,l),
(154,214,o),
(110,-75,o),
(110,-127,cs),
(110,-176,o),
(129,-200,o),
(160,-200,cs)
);
}
);
width = 771;
},
{
hints = (
{
horizontal = 1;
origin = (0,25);
target = (0,19);
type = Stem;
},
{
horizontal = 1;
origin = (1,11);
target = (0,13);
type = Stem;
},
{
origin = (1,18);
target = (1,5);
type = Stem;
},
{
origin = (0,16);
target = (0,2);
type = Stem;
}
);
layerId = "CE369AAB-0FC9-4F25-BC24-38D80C2A37D0";
shapes = (
{
closed = 1;
nodes = (
(527,0,o),
(694,160,o),
(694,365,cs),
(694,507,o),
(622,600,o),
(512,600,cs),
(428,600,o),
(351,541,o),
(304,437,c),
(252,475,l),
(228,94,l),
(283,358,o),
(360,506,o),
(464,506,cs),
(532,506,o),
(572,453,o),
(572,362,cs),
(572,178,o),
(426,55,o),
(204,55,c),
(204,38,o),
(208,22,o),
(216,8,c),
(244,3,o),
(278,0,o),
(311,0,cs)
);
},
{
closed = 1;
nodes = (
(188,-200,o),
(214,-190,o),
(234,-172,c),
(222,-162,o),
(213,-138,o),
(213,-112,cs),
(213,172,o),
(314,463,o),
(314,545,cs),
(314,585,o),
(300,600,o),
(262,600,cs),
(226,600,o),
(179,583,o),
(147,557,c),
(191,507,l),
(138,212,o),
(96,-65,o),
(96,-117,cs),
(96,-173,o),
(118,-200,o),
(159,-200,cs)
);
}
);
width = 769;
}
);
metricLeft = n;
metricRight = "=|a";
unicode = 112;
},
{
color = 10;
glyphname = thorn;
kernLeft = h;
kernRight = o;
layers = (
{
hints = (
{
horizontal = 1;
origin = (0,25);
target = (0,19);
type = Stem;
},
{
horizontal = 1;
origin = (0,5);
target = (0,13);
type = Stem;
},
{
origin = (1,18);
target = (1,5);
type = Stem;
},
{
origin = (0,16);
target = (0,2);
type = Stem;
}
);
layerId = "E79706D4-AD71-4087-AB75-377D41BAFC4F";
shapes = (
{
closed = 1;
nodes = (
(564,0,o),
(726,148,o),
(726,365,cs),
(726,507,o),
(652,600,o),
(539,600,cs),
(452,600,o),
(378,543,o),
(340,447,c),
(258,478,l),
(260,114,l),
(295,296,o),
(375,428,o),
(450,428,cs),
(499,428,o),
(528,391,o),
(528,326,cs),
(528,192,o),
(403,91,o),
(236,91,c),
(236,58,o),
(240,28,o),
(248,8,c),
(271,3,o),
(300,0,o),
(327,0,cs)
);
},
{
closed = 1;
nodes = (
(193,-200,o),
(242,-184,o),
(279,-151,c),
(261,-129,o),
(248,-110,o),
(248,-43,cs),
(248,251,o),
(365,493,o),
(365,704,cs),
(365,754,o),
(343,775,o),
(280,775,cs),
(219,775,o),
(149,743,o),
(93,702,c),
(149,622,l),
(114,420,o),
(42,20,o),
(42,-56,cs),
(42,-153,o),
(74,-200,o),
(155,-200,cs)
);
}
);
width = 765;
},
{
hints = (
{
horizontal = 1;
origin = (0,25);
target = (0,19);
type = Stem;
},
{
horizontal = 1;
origin = (0,5);
target = (0,13);
type = Stem;
},
{
origin = (1,18);
target = (1,5);
type = Stem;
},
{
origin = (0,16);
target = (0,2);
type = Stem;
}
);
layerId = "1D04CB99-59CD-4CDD-8259-0FDF24D9F847";
shapes = (
{
closed = 1;
nodes = (
(488,0,o),
(657,163,o),
(657,365,cs),
(657,507,o),
(585,600,o),
(476,600,cs),
(392,600,o),
(315,540,o),
(265,434,c),
(221,474,l),
(190,89,l),
(250,374,o),
(327,526,o),
(438,526,cs),
(511,526,o),
(554,469,o),
(554,371,cs),
(554,174,o),
(402,46,o),
(167,46,c),
(167,33,o),
(171,21,o),
(179,8,c),
(208,3,o),
(243,0,o),
(278,0,cs)
);
},
{
closed = 1;
nodes = (
(157,-200,o),
(177,-190,o),
(192,-177,c),
(180,-168,o),
(174,-142,o),
(174,-129,cs),
(174,152,o),
(306,586,o),
(306,724,cs),
(306,762,o),
(293,775,o),
(262,775,cs),
(234,775,o),
(192,763,o),
(165,740,c),
(206,697,l),
(151,395,o),
(79,-69,o),
(79,-137,cs),
(79,-180,o),
(99,-200,o),
(129,-200,cs)
);
}
);
width = 741;
},
{
hints = (
{
horizontal = 1;
origin = (0,25);
target = (0,19);
type = Stem;
},
{
horizontal = 1;
origin = (0,5);
target = (0,13);
type = Stem;
},
{
origin = (1,18);
target = (1,5);
type = Stem;
},
{
origin = (0,16);
target = (0,2);
type = Stem;
}
);
layerId = "CE369AAB-0FC9-4F25-BC24-38D80C2A37D0";
shapes = (
{
closed = 1;
nodes = (
(503,0,o),
(671,160,o),
(671,365,cs),
(671,507,o),
(598,600,o),
(489,600,cs),
(404,600,o),
(328,541,o),
(280,437,c),
(228,475,l),
(204,94,l),
(259,358,o),
(337,506,o),
(440,506,cs),
(509,506,o),
(549,453,o),
(549,362,cs),
(549,178,o),
(402,55,o),
(181,55,c),
(181,38,o),
(185,22,o),
(193,8,c),
(221,3,o),
(254,0,o),
(288,0,cs)
);
},
{
closed = 1;
nodes = (
(164,-200,o),
(190,-189,o),
(209,-172,c),
(196,-160,o),
(189,-136,o),
(189,-112,cs),
(189,172,o),
(318,567,o),
(318,720,cs),
(318,760,o),
(303,775,o),
(266,775,cs),
(231,775,o),
(183,759,o),
(151,732,c),
(195,682,l),
(144,400,o),
(72,-51,o),
(72,-121,cs),
(72,-175,o),
(94,-200,o),
(134,-200,cs)
);
}
);
width = 746;
}
);
metricLeft = l;
metricRight = p;
unicode = 254;
},
{
color = 10;
glyphname = q;
kernLeft = o;
kernRight = q;
layers = (
{
hints = (
{
place = (40, 189);
place = (40, 189);
type = Stem;
},
{
place = (387, 222);
place = (387, 222);
type = Stem;
},
{
horizontal = 1;
place = (-25, 150);
place = (-25, 150);
type = Stem;
},
{
horizontal = 1;
place = (506, 94);
place = (506, 94);
type = Stem;
},
{
horizontal = 1;
place = (-199, 21);
target = up;
type = BottomGhost;
}
);
layerId = "E79706D4-AD71-4087-AB75-377D41BAFC4F";
shapes = (
{
closed = 1;
nodes = (
(533,-199,o),
(603,-167,o),
(659,-126,c),
(603,-46,l),
(645,216,o),
(701,414,o),
(701,496,cs),
(701,547,o),
(675,575,o),
(628,575,cs),
(575,575,o),
(533,554,o),
(497,509,c),
(497,288,o),
(414,147,o),
(316,147,cs),
(267,147,o),
(238,184,o),
(238,249,cs),
(238,391,o),
(370,509,o),
(530,509,c),
(530,544,o),
(526,574,o),
(518,592,c),
(495,597,o),
(466,600,o),
(439,600,cs),
(202,600,o),
(40,442,o),
(40,210,cs),
(40,68,o),
(114,-25,o),
(227,-25,cs),
(314,-25,o),
(389,32,o),
(427,128,c),
(437,123,l),
(413,15,o),
(387,-77,o),
(387,-128,cs),
(387,-178,o),
(409,-199,o),
(472,-199,cs)
);
}
);
width = 737;
},
{
hints = (
{
place = (60, 283.5);
place = (60, 283.5);
type = Stem;
},
{
place = (580.5, 333);
place = (580.5, 333);
type = Stem;
},
{
horizontal = 1;
place = (-37.5, 225);
place = (-37.5, 225);
type = Stem;
},
{
horizontal = 1;
place = (759, 141);
place = (759, 141);
type = Stem;
},
{
horizontal = 1;
place = (-298.5, 21);
target = up;
type = BottomGhost;
}
);
layerId = "1D04CB99-59CD-4CDD-8259-0FDF24D9F847";
shapes = (
{
closed = 1;
nodes = (
(506,-199,o),
(548,-187,o),
(575,-164,c),
(534,-121,l),
(588,171,o),
(658,470,o),
(658,538,cs),
(658,562,o),
(639,575,o),
(609,575,cs),
(599,575,o),
(577,571,o),
(562,554,c),
(562,252,o),
(434,50,o),
(304,50,cs),
(231,50,o),
(189,106,o),
(189,204,cs),
(189,403,o),
(325,554,o),
(575,554,c),
(575,567,o),
(571,579,o),
(563,592,c),
(534,597,o),
(499,600,o),
(465,600,cs),
(255,600,o),
(85,427,o),
(85,210,cs),
(85,68,o),
(158,-25,o),
(266,-25,cs),
(350,-25,o),
(427,28,o),
(477,121,c),
(487,116,l),
(461,-11,o),
(434,-109,o),
(434,-148,cs),
(434,-186,o),
(447,-199,o),
(478,-199,cs)
);
}
);
width = 737;
},
{
hints = (
{
place = (56, 264.6);
place = (56, 264.6);
type = Stem;
},
{
place = (541.8, 310.8);
place = (541.8, 310.8);
type = Stem;
},
{
horizontal = 1;
place = (-35, 210);
place = (-35, 210);
type = Stem;
},
{
horizontal = 1;
place = (708.4, 131.6);
place = (708.4, 131.6);
type = Stem;
},
{
horizontal = 1;
place = (-278.6, 21);
target = up;
type = BottomGhost;
}
);
layerId = "CE369AAB-0FC9-4F25-BC24-38D80C2A37D0";
shapes = (
{
closed = 1;
nodes = (
(511,-199,o),
(559,-183,o),
(592,-156,c),
(548,-106,l),
(599,180,o),
(667,459,o),
(667,530,cs),
(667,559,o),
(646,575,o),
(613,575,cs),
(594,575,o),
(568,568,o),
(549,545,c),
(549,259,o),
(430,69,o),
(306,69,cs),
(238,69,o),
(199,122,o),
(199,213,cs),
(199,401,o),
(334,545,o),
(566,545,c),
(566,562,o),
(562,578,o),
(554,592,c),
(526,597,o),
(492,600,o),
(460,600,cs),
(244,600,o),
(76,430,o),
(76,210,cs),
(76,68,o),
(149,-25,o),
(258,-25,cs),
(343,-25,o),
(419,29,o),
(467,122,c),
(477,117,l),
(451,-6,o),
(425,-103,o),
(425,-144,cs),
(425,-184,o),
(439,-199,o),
(477,-199,cs)
);
}
);
width = 737;
}
);
metricLeft = a;
unicode = 113;
},
{
color = 10;
glyphname = r;
kernLeft = n;
kernRight = r;
layers = (
{
anchors = (
{
name = bottom;
pos = (103,0);
},
{
name = top;
pos = (336,575);
}
);
hints = (
{
horizontal = 1;
origin = (0,14);
target = (0,8);
type = Stem;
},
{
origin = (0,31);
target = (0,5);
type = Stem;
}
);
layerId = "E79706D4-AD71-4087-AB75-377D41BAFC4F";
shapes = (
{
closed = 1;
nodes = (
(210,-25,o),
(247,-9,o),
(283,24,c),
(270,42,o),
(262,75,o),
(262,115,cs),
(262,265,o),
(335,380,o),
(431,380,cs),
(516,380,o),
(559,433,o),
(559,501,cs),
(559,561,o),
(521,599,o),
(459,599,cs),
(359,599,o),
(317,514,o),
(271,386,c),
(261,391,l),
(278,436,o),
(293,478,o),
(293,524,cs),
(293,571,o),
(267,600,o),
(211,600,cs),
(159,600,o),
(111,575,o),
(66,544,c),
(119,464,l),
(87,325,o),
(56,147,o),
(56,99,cs),
(56,19,o),
(89,-25,o),
(173,-25,cs)
);
}
);
width = 544;
},
{
anchors = (
{
name = bottom;
pos = (125,0);
},
{
name = top;
pos = (347,575);
}
);
hints = (
{
horizontal = 1;
origin = (0,14);
target = (0,8);
type = Stem;
},
{
origin = (0,31);
target = (0,5);
type = Stem;
}
);
layerId = "1D04CB99-59CD-4CDD-8259-0FDF24D9F847";
shapes = (
{
closed = 1;
nodes = (
(190,-25,o),
(207,-17,o),
(222,-2,c),
(215,6,o),
(212,21,o),
(212,40,cs),
(212,262,o),
(328,491,o),
(439,491,cs),
(487,491,o),
(524,513,o),
(524,552,cs),
(524,587,o),
(505,601,o),
(466,601,cs),
(408,601,o),
(334,538,o),
(267,383,c),
(257,388,l),
(283,450,o),
(300,502,o),
(300,547,cs),
(300,571,o),
(289,596,o),
(254,596,cs),
(230,596,o),
(199,580,o),
(166,552,c),
(208,509,l),
(163,342,o),
(115,104,o),
(115,48,cs),
(115,-4,o),
(135,-25,o),
(171,-25,cs)
);
}
);
width = 479;
},
{
anchors = (
{
name = bottom;
pos = (121,0);
},
{
name = top;
pos = (345,575);
}
);
hints = (
{
horizontal = 1;
origin = (0,14);
target = (0,8);
type = Stem;
},
{
origin = (0,31);
target = (0,5);
type = Stem;
}
);
layerId = "CE369AAB-0FC9-4F25-BC24-38D80C2A37D0";
shapes = (
{
closed = 1;
nodes = (
(194,-25,o),
(215,-15,o),
(234,3,c),
(226,13,o),
(222,32,o),
(222,55,cs),
(222,263,o),
(329,469,o),
(437,469,cs),
(493,469,o),
(531,497,o),
(531,542,cs),
(531,582,o),
(508,601,o),
(465,601,cs),
(398,601,o),
(331,533,o),
(268,384,c),
(258,389,l),
(282,447,o),
(299,497,o),
(299,542,cs),
(299,571,o),
(285,597,o),
(245,597,cs),
(216,597,o),
(181,579,o),
(146,550,c),
(190,500,l),
(148,339,o),
(103,113,o),
(103,58,cs),
(103,1,o),
(126,-25,o),
(171,-25,cs)
);
}
);
width = 492;
}
);
metricLeft = n;
unicode = 114;
},
{
color = 10;
glyphname = s;
kernLeft = s;
kernRight = s;
layers = (
{
anchors = (
{
name = bottom;
pos = (278,0);
},
{
name = top;
pos = (370,575);
}
);
hints = (
{
horizontal = 1;
origin = (0,35);
target = (0,26);
type = Stem;
},
{
horizontal = 1;
origin = (0,17);
target = (0,8);
type = Stem;
},
{
origin = (0,20);
target = (0,5);
type = Stem;
},
{
origin = (0,23);
target = (0,2);
type = Stem;
}
);
layerId = "E79706D4-AD71-4087-AB75-377D41BAFC4F";
shapes = (
{
closed = 1;
nodes = (
(399,-25,o),
(574,26,o),
(574,170,cs),
(574,369,o),
(265,332,o),
(265,417,cs),
(265,457,o),
(315,482,o),
(367,487,c),
(396,417,o),
(449,385,o),
(502,385,cs),
(559,385,o),
(611,420,o),
(611,482,cs),
(611,551,o),
(527,600,o),
(384,600,cs),
(217,600,o),
(64,542,o),
(64,393,cs),
(64,205,o),
(373,228,o),
(373,157,cs),
(373,114,o),
(303,97,o),
(270,97,cs),
(182,97,o),
(124,138,o),
(89,201,c),
(52,173,o),
(32,132,o),
(32,99,cs),
(32,29,o),
(96,-25,o),
(281,-25,cs)
);
}
);
width = 645;
},
{
anchors = (
{
name = bottom;
pos = (268,0);
},
{
name = top;
pos = (360,575);
}
);
hints = (
{
horizontal = 1;
origin = (0,35);
target = (0,26);
type = Stem;
},
{
horizontal = 1;
origin = (0,17);
target = (0,8);
type = Stem;
},
{
origin = (0,20);
target = (0,5);
type = Stem;
},
{
origin = (0,23);
target = (0,2);
type = Stem;
}
);
layerId = "1D04CB99-59CD-4CDD-8259-0FDF24D9F847";
shapes = (
{
closed = 1;
nodes = (
(441,-25,o),
(523,65,o),
(523,160,cs),
(523,339,o),
(189,319,o),
(189,426,cs),
(189,484,o),
(258,532,o),
(382,546,c),
(398,488,o),
(430,454,o),
(481,454,cs),
(529,454,o),
(562,476,o),
(562,523,cs),
(562,569,o),
(488,600,o),
(390,600,cs),
(211,600,o),
(97,518,o),
(97,416,cs),
(97,232,o),
(432,260,o),
(432,145,cs),
(432,68,o),
(366,28,o),
(258,28,cs),
(196,28,o),
(136,63,o),
(103,131,c),
(76,118,o),
(59,96,o),
(59,72,cs),
(59,8,o),
(147,-25,o),
(263,-25,cs)
);
}
);
width = 611;
},
{
anchors = (
{
name = bottom;
pos = (270,0);
},
{
name = top;
pos = (362,575);
}
);
hints = (
{
horizontal = 1;
origin = (0,35);
target = (0,26);
type = Stem;
},
{
horizontal = 1;
origin = (0,17);
target = (0,8);
type = Stem;
},
{
origin = (0,20);
target = (0,5);
type = Stem;
},
{
origin = (0,23);
target = (0,2);
type = Stem;
}
);
layerId = "CE369AAB-0FC9-4F25-BC24-38D80C2A37D0";
shapes = (
{
closed = 1;
nodes = (
(433,-25,o),
(533,57,o),
(533,162,cs),
(533,345,o),
(204,322,o),
(204,424,cs),
(204,479,o),
(269,522,o),
(379,534,c),
(398,474,o),
(434,440,o),
(485,440,cs),
(535,440,o),
(572,465,o),
(572,515,cs),
(572,565,o),
(496,600,o),
(389,600,cs),
(212,600,o),
(90,523,o),
(90,411,cs),
(90,227,o),
(420,254,o),
(420,147,cs),
(420,77,o),
(353,42,o),
(260,42,cs),
(193,42,o),
(134,78,o),
(100,145,c),
(71,129,o),
(54,103,o),
(54,77,cs),
(54,12,o),
(137,-25,o),
(267,-25,cs)
);
}
);
width = 618;
}
);
unicode = 115;
},
